<?xml version="1.0" encoding="utf-8"?>
<!-- Generator: Adobe Illustrator 19.1.0, SVG Export Plug-In . SVG Version: 6.00 Build 0)  -->
<svg version="1.1" id="Lager_1" xmlns="http://www.w3.org/2000/svg" xmlns:xlink="http://www.w3.org/1999/xlink" x="0px" y="0px"
	 viewBox="-804 475.7 129.3 136.4" style="enable-background:new -804 475.7 129.3 136.4;" xml:space="preserve">
<style type="text/css">
	.st0{fill:#C6C6C6;}
	.st1{fill:#E2E2E2;}
</style>
<g>
	<path class="st0" d="M-804.2,611.8c-0.1-0.1-0.1-0.2-0.1-0.3v-6.2c0-0.1,0-0.2,0.1-0.3c0.1-0.1,0.2-0.1,0.3-0.1h1.7
		c0.3,0,0.6,0.1,0.9,0.2c0.3,0.1,0.5,0.4,0.6,0.6c0.1,0.2,0.2,0.6,0.2,0.9c0,0.3-0.1,0.5-0.2,0.8c-0.1,0.2-0.3,0.4-0.5,0.6
		c0.3,0.1,0.6,0.4,0.8,0.7c0.2,0.3,0.3,0.7,0.3,1c0,0.4-0.1,0.7-0.3,1c-0.2,0.3-0.4,0.5-0.7,0.7c-0.3,0.2-0.6,0.3-1,0.3h-2
		C-804,611.9-804.1,611.9-804.2,611.8z M-802.3,608c0.3,0,0.6-0.1,0.8-0.3s0.3-0.5,0.3-0.8c0-0.3-0.1-0.5-0.3-0.8
		c-0.2-0.2-0.5-0.3-0.8-0.3h-1.2v2.2H-802.3L-802.3,608z M-802,611.1c0.4,0,0.7-0.1,0.9-0.4c0.2-0.2,0.4-0.5,0.4-0.9
		c0-0.3-0.1-0.6-0.4-0.9c-0.2-0.2-0.5-0.3-0.9-0.3h-1.5v2.5H-802L-802,611.1z"/>
	<path class="st0" d="M-798.5,611.6c-0.3-0.3-0.5-0.7-0.5-1.1c0-0.4,0.1-0.8,0.4-1.1c0.3-0.3,0.7-0.5,1.2-0.5l1.3-0.2
		c0.2,0,0.3-0.1,0.4-0.2c0.1-0.1,0.1-0.2,0.1-0.4V608c0-0.3-0.1-0.6-0.4-0.8c-0.2-0.2-0.6-0.3-0.9-0.3c-0.3,0-0.5,0.1-0.8,0.2
		c-0.3,0.1-0.4,0.3-0.5,0.5c-0.1,0.1-0.1,0.1-0.2,0.1h-0.1l-0.3-0.2c-0.1-0.1-0.1-0.1-0.1-0.2v-0.1c0.2-0.3,0.5-0.6,0.8-0.7
		c0.3-0.2,0.7-0.3,1.2-0.3c0.4,0,0.7,0.1,1.1,0.2c0.3,0.1,0.5,0.4,0.7,0.6c0.2,0.3,0.3,0.6,0.3,0.9v3.8v0.1h-0.1h-0.4h-0.1v-0.1V611
		c-0.2,0.3-0.5,0.5-0.8,0.7s-0.7,0.3-1,0.3C-797.7,612-798.1,611.9-798.5,611.6z M-796.3,611.1c0.3-0.2,0.5-0.4,0.6-0.6
		c0.1-0.2,0.2-0.5,0.2-0.8v-0.4c-0.2,0-0.7,0.1-1.5,0.2h-0.3c-0.7,0.1-1,0.4-1,0.9c0,0.3,0.1,0.5,0.3,0.7c0.2,0.2,0.5,0.2,0.8,0.2
		C-796.8,611.3-796.5,611.2-796.3,611.1z"/>
	<path class="st0" d="M-793,611.8L-793,611.8v-5.4v-0.1h0.1h0.5h0.1v0.1v0.5c0.2-0.3,0.4-0.5,0.7-0.6c0.3-0.1,0.6-0.2,0.9-0.2
		c0.6,0,1,0.2,1.4,0.5c0.3,0.3,0.5,0.8,0.5,1.4v3.7v0.1h-0.1h-0.5h-0.1v-0.1v-3.6c0-0.4-0.1-0.7-0.3-1c-0.2-0.2-0.5-0.3-0.9-0.3
		c-0.4,0-0.8,0.1-1.1,0.4s-0.4,0.7-0.4,1.2v3.2v0.1h-0.1L-793,611.8C-792.9,611.9-792.9,611.9-793,611.8z"/>
	<path class="st0" d="M-787.1,611.9C-787.1,611.8-787.1,611.8-787.1,611.9v-7.3v-0.1h0.1h0.5h0.1v0.1v4h0.4l2-2.1
		c0.1-0.1,0.1-0.1,0.2-0.1h0.6h0.1v0.1v0.1l-2.2,2.3l2.3,2.9v0.1v0.1c0,0,0,0-0.1,0h-0.6c-0.1,0-0.1,0-0.2-0.1l-2.1-2.6h-0.4v2.6
		v0.1h-0.1L-787.1,611.9C-787,611.9-787.1,611.9-787.1,611.9z"/>
	<path class="st0" d="M-779.7,611.8c0,0,0-0.1,0-0.2l2.1-6.5c0,0,0-0.1,0.1-0.1s0.1,0,0.1,0h0.7h0.1l0.1,0.1l2.1,6.5c0,0,0,0,0,0.1
		v0.1h-0.1h-0.5h-0.1l-0.1-0.1l-0.6-1.7h-2.6l-0.6,1.7c0,0,0,0.1-0.1,0.1h-0.1L-779.7,611.8C-779.6,611.9-779.6,611.9-779.7,611.8z
		 M-776,609.3l-1-3.3l-1.1,3.3H-776z"/>
</g>
<g>
	<path class="st0" d="M-753.8,611.8c-0.1-0.1-0.1-0.2-0.1-0.3v-6.2c0-0.1,0-0.2,0.1-0.3c0.1-0.1,0.2-0.1,0.3-0.1h1.7
		c0.3,0,0.6,0.1,0.9,0.2c0.3,0.1,0.5,0.4,0.6,0.6c0.1,0.2,0.2,0.6,0.2,0.9c0,0.3-0.1,0.5-0.2,0.8c-0.1,0.2-0.3,0.4-0.5,0.6
		c0.3,0.1,0.6,0.4,0.8,0.7s0.3,0.7,0.3,1c0,0.4-0.1,0.7-0.3,1s-0.4,0.5-0.7,0.7c-0.3,0.2-0.6,0.3-1,0.3L-753.8,611.8
		C-753.7,611.9-753.8,611.9-753.8,611.8z M-752,608c0.3,0,0.6-0.1,0.8-0.3s0.3-0.5,0.3-0.8c0-0.3-0.1-0.5-0.3-0.8
		c-0.2-0.2-0.5-0.3-0.8-0.3h-1.2v2.2H-752L-752,608z M-751.7,611.1c0.4,0,0.7-0.1,0.9-0.4c0.2-0.2,0.4-0.5,0.4-0.9
		c0-0.3-0.1-0.6-0.4-0.9c-0.2-0.2-0.5-0.3-0.9-0.3h-1.5v2.5H-751.7L-751.7,611.1z"/>
	<path class="st0" d="M-748.1,611.6c-0.3-0.3-0.5-0.7-0.5-1.1c0-0.4,0.1-0.8,0.4-1.1c0.3-0.3,0.7-0.5,1.2-0.5l1.3-0.2
		c0.2,0,0.3-0.1,0.4-0.2c0.1-0.1,0.1-0.2,0.1-0.4V608c0-0.3-0.1-0.6-0.4-0.8c-0.2-0.2-0.6-0.3-0.9-0.3s-0.5,0.1-0.8,0.2
		c-0.3,0.1-0.4,0.3-0.5,0.5c-0.1,0.1-0.1,0.1-0.2,0.1h-0.1l-0.3-0.2c-0.1-0.1-0.1-0.1-0.1-0.2v-0.1c0.2-0.3,0.5-0.6,0.8-0.7
		c0.3-0.2,0.7-0.3,1.2-0.3c0.4,0,0.7,0.1,1.1,0.2c0.3,0.1,0.5,0.4,0.7,0.6c0.2,0.3,0.3,0.6,0.3,0.9v3.8v0.1h-0.1h-0.4h-0.1v-0.1V611
		c-0.2,0.3-0.5,0.5-0.8,0.7s-0.7,0.3-1,0.3C-747.4,612-747.8,611.9-748.1,611.6z M-745.9,611.1c0.3-0.2,0.5-0.4,0.6-0.6
		c0.1-0.2,0.2-0.5,0.2-0.8v-0.4c-0.2,0-0.7,0.1-1.5,0.2h-0.3c-0.7,0.1-1,0.4-1,0.9c0,0.3,0.1,0.5,0.3,0.7c0.2,0.2,0.5,0.2,0.8,0.2
		S-746.2,611.2-745.9,611.1z"/>
	<path class="st0" d="M-742.6,611.8C-742.7,611.8-742.7,611.8-742.6,611.8v-5.4v-0.1h0.1h0.5h0.1v0.1v0.5c0.2-0.3,0.4-0.5,0.7-0.6
		c0.3-0.1,0.6-0.2,0.9-0.2c0.6,0,1,0.2,1.4,0.5c0.3,0.3,0.5,0.8,0.5,1.4v3.7v0.1h-0.1h-0.5h-0.1v-0.1v-3.6c0-0.4-0.1-0.7-0.3-1
		c-0.2-0.2-0.5-0.3-0.9-0.3c-0.4,0-0.8,0.1-1.1,0.4c-0.3,0.3-0.4,0.7-0.4,1.2v3.2v0.1h-0.1L-742.6,611.8
		C-742.6,611.9-742.6,611.9-742.6,611.8z"/>
	<path class="st0" d="M-736.8,611.9C-736.8,611.8-736.8,611.8-736.8,611.9v-7.3v-0.1h0.1h0.5h0.1v0.1v4h0.4l2-2.1
		c0.1-0.1,0.1-0.1,0.2-0.1h0.6h0.1v0.1v0.1l-2.2,2.3l2.3,2.9v0.1v0.1c0,0,0,0-0.1,0h-0.6c-0.1,0-0.1,0-0.2-0.1l-2.1-2.6h-0.3v2.6
		v0.1h-0.1h-0.5C-736.7,611.9-736.7,611.9-736.8,611.9z"/>
	<path class="st0" d="M-728.7,611.8c-0.1-0.1-0.1-0.2-0.1-0.3v-6.2c0-0.1,0-0.2,0.1-0.3c0.1-0.1,0.2-0.1,0.3-0.1h1.7
		c0.3,0,0.6,0.1,0.9,0.2c0.3,0.1,0.5,0.4,0.6,0.6c0.1,0.2,0.2,0.6,0.2,0.9c0,0.3-0.1,0.5-0.2,0.8c-0.1,0.2-0.3,0.4-0.5,0.6
		c0.3,0.1,0.6,0.4,0.8,0.7c0.2,0.3,0.3,0.7,0.3,1c0,0.4-0.1,0.7-0.3,1c-0.2,0.3-0.4,0.5-0.7,0.7c-0.3,0.2-0.6,0.3-1,0.3h-2
		C-728.6,611.9-728.6,611.9-728.7,611.8z M-726.9,608c0.3,0,0.6-0.1,0.8-0.3c0.2-0.2,0.3-0.5,0.3-0.8c0-0.3-0.1-0.5-0.3-0.8
		c-0.2-0.2-0.5-0.3-0.8-0.3h-1.1v2.2H-726.9L-726.9,608z M-726.5,611.1c0.4,0,0.7-0.1,0.9-0.4c0.2-0.2,0.4-0.5,0.4-0.9
		c0-0.3-0.1-0.6-0.4-0.9c-0.2-0.2-0.5-0.3-0.9-0.3h-1.5v2.5H-726.5L-726.5,611.1z"/>
</g>
<g>
	<path class="st0" d="M-703.8,611.8c-0.1-0.1-0.1-0.2-0.1-0.3v-6.2c0-0.1,0-0.2,0.1-0.3c0.1-0.1,0.2-0.1,0.3-0.1h1.7
		c0.3,0,0.6,0.1,0.9,0.2c0.3,0.1,0.5,0.4,0.6,0.6c0.1,0.2,0.2,0.6,0.2,0.9c0,0.3-0.1,0.5-0.2,0.8c-0.1,0.2-0.3,0.4-0.5,0.6
		c0.3,0.1,0.6,0.4,0.8,0.7s0.3,0.7,0.3,1c0,0.4-0.1,0.7-0.3,1s-0.4,0.5-0.7,0.7c-0.3,0.2-0.6,0.3-1,0.3L-703.8,611.8
		C-703.6,611.9-703.7,611.9-703.8,611.8z M-701.9,608c0.3,0,0.6-0.1,0.8-0.3c0.2-0.2,0.3-0.5,0.3-0.8c0-0.3-0.1-0.5-0.3-0.8
		c-0.2-0.2-0.5-0.3-0.8-0.3h-1.2v2.2H-701.9L-701.9,608z M-701.6,611.1c0.4,0,0.7-0.1,0.9-0.4c0.2-0.2,0.4-0.5,0.4-0.9
		c0-0.3-0.1-0.6-0.4-0.9c-0.2-0.2-0.5-0.3-0.9-0.3h-1.5v2.5H-701.6L-701.6,611.1z"/>
	<path class="st0" d="M-698.1,611.6c-0.3-0.3-0.5-0.7-0.5-1.1c0-0.4,0.1-0.8,0.4-1.1c0.3-0.3,0.7-0.5,1.2-0.5l1.3-0.2
		c0.2,0,0.3-0.1,0.4-0.2c0.1-0.1,0.1-0.2,0.1-0.4V608c0-0.3-0.1-0.6-0.4-0.8c-0.2-0.2-0.6-0.3-0.9-0.3s-0.5,0.1-0.8,0.2
		c-0.3,0.1-0.4,0.3-0.5,0.5c-0.1,0.1-0.1,0.1-0.2,0.1h-0.1l-0.3-0.2c-0.1-0.1-0.1-0.1-0.1-0.2v-0.1c0.2-0.3,0.5-0.6,0.8-0.7
		c0.3-0.2,0.7-0.3,1.2-0.3c0.4,0,0.7,0.1,1.1,0.2c0.3,0.1,0.5,0.4,0.7,0.6c0.2,0.3,0.3,0.6,0.3,0.9v3.8v0.1h-0.1h-0.4h-0.1v-0.1V611
		c-0.2,0.3-0.5,0.5-0.8,0.7c-0.3,0.2-0.7,0.3-1,0.3C-697.3,612-697.7,611.9-698.1,611.6z M-695.9,611.1c0.3-0.2,0.5-0.4,0.6-0.6
		s0.2-0.5,0.2-0.8v-0.4c-0.2,0-0.7,0.1-1.5,0.2h-0.3c-0.7,0.1-1,0.4-1,0.9c0,0.3,0.1,0.5,0.3,0.7c0.2,0.2,0.5,0.2,0.8,0.2
		C-696.4,611.3-696.1,611.2-695.9,611.1z"/>
	<path class="st0" d="M-692.6,611.8L-692.6,611.8v-5.4v-0.1h0.1h0.5h0.1v0.1v0.5c0.2-0.3,0.4-0.5,0.7-0.6c0.3-0.1,0.6-0.2,0.9-0.2
		c0.6,0,1,0.2,1.4,0.5c0.3,0.3,0.5,0.8,0.5,1.4v3.7v0.1h-0.1h-0.5h-0.1v-0.1v-3.6c0-0.4-0.1-0.7-0.3-1c-0.2-0.2-0.5-0.3-0.9-0.3
		c-0.4,0-0.8,0.1-1.1,0.4c-0.3,0.3-0.4,0.7-0.4,1.2v3.2v0.1h-0.1L-692.6,611.8C-692.5,611.9-692.5,611.9-692.6,611.8z"/>
	<path class="st0" d="M-686.7,611.9C-686.7,611.8-686.7,611.8-686.7,611.9v-7.3v-0.1h0.1h0.5h0.1v0.1v4h0.4l2-2.1
		c0.1-0.1,0.1-0.1,0.2-0.1h0.6h0.1v0.1v0.1l-2.2,2.3l2.3,2.9v0.1v0.1c0,0,0,0-0.1,0h-0.6c-0.1,0-0.1,0-0.2-0.1l-2.1-2.6h-0.4v2.6
		v0.1h-0.1h-0.5C-686.6,611.9-686.6,611.9-686.7,611.9z"/>
	<path class="st0" d="M-677.8,611.7c-0.4-0.2-0.7-0.5-0.9-0.9c-0.2-0.4-0.3-0.8-0.3-1.2v-2.3c0-0.4,0.1-0.8,0.3-1.2
		c0.2-0.4,0.5-0.7,0.9-0.9c0.4-0.2,0.8-0.3,1.2-0.3c0.3,0,0.7,0.1,1,0.2c0.3,0.1,0.6,0.3,0.8,0.5v0.1v0.1c-0.1,0.2-0.2,0.3-0.3,0.3
		h-0.1c-0.1,0-0.1,0-0.1-0.1c-0.3-0.3-0.7-0.5-1.2-0.5c-0.3,0-0.5,0.1-0.8,0.2c-0.2,0.2-0.4,0.4-0.6,0.6s-0.2,0.5-0.2,0.8v2.3
		c0,0.3,0.1,0.6,0.2,0.8c0.1,0.3,0.3,0.5,0.6,0.6c0.2,0.2,0.5,0.2,0.8,0.2c0.5,0,0.9-0.2,1.2-0.5l0.1-0.1h0.1c0,0,0.1,0.1,0.3,0.3
		v0.1v0.1c-0.2,0.2-0.5,0.4-0.8,0.5c-0.3,0.1-0.6,0.2-1,0.2C-677,612-677.4,611.9-677.8,611.7z"/>
</g>
<g>
	<path class="st0" d="M-694.1,529.1c0,0-0.1-0.1-0.1-0.2v-2.6h-4.5c-0.1,0-0.2,0-0.3-0.1c-0.1-0.1-0.1-0.2-0.1-0.3v-0.7l4.4-7.1
		c0-0.1,0.1-0.1,0.1-0.1c0.1,0,0.1-0.1,0.2-0.1h1.2c0.1,0,0.2,0,0.2,0.1c0.1,0.1,0.1,0.1,0.1,0.2v6.9h1.1c0.1,0,0.1,0,0.2,0.1
		c0.1,0.1,0.1,0.1,0.1,0.2v0.7c0,0.1,0,0.1-0.1,0.2c-0.1,0.1-0.1,0.1-0.2,0.1h-1.2v2.6c0,0.1,0,0.1-0.1,0.2c0,0-0.1,0.1-0.2,0.1
		h-0.7C-694.1,529.1-694.1,529.1-694.1,529.1z M-694.2,525.2v-5.9l-3.6,5.9H-694.2z"/>
	<path class="st0" d="M-689.2,529.5c-0.1,0-0.1,0-0.2-0.1c0,0-0.1-0.1-0.1-0.2v-0.7l6.7-8.1c-0.2,0-0.4,0-0.5,0
		c-0.5,0-0.9-0.1-1.4-0.3s-0.9-0.4-1.3-0.7c0.1,0.3,0.1,0.7,0.1,1.2c0,1-0.2,1.7-0.5,2.2c-0.3,0.5-0.8,0.7-1.4,0.7
		c-0.6,0-1.1-0.2-1.5-0.7c-0.3-0.5-0.5-1.2-0.5-2.2s0.2-1.7,0.5-2.2s0.8-0.7,1.5-0.7c0.3,0,0.6,0,0.8,0.1c0.2,0.1,0.5,0.3,0.7,0.5
		c0.4,0.3,0.8,0.5,1.1,0.7c0.6,0.3,1.2,0.4,1.8,0.4c0.5,0,0.9-0.1,1.3-0.3s0.7-0.4,1-0.8l0.3-0.4c0.1-0.1,0.1-0.1,0.2-0.1
		s0.1,0,0.2,0.1c0.1,0.1,0.1,0.1,0.1,0.2v0.7l-8.7,10.6C-689.1,529.5-689.1,529.5-689.2,529.5z M-687.1,522.1
		c0.1-0.3,0.2-0.8,0.2-1.4c0-0.7-0.1-1.2-0.2-1.5c-0.1-0.3-0.4-0.5-0.7-0.5c-0.4,0-0.6,0.2-0.8,0.5c-0.1,0.3-0.2,0.8-0.2,1.4
		c0,0.6,0.1,1.1,0.2,1.5c0.1,0.3,0.4,0.5,0.8,0.5C-687.5,522.6-687.2,522.5-687.1,522.1z M-683.2,528.6c-0.3-0.5-0.5-1.2-0.5-2.2
		s0.2-1.7,0.5-2.2s0.8-0.7,1.5-0.7c0.6,0,1.1,0.2,1.4,0.7s0.5,1.2,0.5,2.2s-0.2,1.7-0.5,2.2s-0.8,0.7-1.4,0.7
		C-682.4,529.4-682.9,529.1-683.2,528.6z M-681,527.9c0.1-0.3,0.2-0.8,0.2-1.4c0-0.7-0.1-1.2-0.2-1.5s-0.4-0.5-0.7-0.5
		c-0.4,0-0.6,0.2-0.8,0.5c-0.1,0.3-0.2,0.8-0.2,1.4c0,0.6,0.1,1.1,0.2,1.5c0.1,0.4,0.4,0.5,0.8,0.5
		C-681.3,528.4-681.1,528.2-681,527.9z"/>
</g>
<g>
	<rect x="-804" y="523.3" class="st1" width="29.2" height="70"/>
</g>
<g>
	<rect x="-754" y="495.3" class="st1" width="29.2" height="98"/>
</g>
<g>
	<rect x="-703.9" y="537.3" class="st1" width="29.2" height="56"/>
</g>
<g>
	<g>
		<defs>
			<polygon id="SVGID_1_" points="-353.1,593.2 -363.4,582.9 -359.2,578.8 -353.1,584.9 -336.6,568.4 -332.4,572.6 			"/>
		</defs>
		<clipPath id="SVGID_2_">
			<use xlink:href="#SVGID_1_"  style="overflow:visible;"/>
		</clipPath>
	</g>
</g>
<g>
	<path class="st0" d="M-747.7,486.9c0,0,0-0.1,0-0.2l3.7-9.6h-4.7c-0.1,0-0.1,0-0.2-0.1c-0.1-0.1-0.1-0.1-0.1-0.2V476
		c0-0.1,0-0.1,0.1-0.2c0.1-0.1,0.1-0.1,0.2-0.1h5.4c0.2,0,0.3,0.1,0.4,0.2c0.1,0.1,0.2,0.2,0.2,0.4v0.8l-3.6,9.5
		c0,0.1-0.1,0.1-0.1,0.2c0,0-0.1,0.1-0.2,0.1h-0.8C-747.6,487.1-747.7,487.1-747.7,486.9z"/>
	<path class="st0" d="M-740,487.5c-0.1,0-0.1,0-0.2-0.1c0,0-0.1-0.1-0.1-0.2v-0.7l6.7-8.1c-0.2,0-0.4,0-0.5,0
		c-0.5,0-0.9-0.1-1.4-0.3c-0.5-0.2-0.9-0.4-1.3-0.7c0.1,0.3,0.1,0.7,0.1,1.2c0,1-0.2,1.7-0.5,2.2s-0.8,0.7-1.4,0.7
		c-0.6,0-1.1-0.2-1.5-0.7c-0.3-0.5-0.5-1.2-0.5-2.2s0.2-1.7,0.5-2.2c0.3-0.5,0.8-0.7,1.5-0.7c0.3,0,0.6,0,0.8,0.1s0.5,0.3,0.7,0.5
		c0.4,0.3,0.8,0.5,1.1,0.7c0.6,0.3,1.2,0.4,1.8,0.4c0.5,0,0.9-0.1,1.3-0.3c0.4-0.2,0.7-0.4,1-0.8l0.3-0.4c0.1-0.1,0.1-0.1,0.2-0.1
		c0.1,0,0.1,0,0.2,0.1c0.1,0.1,0.1,0.1,0.1,0.2v0.7l-8.7,10.5C-739.9,487.5-739.9,487.5-740,487.5z M-737.9,480.1
		c0.1-0.3,0.2-0.8,0.2-1.4c0-0.7-0.1-1.2-0.2-1.5c-0.1-0.3-0.4-0.5-0.7-0.5c-0.4,0-0.6,0.2-0.8,0.5c-0.1,0.3-0.2,0.8-0.2,1.4
		s0.1,1.1,0.2,1.5c0.1,0.3,0.4,0.5,0.8,0.5C-738.3,480.6-738,480.5-737.9,480.1z M-734,486.6c-0.3-0.5-0.5-1.2-0.5-2.2
		s0.2-1.7,0.5-2.2s0.8-0.7,1.5-0.7c0.6,0,1.1,0.2,1.4,0.7c0.3,0.5,0.5,1.2,0.5,2.2s-0.2,1.7-0.5,2.2c-0.3,0.5-0.8,0.7-1.4,0.7
		C-733.2,487.4-733.7,487.1-734,486.6z M-731.8,485.9c0.1-0.3,0.2-0.8,0.2-1.4c0-0.7-0.1-1.2-0.2-1.5c-0.1-0.3-0.4-0.5-0.7-0.5
		c-0.4,0-0.6,0.2-0.8,0.5c-0.1,0.3-0.2,0.8-0.2,1.4c0,0.6,0.1,1.1,0.2,1.5c0.1,0.4,0.4,0.5,0.8,0.5S-732,486.2-731.8,485.9z"/>
</g>
<g>
	<path class="st0" d="M-797.9,514.9c-0.6-0.4-1.2-0.8-1.5-1.4v-0.1c0-0.1,0-0.1,0.1-0.2l0.5-0.4c0.1,0,0.1,0,0.2,0
		c0.1,0,0.2,0,0.3,0.1c0.3,0.4,0.7,0.8,1.1,1c0.5,0.3,0.9,0.4,1.4,0.4s0.9-0.1,1.3-0.3s0.7-0.5,0.9-0.9c0.2-0.4,0.3-0.8,0.3-1.3
		c0-0.5-0.1-0.9-0.3-1.3c-0.2-0.4-0.5-0.7-0.9-0.9s-0.8-0.3-1.2-0.3c-0.7,0-1.3,0.3-2,0.8c-0.1-0.1-0.2-0.1-0.4-0.1l-0.5-0.1
		c-0.1,0-0.1,0-0.1-0.1s0-0.1,0-0.2l0.8-5.2c0-0.1,0.1-0.3,0.2-0.3c0.1-0.1,0.2-0.1,0.4-0.1h4.3c0.1,0,0.1,0,0.2,0.1
		c0.1,0.1,0.1,0.1,0.1,0.2v0.7c0,0.1,0,0.1-0.1,0.2c0,0-0.1,0.1-0.2,0.1h-3.7l-0.5,3.2c0.5-0.2,1.1-0.4,1.6-0.4
		c0.7,0,1.3,0.2,1.8,0.5c0.5,0.3,1,0.8,1.3,1.3c0.3,0.6,0.5,1.2,0.5,1.8c0,0.7-0.2,1.3-0.5,1.9c-0.3,0.6-0.8,1-1.4,1.4
		c-0.6,0.4-1.2,0.5-1.9,0.5C-796.5,515.4-797.2,515.2-797.9,514.9z"/>
	<path class="st0" d="M-789.5,515.5c-0.1,0-0.1,0-0.2-0.1c0,0-0.1-0.1-0.1-0.2v-0.7l6.7-8.1c-0.2,0-0.4,0-0.5,0
		c-0.5,0-0.9-0.1-1.4-0.3c-0.5-0.2-0.9-0.4-1.3-0.7c0.1,0.3,0.1,0.7,0.1,1.2c0,1-0.2,1.7-0.5,2.2s-0.8,0.7-1.4,0.7
		c-0.6,0-1.1-0.2-1.5-0.7c-0.3-0.5-0.5-1.2-0.5-2.2s0.2-1.7,0.5-2.2c0.3-0.5,0.8-0.7,1.5-0.7c0.3,0,0.6,0,0.8,0.1s0.5,0.3,0.7,0.5
		c0.4,0.3,0.8,0.5,1.1,0.7c0.6,0.3,1.2,0.4,1.8,0.4c0.5,0,0.9-0.1,1.3-0.3c0.4-0.2,0.7-0.4,1-0.8l0.3-0.4c0.1,0.1,0.1,0.1,0.2,0.1
		c0.1,0,0.1,0,0.2,0.1c0.1,0.1,0.1,0.1,0.1,0.2v0.7l-8.7,10.5C-789.4,515.5-789.4,515.5-789.5,515.5z M-787.4,508.1
		c0.1-0.3,0.2-0.8,0.2-1.4c0-0.7-0.1-1.2-0.2-1.5c-0.1-0.3-0.4-0.5-0.7-0.5c-0.4,0-0.6,0.2-0.8,0.5c-0.1,0.3-0.2,0.8-0.2,1.4
		s0.1,1.1,0.2,1.5c0.1,0.3,0.4,0.5,0.8,0.5C-787.8,508.6-787.5,508.5-787.4,508.1z M-783.5,514.6c-0.3-0.5-0.5-1.2-0.5-2.2
		s0.2-1.7,0.5-2.2s0.8-0.7,1.5-0.7c0.6,0,1.1,0.2,1.4,0.7c0.3,0.5,0.5,1.2,0.5,2.2s-0.2,1.7-0.5,2.2c-0.3,0.5-0.8,0.7-1.4,0.7
		C-782.7,515.4-783.2,515.1-783.5,514.6z M-781.3,513.9c0.1-0.3,0.2-0.8,0.2-1.4c0-0.7-0.1-1.2-0.2-1.5c-0.1-0.3-0.4-0.5-0.7-0.5
		c-0.4,0-0.6,0.2-0.8,0.5c-0.2,0.3-0.2,0.8-0.2,1.4c0,0.6,0.1,1.1,0.2,1.5c0.1,0.4,0.4,0.5,0.8,0.5S-781.5,514.2-781.3,513.9z"/>
</g>
</svg>
