<?xml version="1.0" encoding="utf-8"?>
<!-- Generator: Adobe Illustrator 23.0.3, SVG Export Plug-In . SVG Version: 6.00 Build 0)  -->
<svg version="1.1" id="Lager_1" xmlns="http://www.w3.org/2000/svg" xmlns:xlink="http://www.w3.org/1999/xlink" x="0px" y="0px"
	 viewBox="0 0 190.4 25.8" style="enable-background:new 0 0 190.4 25.8;" xml:space="preserve">
<style type="text/css">
	.st0{clip-path:url(#SVGID_2_);}
	.st1{clip-path:url(#SVGID_4_);fill:#76D788;}
</style>
<g>
	<g>
		<g>
			<g>
				<defs>
					<polygon id="SVGID_1_" points="11.9,25.5 1.6,15.2 5.7,11.1 11.9,17.3 28.4,0.8 32.5,4.9 					"/>
				</defs>
				<clipPath id="SVGID_2_">
					<use xlink:href="#SVGID_1_"  style="overflow:visible;"/>
				</clipPath>
				<g class="st0">
					<g>
						<g>
							<g>
								<defs>
									<rect id="SVGID_3_" x="-654" y="-498.1" width="2968.7" height="1964.7"/>
								</defs>
								<clipPath id="SVGID_4_">
									<use xlink:href="#SVGID_3_"  style="overflow:visible;"/>
								</clipPath>
								<rect x="-8.7" y="-9.5" class="st1" width="51.5" height="45.4"/>
							</g>
						</g>
					</g>
				</g>
			</g>
		</g>
	</g>
</g>
<g>
	<path d="M91,21.8c-0.2-0.2-0.3-0.5-0.3-0.8v-2.1c0-1.4,0.2-2.5,0.6-3.3s0.9-1.5,1.7-2.1c0.8-0.6,2.1-1.4,3.9-2.5
		c0.6-0.4,1.1-0.8,1.4-1.2s0.4-0.9,0.4-1.5c0-0.7-0.2-1.3-0.7-1.8c-0.5-0.4-1.2-0.7-2-0.7c-1.1,0-2.2,0.3-3.3,1
		c-0.1,0.1-0.2,0.1-0.3,0.1c-0.2,0-0.4-0.1-0.5-0.3L91,5c-0.1-0.1-0.1-0.2-0.1-0.3c0-0.2,0.1-0.3,0.2-0.5c0.7-0.5,1.5-0.8,2.4-1.1
		s1.8-0.4,2.7-0.4c1.8,0,3.1,0.5,4.1,1.4c1,1,1.5,2.3,1.5,3.9c0,1.2-0.3,2.2-0.9,3.1c-0.6,0.8-1.6,1.7-3,2.6
		c-0.4,0.3-0.8,0.5-1.1,0.6c-0.8,0.5-1.3,0.8-1.7,1.2c-0.4,0.3-0.7,0.7-1,1.1c-0.3,0.4-0.4,0.9-0.4,1.5v0.8h6.9
		c0.2,0,0.3,0.1,0.4,0.2s0.2,0.2,0.2,0.4v2c0,0.2-0.1,0.3-0.2,0.4s-0.2,0.2-0.4,0.2h-8.9C91.5,22.2,91.2,22.1,91,21.8z"/>
	<path d="M113.7,10.3c0.9,0.6,1.7,1.4,2.2,2.3c0.5,1,0.8,2,0.8,3.2s-0.3,2.3-0.9,3.3s-1.4,1.9-2.5,2.5c-1,0.6-2.2,0.9-3.4,0.9
		c-1.3,0-2.5-0.3-3.6-0.9s-2-1.4-2.7-2.5c-0.1-0.1-0.1-0.2-0.1-0.4s0.1-0.4,0.3-0.6c0.4-0.3,0.9-0.7,1.3-1c0.2-0.1,0.3-0.1,0.4-0.1
		c0.2,0,0.3,0.1,0.5,0.3c0.5,0.7,1,1.2,1.7,1.6s1.4,0.6,2.1,0.6s1.3-0.2,1.8-0.5c0.6-0.3,1-0.8,1.3-1.3c0.3-0.6,0.5-1.2,0.5-1.9
		c0-0.7-0.2-1.3-0.5-1.8s-0.8-1-1.3-1.3s-1.1-0.5-1.8-0.5c-0.5,0-1,0.1-1.5,0.3s-1,0.5-1.4,0.8c-0.2,0.2-0.5,0.3-0.7,0.3
		c-0.1,0-0.2,0-0.4-0.1l-1-0.3c-0.1,0-0.2-0.1-0.3-0.2s-0.1-0.2-0.1-0.4l1.3-8.5c0-0.3,0.2-0.5,0.4-0.6c0.2-0.2,0.4-0.3,0.7-0.3h7.6
		c0.2,0,0.3,0.1,0.4,0.2c0.1,0.1,0.2,0.2,0.2,0.4v1.9c0,0.2-0.1,0.3-0.2,0.4c-0.1,0.1-0.2,0.2-0.4,0.2h-6l-0.6,3.7
		c0.8-0.4,1.6-0.5,2.4-0.5C111.7,9.4,112.7,9.7,113.7,10.3z"/>
	<path d="M121,20c-1.1-1.7-1.7-4.1-1.7-7.3s0.6-5.6,1.7-7.3s2.8-2.5,5-2.5s3.8,0.8,5,2.5c1.1,1.7,1.7,4.1,1.7,7.3s-0.6,5.7-1.7,7.3
		c-1.1,1.6-2.8,2.5-5,2.5S122.2,21.7,121,20z M128,18.8c0.5-0.5,0.9-1.2,1.1-2.2c0.2-1,0.3-2.3,0.3-3.9s-0.1-3-0.3-3.9
		c-0.2-1-0.6-1.7-1.1-2.1c-0.5-0.5-1.2-0.7-2-0.7s-1.5,0.2-2,0.7s-0.9,1.2-1.1,2.2s-0.3,2.3-0.3,4c0,2.4,0.3,4.1,0.8,5.1
		s1.4,1.6,2.6,1.6C126.9,19.5,127.5,19.3,128,18.8z"/>
	<path d="M144.1,20c-1.1-1.7-1.7-4.1-1.7-7.3s0.6-5.6,1.7-7.3c1.1-1.7,2.8-2.5,5-2.5s3.8,0.8,5,2.5c1.1,1.7,1.7,4.1,1.7,7.3
		s-0.6,5.7-1.7,7.3c-1.1,1.6-2.8,2.5-5,2.5S145.2,21.7,144.1,20z M151.1,18.8c0.5-0.5,0.9-1.2,1.1-2.2c0.2-1,0.3-2.3,0.3-3.9
		s-0.1-3-0.3-3.9c-0.2-1-0.6-1.7-1.1-2.1c-0.5-0.5-1.2-0.7-2-0.7s-1.5,0.2-2,0.7s-0.9,1.2-1.1,2.2s-0.3,2.3-0.3,4
		c0,2.4,0.3,4.1,0.8,5.1s1.4,1.6,2.6,1.6C149.9,19.5,150.6,19.3,151.1,18.8z"/>
	<path d="M160.5,20c-1.1-1.7-1.7-4.1-1.7-7.3s0.6-5.6,1.7-7.3c1.1-1.7,2.8-2.5,5-2.5s3.8,0.8,5,2.5c1.1,1.7,1.7,4.1,1.7,7.3
		s-0.6,5.7-1.7,7.3c-1.1,1.6-2.8,2.5-5,2.5S161.7,21.7,160.5,20z M167.5,18.8c0.5-0.5,0.9-1.2,1.1-2.2c0.2-1,0.3-2.3,0.3-3.9
		s-0.1-3-0.3-3.9c-0.2-1-0.6-1.7-1.1-2.1c-0.5-0.5-1.2-0.7-2-0.7s-1.5,0.2-2,0.7s-0.9,1.2-1.1,2.2c-0.2,1-0.3,2.3-0.3,4
		c0,2.4,0.3,4.1,0.8,5.1s1.4,1.6,2.6,1.6C166.3,19.5,167,19.3,167.5,18.8z"/>
	<path d="M177,20c-1.1-1.7-1.7-4.1-1.7-7.3s0.6-5.6,1.7-7.3c1.1-1.7,2.8-2.5,5-2.5s3.8,0.8,5,2.5c1.1,1.7,1.7,4.1,1.7,7.3
		s-0.6,5.7-1.7,7.3c-1.1,1.6-2.8,2.5-5,2.5S178.1,21.7,177,20z M183.9,18.8c0.5-0.5,0.9-1.2,1.1-2.2c0.2-1,0.3-2.3,0.3-3.9
		s-0.1-3-0.3-3.9c-0.2-1-0.6-1.7-1.1-2.1c-0.5-0.5-1.2-0.7-2-0.7s-1.5,0.2-2,0.7s-0.9,1.2-1.1,2.2s-0.3,2.3-0.3,4
		c0,2.4,0.3,4.1,0.8,5.1s1.4,1.6,2.6,1.6C182.8,19.5,183.4,19.3,183.9,18.8z"/>
	<g>
		<path d="M44.6,18h-8l-1.5,4.1h-3.3l7-18.8h3.6l7,18.8h-3.3L44.6,18z M43.8,15.6l-3.2-8.9l-3.2,8.9H43.8z"/>
		<path d="M54.8,5.6v5.7h7v2.4h-7v5.9h7.8v2.5H51.7v-19h10.9v2.5C62.6,5.6,54.8,5.6,54.8,5.6z"/>
		<path d="M80.8,17.6c-0.8,1.4-1.9,2.5-3.4,3.3s-3.3,1.2-5.4,1.2h-6.4v-19H72c2.1,0,3.9,0.4,5.4,1.2s2.6,1.9,3.4,3.3s1.2,3.1,1.2,5
			C81.9,14.5,81.6,16.2,80.8,17.6z M77,17.6c1.2-1.2,1.8-2.9,1.8-5s-0.6-3.8-1.8-5c-1.2-1.2-3-1.8-5.3-1.8h-3.1v13.6h3.1
			C74,19.4,75.8,18.8,77,17.6z"/>
	</g>
	<g>
		<path d="M134.7,25.1c0.7-1.8,1.5-5.1,1.9-7.4l3-0.3c-0.7,2.6-2.1,6.1-2.9,7.5L134.7,25.1z"/>
	</g>
</g>
</svg>
