<?xml version="1.0" encoding="utf-8"?>
<!-- Generator: Adobe Illustrator 22.1.0, SVG Export Plug-In . SVG Version: 6.00 Build 0)  -->
<svg version="1.1" id="Lager_1" xmlns="http://www.w3.org/2000/svg" xmlns:xlink="http://www.w3.org/1999/xlink" x="0px" y="0px"
	 viewBox="0 0 164.2 63.4" style="enable-background:new 0 0 164.2 63.4;" xml:space="preserve">
<style type="text/css">
	.st0{fill:#F5F5F5;}
	.st1{fill:#FF3926;}
	.st2{fill:#333333;}
</style>
<path d="M59.6,20.5c-0.2-0.2-0.3-0.5-0.3-0.8v-2.1c0-1.4,0.2-2.5,0.6-3.3c0.4-0.8,0.9-1.5,1.7-2.1s2.1-1.4,3.9-2.5
	c0.6-0.4,1.1-0.8,1.4-1.2s0.4-0.9,0.4-1.5c0-0.7-0.2-1.3-0.7-1.8c-0.5-0.4-1.2-0.7-2-0.7c-1.1,0-2.2,0.3-3.3,1
	c-0.1,0.1-0.2,0.1-0.3,0.1c-0.2,0-0.4-0.1-0.5-0.3l-0.9-1.6c-0.1-0.1-0.1-0.2-0.1-0.3c0-0.2,0.1-0.3,0.2-0.5
	c0.7-0.5,1.5-0.8,2.4-1.1s1.8-0.4,2.7-0.4c1.8,0,3.1,0.5,4.1,1.4c1,1,1.5,2.3,1.5,3.9c0,1.2-0.3,2.2-0.9,3.1c-0.6,0.8-1.6,1.7-3,2.6
	c-0.4,0.3-0.8,0.5-1.1,0.6c-0.8,0.5-1.3,0.8-1.7,1.2c-0.4,0.3-0.7,0.7-1,1.1c-0.3,0.4-0.4,0.9-0.4,1.5v0.8h6.9
	c0.2,0,0.3,0.1,0.4,0.2s0.2,0.2,0.2,0.4v2c0,0.2-0.1,0.3-0.2,0.4c-0.1,0.1-0.2,0.2-0.4,0.2h-8.9C60.1,20.9,59.8,20.8,59.6,20.5z"/>
<path d="M82.3,9c0.9,0.6,1.7,1.4,2.2,2.3c0.5,1,0.8,2,0.8,3.2s-0.3,2.3-0.9,3.3c-0.6,1-1.4,1.9-2.5,2.5c-1,0.6-2.2,0.9-3.4,0.9
	c-1.3,0-2.5-0.3-3.6-0.9c-1.1-0.6-2-1.4-2.7-2.5c-0.1-0.1-0.1-0.2-0.1-0.4s0.1-0.4,0.3-0.6c0.4-0.3,0.9-0.7,1.3-1
	c0.2-0.1,0.3-0.1,0.4-0.1c0.2,0,0.3,0.1,0.5,0.3c0.5,0.7,1,1.2,1.7,1.6c0.7,0.4,1.4,0.6,2.1,0.6s1.3-0.2,1.8-0.5
	c0.6-0.3,1-0.8,1.3-1.3c0.3-0.6,0.5-1.2,0.5-1.9s-0.2-1.3-0.5-1.8s-0.8-1-1.3-1.3s-1.1-0.5-1.8-0.5c-0.5,0-1,0.1-1.5,0.3
	s-1,0.5-1.4,0.8c-0.2,0.2-0.5,0.3-0.7,0.3c-0.1,0-0.2,0-0.4-0.1l-1-0.3c-0.1,0-0.2-0.1-0.3-0.2C73,11.6,73,11.5,73,11.3l1.3-8.5
	c0-0.3,0.2-0.5,0.4-0.6c0.2-0.2,0.4-0.3,0.7-0.3H83c0.2,0,0.3,0.1,0.4,0.2c0.1,0.1,0.2,0.2,0.2,0.4v1.9c0,0.2-0.1,0.3-0.2,0.4
	C83.3,4.9,83.2,5,83,5h-6l-0.6,3.7c0.8-0.4,1.6-0.5,2.4-0.5C80.3,8.1,81.3,8.4,82.3,9z"/>
<path d="M89.6,18.7c-1.1-1.7-1.7-4.1-1.7-7.3s0.6-5.6,1.7-7.3c1.1-1.7,2.8-2.5,5-2.5s3.8,0.8,5,2.5c1.1,1.7,1.7,4.1,1.7,7.3
	s-0.6,5.7-1.7,7.3c-1.1,1.6-2.8,2.5-5,2.5S90.8,20.4,89.6,18.7z M96.6,17.5c0.5-0.5,0.9-1.2,1.1-2.2c0.2-1,0.3-2.3,0.3-3.9
	c0-1.6-0.1-3-0.3-3.9c-0.2-1-0.6-1.7-1.1-2.1c-0.5-0.5-1.2-0.7-2-0.7s-1.5,0.2-2,0.7s-0.9,1.2-1.1,2.2c-0.2,1-0.3,2.3-0.3,4
	c0,2.4,0.3,4.1,0.8,5.1s1.4,1.6,2.6,1.6C95.5,18.2,96.1,18,96.6,17.5z"/>
<path d="M112.7,18.7c-1.1-1.7-1.7-4.1-1.7-7.3s0.6-5.6,1.7-7.3c1.1-1.7,2.8-2.5,5-2.5s3.8,0.8,5,2.5c1.1,1.7,1.7,4.1,1.7,7.3
	s-0.6,5.7-1.7,7.3c-1.1,1.6-2.8,2.5-5,2.5S113.8,20.4,112.7,18.7z M119.7,17.5c0.5-0.5,0.9-1.2,1.1-2.2s0.3-2.3,0.3-3.9
	c0-1.6-0.1-3-0.3-3.9c-0.2-1-0.6-1.7-1.1-2.1c-0.5-0.5-1.2-0.7-2-0.7s-1.5,0.2-2,0.7s-0.9,1.2-1.1,2.2s-0.3,2.3-0.3,4
	c0,2.4,0.3,4.1,0.8,5.1s1.4,1.6,2.6,1.6C118.5,18.2,119.2,18,119.7,17.5z"/>
<path d="M129.1,18.7c-1.1-1.7-1.7-4.1-1.7-7.3s0.6-5.6,1.7-7.3c1.1-1.7,2.8-2.5,5-2.5s3.8,0.8,5,2.5c1.1,1.7,1.7,4.1,1.7,7.3
	s-0.6,5.7-1.7,7.3c-1.1,1.6-2.8,2.5-5,2.5S130.3,20.4,129.1,18.7z M136.1,17.5c0.5-0.5,0.9-1.2,1.1-2.2c0.2-1,0.3-2.3,0.3-3.9
	c0-1.6-0.1-3-0.3-3.9c-0.2-1-0.6-1.7-1.1-2.1c-0.5-0.5-1.2-0.7-2-0.7s-1.5,0.2-2,0.7s-0.9,1.2-1.1,2.2c-0.2,1-0.3,2.3-0.3,4
	c0,2.4,0.3,4.1,0.8,5.1s1.4,1.6,2.6,1.6C134.9,18.2,135.6,18,136.1,17.5z"/>
<path d="M145.6,18.7c-1.1-1.7-1.7-4.1-1.7-7.3s0.6-5.6,1.7-7.3c1.1-1.7,2.8-2.5,5-2.5s3.8,0.8,5,2.5c1.1,1.7,1.7,4.1,1.7,7.3
	s-0.6,5.7-1.7,7.3c-1.1,1.6-2.8,2.5-5,2.5S146.7,20.4,145.6,18.7z M152.5,17.5c0.5-0.5,0.9-1.2,1.1-2.2s0.3-2.3,0.3-3.9
	c0-1.6-0.1-3-0.3-3.9c-0.2-1-0.6-1.7-1.1-2.1c-0.5-0.5-1.2-0.7-2-0.7s-1.5,0.2-2,0.7s-0.9,1.2-1.1,2.2s-0.3,2.3-0.3,4
	c0,2.4,0.3,4.1,0.8,5.1s1.4,1.6,2.6,1.6C151.4,18.2,152,18,152.5,17.5z"/>
<g>
	<g>
		<g>
			<g>
				<g>
					<rect x="78.2" y="47" class="st0" width="86" height="8.7"/>
				</g>
			</g>
		</g>
		<g>
			<g>
				<g>
					<rect y="47" class="st1" width="80.6" height="8.7"/>
				</g>
			</g>
		</g>
	</g>
	<g>
		<g>
			<g>
				<path class="st2" d="M84.3,63.4h-4.5c-1.1,0-2-0.9-2-2v-20c0-1.1,0.9-2,2-2h4.5c1.1,0,2,0.9,2,2v20
					C86.3,62.5,85.5,63.4,84.3,63.4z"/>
			</g>
		</g>
	</g>
</g>
<g>
	<path d="M13.2,16.7h-8l-1.5,4.1H0.4l7-18.8H11l7,18.8h-3.3L13.2,16.7z M12.4,14.3L9.2,5.4L6,14.3H12.4z"/>
	<path d="M23.4,4.3V10h7v2.4h-7v5.9h7.8v2.5H20.3V1.8h10.9v2.5H23.4z"/>
	<path d="M49.4,16.3c-0.8,1.4-1.9,2.5-3.4,3.3c-1.5,0.8-3.3,1.2-5.4,1.2h-6.4V1.8h6.4c2.1,0,3.9,0.4,5.4,1.2
		c1.5,0.8,2.6,1.9,3.4,3.3c0.8,1.4,1.2,3.1,1.2,5C50.5,13.2,50.2,14.9,49.4,16.3z M45.6,16.3c1.2-1.2,1.8-2.9,1.8-5
		c0-2.1-0.6-3.8-1.8-5s-3-1.8-5.3-1.8h-3.1v13.6h3.1C42.6,18.1,44.4,17.5,45.6,16.3z"/>
</g>
</svg>
