<?xml version="1.0" encoding="UTF-8" standalone="no"?>
<svg
   xmlns:dc="http://purl.org/dc/elements/1.1/"
   xmlns:cc="http://creativecommons.org/ns#"
   xmlns:rdf="http://www.w3.org/1999/02/22-rdf-syntax-ns#"
   xmlns:svg="http://www.w3.org/2000/svg"
   xmlns="http://www.w3.org/2000/svg"
   viewBox="0 0 150.66667 50.666668"
   height="50.666668"
   width="150.66667"
   xml:space="preserve"
   id="svg2"
   version="1.1"><metadata
     id="metadata8"><rdf:RDF><cc:Work
         rdf:about=""><dc:format>image/svg+xml</dc:format><dc:type
           rdf:resource="http://purl.org/dc/dcmitype/StillImage" /></cc:Work></rdf:RDF></metadata><defs
     id="defs6"><clipPath
       id="clipPath20"
       clipPathUnits="userSpaceOnUse"><path
         style="clip-rule:evenodd"
         id="path18"
         d="m 358.5,233.801 h 101.602 c 13.781,0.48 27.488,-2.297 40,-8.102 9.789,-4.519 18.031,-11.824 23.699,-21 2.367,-4.113 4.277,-8.472 5.699,-13 1.461,-4.59 2.203,-9.379 2.199,-14.199 0.016,-10.559 -3.308,-20.848 -9.5,-29.398 C 515.492,138.93 505.688,132.5 494.602,130 c 12.898,-1.781 24.593,-8.527 32.597,-18.801 7.5,-9.738 11.516,-21.7107 11.403,-33.9998 C 538.477,67.2148 535.867,57.418 531,48.6992 525.555,39.4609 517.621,31.9375 508.102,27 497.035,21.207 484.684,18.3164 472.199,18.6016 H 358.5 Z m 50,-37.301 v -46.801 h 44.602 c 7.343,-0.148 14.476,2.453 20,7.301 4.652,4.348 7.296,10.43 7.296,16.801 -0.234,6.176 -2.976,11.992 -7.597,16.097 -6.512,4.739 -14.465,7.071 -22.5,6.602 z m 0,-86.398 V 58.1992 h 46.102 c 7.968,-0.3281 15.726,2.5977 21.5,8.1016 5.41,4.789 8.507,11.6719 8.5,18.8984 0.043,6.8867 -2.957,13.4375 -8.204,17.9028 -6.691,5.347 -15.148,7.988 -23.699,7.398 z m 277,123.699 h 41.699 L 660.398,105.199 V 18.8008 H 611 V 110 l -67,123.801 h 57 l 42.102,-84.403 42.097,84.301 z m 163.199,-131 -22.5,74 -22.097,-74 z m 27.199,-84.1994 -15.5,44.5976 h -69 L 779.102,18.6016 h -44.5 l 66.796,215.1994 h 59.204 l 70,-215.1994 z M 1073.7,233.801 h 46.8 L 1060.7,132.199 1130,18.6016 h -59.2 l -42.1,74 -44.098,-74 H 937 l 66.8,113.5974 -59.198,101.602 h 57.298 l 37,-66.801 z" /></clipPath><clipPath
       id="clipPath26"
       clipPathUnits="userSpaceOnUse"><path
         id="path24"
         d="M 0,0 H 1130 V 380 H 0 Z" /></clipPath><clipPath
       id="clipPath36"
       clipPathUnits="userSpaceOnUse"><path
         style="clip-rule:evenodd"
         id="path34"
         d="m 127.699,34.6016 c -35.4998,107.7964 136.903,190.5974 190.5,247.1994 38.199,40 -4.5,82.398 -30,98.097 -27.699,-24.699 -55,-47.699 -86.597,-73.699 C 170,280.199 145.5,260.301 116.199,231.5 95.6016,211.5 54.1016,173.602 59.3984,127.301 62.8008,98.3984 113.102,44.1016 127.699,34.6016 Z" /></clipPath><clipPath
       id="clipPath42"
       clipPathUnits="userSpaceOnUse"><path
         id="path40"
         d="M 0,0 H 1130 V 380 H 0 Z" /></clipPath><clipPath
       id="clipPath52"
       clipPathUnits="userSpaceOnUse"><path
         style="clip-rule:evenodd"
         id="path50"
         d="m 41.6016,150.602 c -21.5,65.199 83.0004,115.597 115.1994,149.5 23.097,24.097 -2.801,50 -18,59.398 C 121.898,344.699 105.398,330.602 86.3008,315.199 67.1992,299.801 52.3984,287.102 34.6016,269.699 22.1016,257.398 -3,234.699 0.300781,206.699 2.30078,189.199 32.6992,156.398 41.6016,150.602 Z" /></clipPath><clipPath
       id="clipPath58"
       clipPathUnits="userSpaceOnUse"><path
         id="path56"
         d="M 0,0 H 1130 V 380 H 0 Z" /></clipPath><clipPath
       id="clipPath68"
       clipPathUnits="userSpaceOnUse"><path
         style="clip-rule:evenodd"
         id="path66"
         d="m 202.199,7.10156 c -18.801,51.19924 62.5,94.09744 87.5,122.00044 17.699,20 -3.5,40 -15.898,46.699 -13,-12.199 -25.801,-23.903 -40.5,-36.903 -14.699,-13 -26.199,-23 -40,-37.296 -10,-10.0004 -28.903,-28.9028 -25.602,-51.0004 2.301,-13.9024 26.903,-39.2032 34.5,-43.50004 z" /></clipPath><clipPath
       id="clipPath74"
       clipPathUnits="userSpaceOnUse"><path
         id="path72"
         d="M 0,0 H 1130 V 380 H 0 Z" /></clipPath></defs><g
     transform="matrix(1.3333333,0,0,-1.3333333,0,50.666667)"
     id="g10"><g
       transform="scale(0.1)"
       id="g12"><g
         id="g14"><g
           clip-path="url(#clipPath20)"
           id="g16"><g
             clip-path="url(#clipPath26)"
             id="g22"><path
               id="path28"
               style="fill:#005b91;fill-opacity:1;fill-rule:nonzero;stroke:none"
               d="M 308.5,0 H 1180 V 283.852 H 308.5 Z" /></g></g></g><g
         id="g30"><g
           clip-path="url(#clipPath36)"
           id="g32"><g
             clip-path="url(#clipPath42)"
             id="g38"><path
               id="path44"
               style="fill:#00b6e3;fill-opacity:1;fill-rule:nonzero;stroke:none"
               d="m 8.9375,0 h 374.48 V 429.898 H 8.9375 Z" /></g></g></g><g
         id="g46"><g
           clip-path="url(#clipPath52)"
           id="g48"><g
             clip-path="url(#clipPath58)"
             id="g54"><path
               id="path60"
               style="fill:#00b6e3;fill-opacity:1;fill-rule:nonzero;stroke:none"
               d="M 0,100.602 H 215.992 V 409.5 H 0 Z" /></g></g></g><g
         id="g62"><g
           clip-path="url(#clipPath68)"
           id="g64"><g
             clip-path="url(#clipPath74)"
             id="g70"><path
               id="path76"
               style="fill:#00b6e3;fill-opacity:1;fill-rule:nonzero;stroke:none"
               d="M 117.316,0 H 346.468 V 225.801 H 117.316 Z" /></g></g></g></g></g></svg>