<?xml version="1.0" encoding="UTF-8" standalone="no"?>
<svg
   xmlns:dc="http://purl.org/dc/elements/1.1/"
   xmlns:cc="http://creativecommons.org/ns#"
   xmlns:rdf="http://www.w3.org/1999/02/22-rdf-syntax-ns#"
   xmlns:svg="http://www.w3.org/2000/svg"
   xmlns="http://www.w3.org/2000/svg"
   viewBox="0 0 535.64001 82.533333"
   height="82.533333"
   width="535.64001"
   xml:space="preserve"
   id="svg2"
   version="1.1"><metadata
     id="metadata8"><rdf:RDF><cc:Work
         rdf:about=""><dc:format>image/svg+xml</dc:format><dc:type
           rdf:resource="http://purl.org/dc/dcmitype/StillImage" /></cc:Work></rdf:RDF></metadata><defs
     id="defs6" /><g
     transform="matrix(1.3333333,0,0,-1.3333333,0,82.533333)"
     id="g10"><g
       transform="scale(0.1)"
       id="g12"><path
         id="path14"
         style="fill:#231f20;fill-opacity:1;fill-rule:nonzero;stroke:none"
         d="M 237.457,0 C 144.281,0 76.9883,28.2422 35.5664,84.7227 -5.85938,141.203 -11.0977,211.961 19.8555,297.008 53.418,389.223 112.906,465.938 198.316,527.16 c 85.403,61.223 175.711,91.832 270.922,91.832 31.043,0 57.203,-1.863 78.496,-5.57 21.286,-3.715 47.485,-10.824 78.582,-21.324 l -41.953,-115.27 c -22.953,17.926 -44.914,30.41 -65.875,37.461 -20.968,7.043 -46.711,10.566 -77.222,10.566 -57.411,0 -112.473,-20.042 -165.207,-60.132 -52.731,-40.09 -90.145,-90.485 -112.243,-151.192 -22.933,-63.015 -25.812,-115.332 -8.625,-156.957 17.188,-41.633 49.969,-62.4373 98.344,-62.4373 h 0.391 c 29.492,0 59.312,4.4766 89.488,13.4493 l 36.363,99.898 c 9.602,26.379 15.914,48.157 18.934,65.317 3.019,17.16 3.457,33.429 1.312,48.797 h 84.985 85.383 c -13.379,-15.368 -24.813,-31.637 -34.297,-48.797 -9.492,-17.16 -19.035,-38.938 -28.637,-65.317 L 498.785,183.66 C 484.523,144.469 474.945,113.73 470.074,91.4453 465.195,69.1602 463.887,50.4609 466.152,35.3477 394.426,11.7773 318.063,0 237.066,0 h 0.391" /><path
         id="path16"
         style="fill:#231f20;fill-opacity:1;fill-rule:nonzero;stroke:none"
         d="m 832.734,133.137 c 20.192,25.992 34.914,51.676 44.145,77.035 15.383,42.266 16.578,77.359 3.59,105.277 -13,27.918 -37.903,43.547 -74.723,46.879 -21.238,-13.582 -41.984,-33.43 -62.226,-59.555 -20.247,-26.128 -35.079,-52.128 -44.497,-78 -15.293,-42.015 -16.418,-76.91 -3.375,-104.703 13.036,-27.7966 37.965,-43.3591 74.79,-46.6833 21.332,13.8321 42.097,33.7503 62.296,59.7503 z M 579.605,58.2109 C 555.57,97.0195 554.23,145.75 575.578,204.41 c 24.149,66.336 64.649,121.473 121.524,165.41 56.859,43.93 115.953,65.895 177.269,65.895 57.688,0 98.469,-19.469 122.328,-58.402 23.861,-38.942 25.071,-87.86 3.621,-146.778 C 976.27,164.449 935.895,109.504 879.211,65.7031 822.516,21.9023 763.387,0 701.813,0 644.383,0 603.645,19.4023 579.605,58.2109" /><path
         id="path18"
         style="fill:#231f20;fill-opacity:1;fill-rule:nonzero;stroke:none"
         d="m 1283.19,133.137 c 20.2,25.992 34.92,51.676 44.15,77.035 15.38,42.266 16.58,77.359 3.59,105.277 -13,27.918 -37.9,43.547 -74.72,46.879 -21.24,-13.582 -41.99,-33.43 -62.23,-59.555 -20.25,-26.128 -35.08,-52.128 -44.5,-78 -15.29,-42.015 -16.41,-76.91 -3.37,-104.703 13.03,-27.7966 37.96,-43.3591 74.79,-46.6833 21.33,13.8321 42.09,33.7503 62.29,59.7503 z M 1030.07,58.2109 c -24.04,38.8086 -25.38,87.5391 -4.03,146.1991 24.15,66.336 64.65,121.473 121.52,165.41 56.86,43.93 115.95,65.895 177.27,65.895 57.69,0 98.47,-19.469 122.33,-58.402 23.86,-38.942 25.07,-87.86 3.62,-146.778 C 1426.73,164.449 1386.36,109.504 1329.67,65.7031 1272.98,21.9023 1213.84,0 1152.27,0 c -57.43,0 -98.17,19.4023 -122.2,58.2109" /><path
         id="path20"
         style="fill:#231f20;fill-opacity:1;fill-rule:nonzero;stroke:none"
         d="m 1748.08,363.098 c -27.69,0 -56.32,-15.434 -85.93,-46.301 -29.61,-30.871 -52.89,-69.609 -69.85,-116.231 -12.22,-33.558 -13.84,-61.476 -4.88,-83.761 8.97,-22.2855 26.38,-33.4261 52.25,-33.4261 20.53,0.25 41.03,7.1641 61.5,20.7461 l 88.24,242.449 c -9.61,11.27 -23.39,16.774 -41.33,16.524 z M 1578.67,0 c -49.93,0 -84.91,17.9961 -104.92,53.9844 -20.02,35.9844 -20.14,81.1286 -0.38,135.4416 25.73,70.695 70.65,129.418 134.75,176.168 64.1,46.742 131.59,70.121 202.48,70.121 3.98,0.25 7.63,0 10.98,-0.77 l 12.3,33.813 c 10.54,28.945 17.55,51.93 21.03,68.969 3.49,17.035 4.24,32.086 2.27,45.148 l 79.62,11.91 79.76,12.297 c -14.19,-20.5 -26.99,-42.715 -38.43,-66.664 -11.43,-23.957 -24.09,-55.008 -37.98,-93.176 L 1822.12,122.953 c -10.54,-28.9491 -17.55,-51.9335 -21.04,-68.9686 -3.48,-17.0391 -4.24,-32.0821 -2.26,-45.14846 h -60.54 -60.54 L 1694.8,55.7148 1629.62,8.83594 C 1612.82,3.20703 1595.84,0.257813 1578.67,0" /><path
         id="path22"
         style="fill:#231f20;fill-opacity:1;fill-rule:nonzero;stroke:none"
         d="M 2369.04,44.9531 C 2325.79,27.793 2289.1,16.0039 2258.96,9.60547 2228.82,3.20703 2194.6,0 2156.31,0 c -88.74,0 -152.26,28.2422 -190.55,84.7227 -38.31,56.4803 -41.98,127.2383 -11.03,212.2853 33.57,92.215 94.53,168.93 182.93,230.152 88.38,61.223 182.37,91.832 281.98,91.832 27.16,0 50.22,-1.863 69.18,-5.57 18.95,-3.715 42.05,-10.824 69.27,-21.324 L 2516.84,478.75 c -22.71,18.691 -44.76,31.695 -66.18,38.996 -21.41,7.301 -47.51,10.953 -78.32,10.953 -55.9,0 -110.07,-20.812 -162.49,-62.437 -52.42,-41.629 -90.1,-93.946 -113.03,-156.957 -22.85,-62.762 -24.11,-114.95 -3.8,-156.575 20.31,-41.628 57.12,-62.437 110.43,-62.437 35.72,0 69.38,5.1875 100.98,15.562 31.6,10.375 66.89,27.856 105.86,52.446 L 2369.04,44.9531" /><path
         id="path24"
         style="fill:#231f20;fill-opacity:1;fill-rule:nonzero;stroke:none"
         d="m 2670.21,183.277 h -64.42 c -5.95,0 -15.15,-7.879 -27.61,-23.629 -12.47,-15.753 -21.17,-30.418 -26.11,-43.996 -4.48,-12.297 -3.26,-22.4762 3.63,-30.5465 6.9,-8.0664 17.72,-12.1016 32.46,-12.1016 11.9,0 25.47,4.2266 40.71,12.6797 l 7.36,4.2266 z M 2529,0 c -38.3,0 -66.38,10.4336 -84.27,31.3125 -17.88,20.8789 -21.09,47.0703 -9.62,78.5785 10.72,29.449 28.08,53.152 52.06,71.082 23.99,17.925 63.64,36.75 118.93,56.48 l 96.42,34.582 0.97,2.688 c 9.14,25.101 10.04,44.629 2.71,58.593 -7.35,13.961 -22.27,20.942 -44.78,20.942 -17.84,0 -34.31,-2.055 -49.39,-6.156 -15.08,-4.11 -32.77,-11.293 -53.06,-21.555 l 47.53,91.109 c 29.52,7.168 53.06,11.969 70.64,14.41 17.57,2.43 37.61,3.649 60.11,3.649 43.72,0 73.31,-12.36 88.77,-37.078 15.45,-24.723 15.06,-59.364 -1.16,-103.934 l -62.51,-171.75 c -10.54,-28.9491 -17.57,-52.0038 -21.1,-69.16 -3.53,-17.1641 -4.27,-32.1485 -2.2,-44.95706 h -63.64 -64.03 L 2627.47,53.0234 2555.31,1.92188 C 2546.82,0.640625 2538.05,0 2529,0" /><path
         id="path26"
         style="fill:#231f20;fill-opacity:1;fill-rule:nonzero;stroke:none"
         d="m 3148.63,336.586 c -10.79,9.469 -21.57,16.137 -32.34,19.977 -10.76,3.843 -24.3,5.765 -40.6,5.765 -13.2,0 -25.48,-3.715 -36.87,-11.144 -11.37,-7.434 -19.06,-16.657 -23.06,-27.664 -3.64,-9.989 -4.15,-18.829 -1.51,-26.512 2.45,-7.434 8.82,-16.137 19.12,-26.125 23.89,-23.574 39.52,-46.879 46.86,-69.934 7.59,-23.051 6.97,-46.746 -1.89,-71.082 C 3064.82,92.7266 3039.65,61.7969 3002.85,37.0781 2966.04,12.3555 2926.55,0 2884.4,0 c -21.22,0 -38.97,1.15234 -53.26,3.45703 -14.3,2.30469 -31.45,6.91797 -51.43,13.83207 l 38.18,104.8949 c 9.88,-16.907 21.03,-29.266 33.44,-37.0785 12.41,-7.8164 27.16,-11.7188 44.24,-11.7188 13.96,0 26.9,3.586 38.82,10.7578 11.92,7.168 19.88,16.2655 23.89,27.2815 5.04,13.832 5.17,26.64 0.4,38.422 -4.57,11.527 -15.52,25.746 -32.83,42.648 -18.09,17.676 -29.69,35.734 -34.85,54.18 -5.2,18.183 -4.03,37.652 3.52,58.402 13.61,37.399 39.69,68.52 78.25,93.367 38.54,24.84 80.06,37.27 124.59,37.27 18.63,0 34.8,-1.094 48.5,-3.266 13.7,-2.176 25.07,-5.441 34.1,-9.797 l -31.33,-86.066" /><path
         id="path28"
         style="fill:#231f20;fill-opacity:1;fill-rule:nonzero;stroke:none"
         d="m 3138.95,122.953 125.86,345.805 c 10.44,28.683 17.42,51.617 20.96,68.777 3.52,17.156 4.3,32.278 2.33,45.34 l 79.63,11.91 79.75,12.297 c -14.19,-20.5 -26.99,-42.715 -38.43,-66.664 -11.43,-23.957 -24.1,-55.008 -37.99,-93.176 l -36.22,-99.515 103.23,85.296 c 14.11,1.79 28.54,2.692 43.29,2.692 36.48,0 61.2,-10.055 74.2,-30.16 12.98,-20.114 12.91,-48.223 -0.24,-84.34 l -72.16,-198.262 c -10.54,-28.9491 -17.55,-51.9335 -21.02,-68.9686 -3.49,-17.0391 -4.25,-32.0821 -2.27,-45.14846 h -75.29 -75.29 c 11.48,13.06636 21.68,28.10936 30.6,45.14846 8.92,17.0351 18.64,40.0195 29.18,68.9686 l 61.11,167.906 c 5.69,15.621 5.72,27.793 0.09,36.504 -5.62,8.703 -16.33,13.063 -32.11,13.063 -19.92,0 -39.53,-5.899 -58.82,-17.672 L 3321,309.688 3253.03,122.953 C 3242.49,94.0039 3235.49,71.0195 3232,53.9844 c -3.48,-17.0391 -4.23,-32.0821 -2.26,-45.14846 h -75.28 -75.29 c 11.48,13.06636 21.76,28.17966 30.86,45.33986 8.73,16.9062 18.38,39.8281 28.92,68.7772" /><path
         id="path30"
         style="fill:#231f20;fill-opacity:1;fill-rule:nonzero;stroke:none"
         d="m 3576.74,81.6484 c 10.79,0 18.58,-3.707 23.37,-11.1171 4.79,-7.4141 5.24,-16.461 1.35,-27.1446 -3.89,-10.6875 -10.93,-19.7304 -21.11,-27.1445 -10.18,-7.41017 -20.67,-11.1172 -31.46,-11.1172 -10.8,0 -18.58,3.70703 -23.37,11.1172 -4.79,7.4141 -5.24,16.457 -1.35,27.1445 3.89,10.6836 10.93,19.7305 21.11,27.1446 10.18,7.4101 20.67,11.1171 31.46,11.1171" /><path
         id="path32"
         style="fill:#231f20;fill-opacity:1;fill-rule:nonzero;stroke:none"
         d="m 3826.59,172.711 c -5.39,4.738 -10.79,8.066 -16.16,9.988 -5.38,1.922 -12.15,2.883 -20.31,2.883 -6.6,0 -12.74,-1.855 -18.43,-5.57 -5.69,-3.715 -9.53,-8.324 -11.53,-13.832 -1.82,-4.996 -2.08,-9.414 -0.75,-13.258 1.22,-3.711 4.4,-8.067 9.55,-13.063 11.95,-11.785 19.76,-23.437 23.43,-34.964 3.8,-11.5278 3.49,-23.3755 -0.94,-35.5434 -6.76,-18.5703 -19.35,-34.0352 -37.75,-46.3946 -18.4,-12.3593 -38.14,-18.53903 -59.23,-18.53903 -10.6,0 -19.48,0.57812 -26.63,1.73047 -7.15,1.15234 -15.71,3.45703 -25.71,6.91406 l 19.09,52.4492 c 4.94,-8.4531 10.52,-14.6328 16.72,-18.539 6.21,-3.9063 13.58,-5.8594 22.12,-5.8594 6.98,0 13.46,1.793 19.41,5.3789 5.96,3.5859 9.94,8.1328 11.95,13.6406 2.52,6.9141 2.58,13.3203 0.2,19.211 -2.28,5.7617 -7.77,12.871 -16.42,21.3242 -9.04,8.836 -14.84,17.867 -17.42,27.09 -2.6,9.09 -2.02,18.824 1.76,29.199 6.8,18.699 19.84,34.262 39.12,46.684 19.28,12.422 40.03,18.636 62.3,18.636 9.32,0 17.4,-0.547 24.25,-1.632 6.85,-1.09 12.53,-2.723 17.05,-4.903 l -15.67,-43.031" /><path
         id="path34"
         style="fill:#231f20;fill-opacity:1;fill-rule:nonzero;stroke:none"
         d="m 3962.01,138.516 c 5.23,14.726 6.32,26.254 3.27,34.578 -3.04,8.328 -10.07,12.488 -21.07,12.488 h 0.39 c -10.09,0 -20.46,-5.379 -31.1,-16.137 -8.25,-8.453 -15.24,-18.765 -20.96,-30.929 z M 3898.85,4.41797 c -31.32,0 -53.81,9.73433 -67.48,29.20313 -13.67,19.4648 -15.15,43.9297 -4.43,73.3869 12.03,33.043 30.59,60.515 55.71,82.418 25.11,21.898 50.6,32.851 76.47,32.851 h 0.39 c 26.01,0 43.32,-8.199 51.98,-24.593 8.64,-16.391 7.68,-39.125 -2.9,-68.2 -3.44,-9.093 -7.2,-17.996 -11.28,-26.703 h -115.25 c -2.05,-13.449 -0.82,-24.9763 3.71,-34.5818 7.1,-14.9844 21.45,-22.4765 43.05,-22.4765 8.16,0 16.36,1.2187 24.62,3.6562 8.27,2.4375 18.47,6.6719 30.63,12.707 L 3944.1,10.9492 c -10.37,-2.55857 -18.63,-4.28904 -24.78,-5.18748 -6.15,-0.89453 -12.98,-1.34375 -20.47,-1.34375" /></g></g></svg>