<svg xmlns="http://www.w3.org/2000/svg" xmlns:xlink="http://www.w3.org/1999/xlink" width="696" height="142" viewBox="0 0 696 142"><defs><path id="a" d="M0 141.732h695.84V0H0z"/></defs><g fill="none" fill-rule="evenodd"><path fill="#00AD4B" d="M133.633 141.732H8.1a8.099 8.099 0 0 1-8.1-8.099V8.099A8.099 8.099 0 0 1 8.1 0h125.533a8.099 8.099 0 0 1 8.1 8.099v125.534a8.099 8.099 0 0 1-8.1 8.099z"/><path fill="#FFF" d="M74.417 42.09c9.432 0 14.685 4.06 14.685 10.627v.238c0 7.641-6.327 11.343-15.76 11.343h-9.358a.667.667 0 0 0-.667.668V76.05c0 .368.298.667.667.667h12.581c11.582 0 17.194 4.18 17.194 11.224v.238c0 7.522-6.089 11.463-16.119 11.463H53.951a.668.668 0 0 1-.668-.668v-46.26a.667.667 0 0 0-.667-.667H39.503a.667.667 0 0 0-.667.667v59.274c0 .37.3.668.667.668h38.018c18.626 0 30.924-8 30.924-22.925v-.239c0-10.8-6.17-16.404-15.212-19.8a.664.664 0 0 1-.098-1.2c5.692-3.29 10.654-8.59 10.654-17.923v-.24c0-5.612-1.91-10.148-5.612-13.85-4.776-4.776-12.298-7.402-21.85-7.402H63.648a.668.668 0 0 0-.668.667v11.013c0 .736.598 1.334 1.335 1.334h10.102z"/><path fill="#FFF" d="M39.503 29.076h13.113c.368 0 .667.3.667.667v11.68a.667.667 0 0 1-.667.667H39.503a.667.667 0 0 1-.667-.667v-11.68c0-.368.298-.667.667-.667"/><mask id="b" fill="#fff"><use xlink:href="#a"/></mask><path fill="#6C737A" d="M188.976 112.622h11.715V29.083h-11.715zm30.078-59.874h11.122v7.928c0 2.366-.236 4.378-.236 4.378h.236c2.368-5.207 9.467-13.727 22.483-13.727 14.081 0 20.59 7.692 20.59 22.956v38.34H261.77V76.886c0-8.402-1.775-15.028-11.359-15.028-9.11 0-16.447 6.035-18.933 14.673-.709 2.366-.946 5.087-.946 8.046v28.044h-11.478V52.748zm70.608 44.373s6.744 6.98 17.157 6.98c4.97 0 9.94-2.602 9.94-7.454 0-11.005-30.766-8.756-30.766-28.28 0-10.886 9.703-17.04 21.654-17.04 13.135 0 19.288 6.627 19.288 6.627l-4.615 8.64s-5.325-5.327-14.79-5.327c-4.97 0-9.822 2.13-9.822 7.336 0 10.768 30.765 8.402 30.765 28.044 0 9.94-8.519 17.394-21.654 17.394-14.672 0-22.719-8.756-22.719-8.756l5.562-8.164zm53.508-34.315h-7.808v-9.23h8.164V36.302h11.123v17.276h14.436v9.229h-14.436V89.43c0 11.952 8.4 13.49 12.779 13.49 1.657 0 2.722-.237 2.722-.237v10.176s-1.657.237-4.024.237c-7.691 0-22.955-2.367-22.955-22.364V62.806zm57.177 42.006c9.703 0 15.974-10.176 15.974-19.05v-1.893h-2.958c-8.638 0-24.258.59-24.258 11.36 0 4.85 3.787 9.583 11.242 9.583m13.252-29.582h2.603v-1.065c0-9.82-5.561-13.135-13.134-13.135-9.23 0-16.684 5.8-16.684 5.8l-4.733-8.402s8.638-7.1 22.363-7.1c15.146 0 23.666 8.283 23.666 23.43v37.864h-10.65v-5.68c0-2.722.237-4.734.237-4.734h-.236s-4.852 11.833-19.17 11.833c-10.294 0-20.352-6.27-20.352-18.223 0-19.76 26.033-20.588 36.09-20.588m57.935 28.99c9.466 0 17.276-7.81 17.276-21.417 0-13.017-6.982-21.416-16.922-21.416-8.992 0-17.275 6.27-17.275 21.534 0 10.65 5.561 21.299 16.921 21.299zM443.49 29.083h11.478v27.333c0 2.959-.237 5.089-.237 5.089h.237s5.088-10.178 19.17-10.178c16.091 0 26.268 12.78 26.268 31.357 0 19.052-11.478 31.357-27.216 31.357-13.37 0-18.814-10.294-18.814-10.294h-.236s.236 1.894.236 4.496v4.379H443.49v-83.54zm87.682 75.729c9.703 0 15.974-10.176 15.974-19.05v-1.893h-2.958c-8.638 0-24.258.59-24.258 11.36 0 4.85 3.787 9.583 11.242 9.583m13.252-29.582h2.603v-1.065c0-9.82-5.56-13.135-13.134-13.135-9.229 0-16.684 5.8-16.684 5.8l-4.733-8.402s8.638-7.1 22.364-7.1c15.145 0 23.665 8.283 23.665 23.43v37.864h-10.649v-5.68c0-2.722.236-4.734.236-4.734h-.236s-4.852 11.833-19.169 11.833c-10.295 0-20.353-6.27-20.353-18.223 0-19.76 26.033-20.588 36.09-20.588m29.892-22.482h11.123v7.928c0 2.366-.237 4.378-.237 4.378h.237c2.366-5.207 9.466-13.727 22.482-13.727 14.08 0 20.589 7.692 20.589 22.956v38.34h-11.478V76.886c0-8.402-1.774-15.028-11.36-15.028-9.11 0-16.447 6.035-18.932 14.673-.71 2.366-.946 5.087-.946 8.046v28.044h-11.478V52.748zm70.051-23.665h11.478v45.674h8.4l16.33-22.008h13.016l-19.879 26.386v.237l22.127 33.25h-13.37L664.481 84.46h-8.637v28.162h-11.478z" mask="url(#b)"/></g></svg>