<?xml version="1.0" encoding="utf-8"?>
<!-- Generator: Adobe Illustrator 22.0.0, SVG Export Plug-In . SVG Version: 6.00 Build 0)  -->
<!DOCTYPE svg PUBLIC "-//W3C//DTD SVG 1.1//EN" "http://www.w3.org/Graphics/SVG/1.1/DTD/svg11.dtd" [
	<!ENTITY st0 "fill:#F7B912;">
	<!ENTITY st1 "fill:url(#SVGID_1_);">
	<!ENTITY st2 "fill:url(#SVGID_2_);">
	<!ENTITY st3 "fill:#1F1949;">
	<!ENTITY st4 "fill:#F7B811;">
	<!ENTITY st5 "display:none;">
	<!ENTITY st6 "display:inline;fill:#F7B811;">
]>
<svg version="1.1" xmlns="http://www.w3.org/2000/svg" xmlns:xlink="http://www.w3.org/1999/xlink" x="0px" y="0px"
	 viewBox="0 0 1638.8000488 431.2000122" style="enable-background:new 0 0 1638.8000488 431.2000122;" xml:space="preserve">
<g id="Layer_1">
	<polygon style="&st0;" points="247.8999939,188.6999969 294.5,161.6999969 201.1999969,107.8000031 107.8000031,161.6999969 
		107.8000031,269.5 201.1999969,323.3999939 294.5,269.5 	"/>
	
		<linearGradient id="SVGID_1_" gradientUnits="userSpaceOnUse" x1="113.3714523" y1="140.1665802" x2="163.5227509" y2="243.927887" gradientTransform="matrix(1 0 0 -1 6.0004001 401.4955139)">
		<stop  offset="0" style="stop-color:#B77B06"/>
		<stop  offset="0.5" style="stop-color:#D7920A"/>
		<stop  offset="1" style="stop-color:#ECA70D"/>
	</linearGradient>
	<polygon style="&st1;" points="201.1999969,215.6000061 107.8000031,161.6999969 107.8000031,269.5 	"/>
	
		<linearGradient id="SVGID_2_" gradientUnits="userSpaceOnUse" x1="193.8054352" y1="182.3283234" x2="244.7528381" y2="106.387825" gradientTransform="matrix(1 0 0 -1 6.0004001 401.4955139)">
		<stop  offset="0" style="stop-color:#B77B06"/>
		<stop  offset="0.5" style="stop-color:#E69F0C"/>
		<stop  offset="1" style="stop-color:#F7B912"/>
	</linearGradient>
	<polygon style="&st2;" points="201.1999969,323.3999939 154.5,242.6000061 247.8999939,188.6999969 294.5,269.5 	"/>
	<g>
		<path style="&st3;" d="M463.5,169.6999969c-24.5,0-39.2000122,11-39.2000122,41.0999908v16.3000031
			c0,30.0999908,14.7999878,41.3000031,39.2000122,41.3000031c24.5,0,39.2000122-11.2000122,39.2000122-41.3000031v-16.3000031
			C502.7000122,180.8000031,487.8999939,169.6999969,463.5,169.6999969z M484.2999878,227.1999969
			c0,18.8000031-8.3999939,24.1000061-20.7999878,24.1000061s-20.8999939-6.6999969-20.8999939-24.1000061v-16.3000031
			c0-17.3999939,8.7000122-24.1999969,21.2000122-24.1999969c12.3999939,0,20.6000061,6.6000061,20.6000061,24.1999969v16.3000031
			H484.2999878z"/>
		<path style="&st3;" d="M680.9000244,171.1999969h-34.5c0,0-1.4000244,0-1.4000244,1.3999939C645,174.1999969,645,264.5,645,266
			s1.4000244,1.3999939,1.4000244,1.3999939h16.5c0,0,1.4000244,0,1.4000244-1.3999939c0-1.7999878,0-34.3000031,0-35.6999969
			s1.4000244-1.3999939,1.4000244-1.3999939H684c17.2000122,0,28.4000244-12.6999969,28.4000244-29.6999969
			C712.5,182.6000061,698.2000122,171.1999969,680.9000244,171.1999969z M679.7000122,213.3999939h-14.0999756
			c0,0-1.4000244,0.1000061-1.4000244-1.3999939s0-23.3000031,0-24.8999939c0-1.5,1.4000244-1.3999939,1.4000244-1.3999939
			h14.0999756c7.9000244,0,14.5,5.8000031,14.5,13.3000031
			C694.2999878,207.1999969,687.5999756,213.3999939,679.7000122,213.3999939z"/>
		<path style="&st3;" d="M609.2000122,171.1999969h-90.0999756c0,0-1.4000244,0-1.4000244,1.3999939c0,0,0,91.9999847,0,93.4000092
			c0,1.3999939,1.4000244,1.3999939,1.4000244,1.3999939h16.5c0,0,1.4000244,0.1000061,1.4000244-1.3999939s0-76.5,0-76.5
			s22.2000122,0,23.7000122,0c1.5999756,0,1.4000244,1.3999939,1.4000244,1.3999939s0,73.6000061,0,75.1000061
			s1.4000244,1.3999939,1.4000244,1.3999939h16.5c0,0,1.4000244,0.1000061,1.4000244-1.3999939s0-76.5,0-76.5
			s22.2000122,0,23.7000122,0s1.4000244,1.3999939,1.4000244,1.3999939s0,73.6999817,0,75.1000061
			c0,1.5,1.4000244,1.3999939,1.4000244,1.3999939h16.5c0,0,1.4000244,0.1000061,1.4000244-1.3999939s0-81.6999969,0-81.6999969
			C625.5999756,179.6000061,624.4000244,171.3999939,609.2000122,171.1999969z"/>
		<path style="&st3;" d="M855.0999756,250.8999939c-1.4000244,0-40.7999878,0-40.7999878,0
			s-1.4000244-0.1000061-1.4000244-1.3999939s0-20.6000061,0-22s1.4000244-1.3999939,1.4000244-1.3999939s32.5999756,0,33.9000244,0
			c1.4000244,0,1.4000244-1.3999939,1.4000244-1.3999939v-13.6999969c0,0,0-1.3999939-1.4000244-1.3999939
			c-1.0999756,0-33.9000244,0-33.9000244,0s-1.4000244,0.1000061-1.4000244-1.3999939s0-17.6999969,0-19.1999969
			c0-1.3999939,1.4000244-1.3999939,1.4000244-1.3999939s39.4000244,0,40.7999878,0S856.5,186.2000427,856.5,186.2000427
			v-13.6999969c0,0,0.2000122-1.3999939-1.4000244-1.3999939s-60.0999756,0-60.0999756,0s-1.4000244-0.1000061-1.4000244,1.3999939
			c0,0,0,91.9000092,0,93.4000092S795,267.3000488,795,267.3000488s58.7000122,0,60.0999756,0
			c1.4000244,0,1.4000244-1.3999939,1.4000244-1.3999939V252.200058
			C856.5,252.3000031,856.5999756,250.8999939,855.0999756,250.8999939z"/>
		<path style="&st3;" d="M868.9000244,171.1999969c0,0-1.5999756-0.1999969-1.5999756,1.3999939
			c0,1.6000061,0,12.3000031,0,13.6999969s1.4000244,1.3999939,1.4000244,1.3999939s20,0,21.5,0
			s1.4000244,1.3999939,1.4000244,1.3999939s0,75.5,0,76.8999939s1.4000244,1.3999939,1.4000244,1.3999939h15.2999878
			c0,0,1.7000122,0.2000122,1.7000122-1.3999939s0-76.8999939,0-76.8999939s-0.0999756-1.3999939,1.4000244-1.3999939
			c1.5999756,0,20.2000122,0,21.7000122,0c1.5999756,0,1.4000244-1.3999939,1.4000244-1.3999939v-13.6999969
			c0,0,0-1.3999939-1.4000244-1.3999939C931.5999756,171.1999969,868.9000244,171.1999969,868.9000244,171.1999969z"/>
		<path style="&st3;" d="M1010,171.1999969c-1.4000244,0-64.0999756,0-64.0999756,0s-1.5999756-0.1000061-1.5999756,1.3999939
			s0,12.3000031,0,13.6999969s1.4000244,1.3999939,1.4000244,1.3999939s20,0,21.5,0s1.4000244,1.3999939,1.4000244,1.3999939
			s0,75.7000122,0,76.8999939c0,1.3999939,1.4000244,1.3999939,1.4000244,1.3999939h15.4000244
			c0,0,1.5999756,0.2000122,1.5999756-1.3999939s0-76.8999939,0-76.8999939s-0.2000122-1.3999939,1.4000244-1.3999939
			c1.5999756,0,20.2999878,0,21.7000122,0s1.4000244-1.3999939,1.4000244-1.3999939v-13.6999969
			C1011.4000244,172.6000061,1011.4000244,171.1999969,1010,171.1999969z"/>
		<path style="&st3;" d="M420.5,171.1999969c-2.5,0-18.5,0-20.2999878,0S397.5,172.5999908,397.5,172.5999908L362,212.3999939
			c0,0,0-38.3999939,0-39.8000031c0-1.5-1.3999939-1.3999939-1.3999939-1.3999939h-16.5
			c0,0-1.3999939-0.1999969-1.3999939,1.3999939c0,1.5,0,91.9000092,0,93.4000092s1.3999939,1.3999939,1.3999939,1.3999939h16.5
			c0,0,1.3999939,0,1.3999939-1.3999939s0-43.8000031,0-43.8000031L398.3999939,266c0,0,0.8999939,1.3999939,2.7999878,1.3999939
			c1.7999878,0,17.2000122,0,19.2999878,0c2.1000061,0,1.2000122-1.2999878,1.2000122-1.2999878l-41.8999939-49.5l41.8999939-44
			C421.6000061,172.6000061,423,171.1999969,420.5,171.1999969z"/>
		<path style="&st3;" d="M744.7000122,250.8999939c0,0-1.4000244,0-1.4000244-1.3999939s0-75.3999939,0-76.8999939
			s-1.4000244-1.3999939-1.4000244-1.3999939h-16.5c0,0-1.4000244-0.1000061-1.4000244,1.3999939
			c0,1.6000061,0,92.1000061,0,93.3999939c0,1.3999939,1.4000244,1.3999939,1.4000244,1.3999939s52.4000244,0,54.2999878,0
			c1.5,0,1.4000244-1.3999939,1.4000244-1.3999939v-13.6999969c0,0-0.0999756-1.3999939-1.4000244-1.3999939
			S744.7000122,250.8999939,744.7000122,250.8999939z"/>
	</g>
	<g>
		<path style="&st3;" d="M1039.0999756,164.6999969c8.1999512,0,14.8000488,6.6000061,14.8000488,14.8000031
			s-6.5999756,14.8000031-14.8000488,14.8000031c-8.1999512,0-14.8000488-6.6000061-14.8000488-14.8000031
			C1024.3000488,171.3000031,1030.9000244,164.6999969,1039.0999756,164.6999969z M1039.0999756,191
			c6.5999756,0,11.5-4.8999939,11.5-11.5s-4.9000244-11.5-11.5-11.5s-11.5,4.8999939-11.5,11.5
			C1027.5999756,186,1032.5,191,1039.0999756,191z M1046.5,185.1999969v2.1000061l-0.4000244,0.3999939h-1.1999512
			l-0.8000488-0.3999939l-4.5-5.6999969l-0.8000488-0.3999939h-2.5l-0.4000244,0.3999939v5.6999969l-0.4000244,0.3999939h-2.5
			l-0.4000244-0.3999939v-15.6000061l0.4000244-0.3999939h8.1999512c3.3000488,0,5.3000488,1.6000061,5.3000488,4.8999939
			c0,2.1000061-0.8000488,3.6999969-3.3000488,4.5v0.3999939L1046.5,185.1999969z M1041.0999756,174.1000061h-4.9000244
			L1035.7999268,174.5v3.3000031l0.4000244,0.3999939h4.9000244c1.1999512,0,2.0999756-0.8000031,2.0999756-2.1000061
			C1043.1999512,175,1042.4000244,174.1000061,1041.0999756,174.1000061z"/>
	</g>
	<path style="&st4;" d="M1100.4000244,268.7999878c-12.5999756,0-18.1999512-8.3999939-18.1999512-8.3999939h-1.4000244
		L1079.4000244,266L1078,267.3999939h-9.8000488L1066.7999268,266v-92l1.4000244-1.3999939h11.1999512L1080.7999268,174v30.3000031
		h1.4000244c0,0,5.5999756-8.3999939,18.1999512-8.3999939c18.1999512,0,30.9000244,14,30.9000244,36.5
		C1131.3000488,253.3999939,1118.6999512,268.7999878,1100.4000244,268.7999878z M1099,208.5
		c-11.1999512,0-18.1999512,7-18.1999512,23.8000031s7,23.8000031,18.1999512,23.8000031
		s18.1999512-8.3999939,18.1999512-23.8000031S1110.1999512,208.5,1099,208.5z"/>
	<path style="&st4;" d="M1197.1999512,267.3999939h-9.8000488L1185.9998779,266l-1.4000244-5.6000061h-1.4000244
		c0,0-5.5999756,8.3999939-19.5999756,8.3999939c-15.4000244,0-23.8000488-8.3999939-23.8000488-22.3999939
		C1139.7998047,231,1152.3997803,224,1170.6998291,224c7,0,12.5999756,1.3999939,12.5999756,1.3999939L1184.6998291,224v-2.8000031
		c0-9.8000031-4.1999512-12.6000061-14-12.6000061s-14,2.8000031-14,8.3999939l-1.4000244,1.3999939h-11.1999512
		l-1.4000244-1.3999939c0-9.8000031,7-21,28.0999756-21c21,0,28.0999756,9.8000031,28.0999756,30.8999939V266
		L1197.1999512,267.3999939z M1184.5999756,237.8999939L1183.1999512,236.5c0,0-4.1999512-1.3999939-11.1999512-1.3999939
		c-12.5999756,0-18.1999512,4.1999969-18.1999512,11.1999969s4.1999512,9.8000031,12.5999756,9.8000031
		c11.1999512,0,18.1999512-5.6000061,18.1999512-14V237.8999939z"/>
	<path style="&st4;" d="M1273,267.3999939h-11.1999512L1260.4000244,266v-40.6999969c0-7-1.4000244-16.8000031-14-16.8000031
		s-18.1999512,7-18.1999512,23.8000031V266l-1.4000244,1.3999939h-11.1999512L1214.2000732,266v-67.3000031l1.4000244-1.3999939
		h9.8000488l1.4000244,1.3999939l1.4000244,5.6000061h1.4000244c0,0,5.5999756-8.3999939,18.1999512-8.3999939
		c19.5999756,0,26.5999756,12.6000061,26.5999756,29.5V266L1273,267.3999939z"/>
	<path style="&st4;" d="M1345.9000244,267.3999939h-5.5999756L1337.5,266l-21-26.6000061h-1.4000244l-9.8000488,9.8000031
		L1303.8999023,252v14l-1.4000244,1.3999939h-11.1999512L1289.8999023,266v-92l1.4000244-1.3999939h11.1999512L1303.8999023,174v57
		h1.4000244l32.3000488-32.3000031l2.8000488-1.3999939h4.1999512L1346,198.6999969V208.5l-19.5999756,19.6000061V229.5
		l21,26.7000122V266L1345.9000244,267.3999939z"/>
	<path style="&st4;" d="M1376.8000488,267.3999939h-14L1361.4000244,266v-14l1.4000244-1.3999939h14L1378.2000732,252v14
		L1376.8000488,267.3999939z"/>
	<path id="path74" style="&st4;" d="M1419.3312988,267.7505493c-17.6342773,0-27.1312256-8.1392517-27.1312256-23.0604858
		l1.3594971-1.3567505h10.8563232l1.3498535,1.3567505c0,6.7830048,4.0687256,10.8517303,13.5655518,10.8517303
		c9.4969482,0,13.5656738-2.7123566,13.5656738-8.1386108c0-6.7830048-4.0687256-8.1386108-17.6343994-10.8517303
		c-13.5655518-2.713028-21.7030029-8.139267-21.7030029-20.3472748c0-9.4959412,6.7875977-18.9918671,25.7717285-18.9918671
		c14.9251709,0,25.7718506,6.7828064,25.7718506,20.3484344l-1.3498535,1.3556061h-10.8563232l-1.3498535-1.3556061
		c0-4.0696869-2.7188721-8.1393738-12.2156982-8.1393738c-6.7779541,0-12.2061768,1.3565674-12.2061768,6.7828064
		c0,6.7818451,5.4282227,8.138504,18.9937744,10.8516235c13.5656738,2.7131348,20.34375,8.1392822,20.34375,20.3473816
		c0,10.8517303-8.1374512,20.3473663-27.1313477,20.3473663"/>
	<path id="path76" style="&st4;" d="M1502.0749512,225.6990509c0-4.0695801-1.3498535-16.2776794-16.2749023-16.2776794
		c-14.9251709,0-16.2750244,12.2080994-16.2750244,16.2776794l1.3498535,1.3567505h29.8500977l1.3498535-1.3567505H1502.0749512z
		 M1454.5999756,232.4820557c0-18.9909973,9.4969482-35.2697449,31.2000732-35.2697449
		c21.7030029,0,31.1999512,16.2787476,31.1999512,35.2697449v4.069397l-1.3594971,1.3567505H1470.875l-1.3498535,1.3563843
		c0,2.7123566,1.3498535,16.2772064,17.6343994,16.2772064c5.4282227,0,10.8466797-1.3567505,13.5656738-8.1386108
		l1.3497314-1.3567505h10.8564453l1.359375,1.3567505c-1.359375,10.8517303-10.8563232,20.3473663-27.1312256,20.3473663
		c-21.703125,0-32.5593262-14.9211121-32.5593262-35.2684937"/>
</g>
<g id="Layer_3" style="&st5;">
	<path id="path70_1_" style="&st6;" d="M1435.5043945,208.1354828h-14.4382324l-1.4385986,1.4438171v56.2884369
		l-1.4489746,1.4427795h-11.5402832l-1.4489746-1.4427795v-56.2884369l-1.4387207-1.4438171h-10.1015625l-1.4489746-1.4427948
		v-10.1036682l1.4489746-1.4428101h10.1015625l1.4387207-1.4438171v-5.7732239
		c0-12.9892731,10.1015625-18.7625122,20.2032471-18.7625122h11.5505371l1.4387207,1.4428101v10.1036682l-1.4387207,1.4427948
		h-11.5505371c-2.8774414,0-5.7650146,1.4438324-5.7650146,5.7732391v5.7732239l1.4385986,1.4438171h14.4382324l1.4385986,1.4428101
		v10.1036682L1435.5043945,208.1354828"/>
	<path id="path72_1_" style="&st6;" d="M1466.8092041,267.3105164h-11.5505371l-1.4489746-1.4428101v-69.2786865
		l1.4489746-1.4428101h11.5505371l1.4387207,1.4428101v69.2786865L1466.8092041,267.3105164z M1466.8092041,183.5997467h-11.5505371
		l-1.4489746-1.4438324v-11.546463l1.4489746-1.4427948h11.5505371l1.4387207,1.4427948v11.546463L1466.8092041,183.5997467"/>
</g>
<g id="Layer_2" style="&st5;">
	<path style="&st6;" d="M1451,266.9499817h-11.1999512l-1.4000244-1.3999939v-40.6999817c0-7-1.4000244-16.8000183-14-16.8000183
		s-18.1999512,7-18.1999512,23.8000183v33.6999817l-1.4000244,1.3999939h-11.1999512l-1.4000244-1.3999939V198.25
		l1.4000244-1.3999939h9.8000488l1.4000244,1.3999939l1.4000244,5.6000061h1.4000244c0,0,5.5999756-8.3999939,18.1999512-8.3999939
		c19.5999756,0,26.5999756,12.6000061,26.5999756,29.5v40.5999756L1451,266.9499817z"/>
	<path style="&st6;" d="M1497.3000488,195.1499939c21,0,33.6999512,14,33.6999512,36.5
		c0,22.3999939-12.5999756,36.5-33.6999512,36.5c-21,0-33.6999512-14-33.6999512-36.5
		C1463.5999756,209.1499939,1476.2000732,195.1499939,1497.3000488,195.1499939z M1497.3000488,255.4499817
		c12.5999756,0,19.5999756-8.3999939,19.5999756-23.7999878s-7-23.8000183-19.5999756-23.8000183
		s-19.5999756,8.3999939-19.5999756,23.8000183C1477.5999756,247.0499878,1484.5999756,255.4499817,1497.3000488,255.4499817z"/>
</g>
</svg>
