<?xml version="1.0" encoding="UTF-8" standalone="no"?>
<svg
   xmlns:dc="http://purl.org/dc/elements/1.1/"
   xmlns:cc="http://creativecommons.org/ns#"
   xmlns:rdf="http://www.w3.org/1999/02/22-rdf-syntax-ns#"
   xmlns:svg="http://www.w3.org/2000/svg"
   xmlns="http://www.w3.org/2000/svg"
   viewBox="0 0 498.66666 76"
   height="76"
   width="498.66666"
   xml:space="preserve"
   id="svg2"
   version="1.1"><metadata
     id="metadata8"><rdf:RDF><cc:Work
         rdf:about=""><dc:format>image/svg+xml</dc:format><dc:type
           rdf:resource="http://purl.org/dc/dcmitype/StillImage" /></cc:Work></rdf:RDF></metadata><defs
     id="defs6" /><g
     transform="matrix(1.3333333,0,0,-1.3333333,0,76)"
     id="g10"><g
       transform="scale(0.1)"
       id="g12"><path
         id="path14"
         style="fill:#6f6b6c;fill-opacity:1;fill-rule:nonzero;stroke:none"
         d="m 2356.29,328.281 c -36.21,-0.16 -66.8,-2.89 -89.53,-20.23 v -185 h -35.59 v 235.777 h 31.92 V 332.73 c 36.01,25.122 60.07,27.739 93.24,27.86 1.29,0.031 17.46,-0.32 22.34,-0.32 v -32.692 c -8.2,0.742 -21.09,0.703 -22.38,0.703" /><path
         id="path16"
         style="fill:#6f6b6c;fill-opacity:1;fill-rule:nonzero;stroke:none"
         d="m 2060.78,239.73 c -22.62,0 -38.75,1.36 -46.21,1.36 -48.01,0 -83.59,-7.18 -83.59,-48.981 0,-46.211 43.43,-50.23 79.41,-50.23 13.44,0 22.62,0.93 50.39,3.199 z M 1995.2,118.551 c -62.39,0 -101.61,13.519 -101.61,75.398 0,70.031 69.26,71.321 121.96,71.321 11.95,0 26.33,-1.29 44.76,-1.29 0,60.551 -0.43,74.461 -75.31,74.461 -25.86,0 -54.88,-4.921 -74.8,-8.089 v 26.019 c 25,4.957 52.65,7.688 79.96,7.688 67.38,0 105.78,-9.02 105.78,-75.899 V 123.52 c -36.6,-4.071 -67.97,-4.969 -100.74,-4.969" /><path
         id="path18"
         style="fill:#6f6b6c;fill-opacity:1;fill-rule:nonzero;stroke:none"
         d="m 1663.52,338.789 c -10.67,0 -18.91,0 -42.5,-2.23 V 150.27 c 26.75,-4.059 37.42,-4.059 49.37,-4.059 48.13,0 86.88,26.449 86.88,98.75 0,65.508 -35.98,93.828 -93.75,93.828 m 85,-197.93 c -24.54,-15.199 -49.46,-20.238 -74.85,-20.238 -11.13,0 -25,0 -52.65,4.07 V 3.08984 h -35.55 V 360.27 c 21.68,1.371 52.62,3.64 73.79,3.64 35.19,0 63.4,-3.129 87.85,-17.969 37.42,-22.421 48.91,-64.14 48.91,-100.98 0,-44.371 -15.2,-84.34 -47.5,-104.102" /><path
         id="path20"
         style="fill:#6f6b6c;fill-opacity:1;fill-rule:nonzero;stroke:none"
         d="m 1373.36,118.359 c -27.74,0 -54.49,3.629 -76.64,8.09 v 27.34 c 21.68,-4.449 46.21,-9.41 70.62,-9.41 33.28,0 73.95,7.691 73.95,40.891 0,37.23 -49.96,39.929 -77.62,47.152 -33.71,8.476 -68.4,21.019 -68.4,64.566 0,51.172 46.29,66.922 94.73,66.922 34.14,0 58.2,-4.07 72.5,-6.332 v -26.449 c -16.17,3.133 -40.62,6.723 -64.65,6.723 -25.9,0 -66.6,-5.391 -66.6,-37.692 0,-29.609 41.17,-35.941 61.52,-39.961 37.89,-8.051 85.94,-18.828 85.94,-68.64 0,-43.981 -35.12,-73.2 -105.35,-73.2" /><path
         id="path22"
         style="fill:#da071f;fill-opacity:1;fill-rule:nonzero;stroke:none"
         d="m 1119.02,239.219 c 0.36,-18.989 0,-31.41 0,-31.41 0,-59.02 -38,-84.918 -95.35,-84.918 -51.44,0 -97.299,16.089 -97.299,73.75 0,38.32 32.731,51.089 56.008,56.718 v 2.621 c -19.649,6.829 -43.238,18.981 -43.238,49.098 0,40.66 36.019,59.024 82.539,59.024 19.34,0 32.81,-0.981 49.49,-4.262 v -26.871 c -14.06,2.261 -31.79,3.59 -45.51,3.59 -23.28,0 -50.82,-4.918 -50.82,-33.399 0,-25.582 30.16,-35.699 61.29,-35.738 v -27.543 c -32.77,0 -72.419,-8.508 -72.419,-42.258 0,-39.961 31.449,-46.57 59.959,-46.57 12.15,0 23.28,1.019 34.42,5.937 13.75,6.532 26.56,19.653 26.56,49.141 v 60.281 h 70.43 v -27.191 z" /><path
         id="path24"
         style="fill:#6f6b6c;fill-opacity:1;fill-rule:nonzero;stroke:none"
         d="m 718.238,122.73 v 151.719 c 0,25.16 0,59.731 -47.5,59.731 -25.859,0 -64.179,-15.27 -84.097,-24.258 V 122.73 h -35.039 v 235.629 h 31.878 v -25.078 c 53.981,24.219 69.719,30.039 103.43,30.039 32.309,0 67.43,-18.832 67.43,-69.57 V 122.73 Z" /><path
         id="path26"
         style="fill:#6f6b6c;fill-opacity:1;fill-rule:nonzero;stroke:none"
         d="m 390.941,239.449 c -22.66,0 -38.793,1.332 -46.171,1.332 -48.051,0 -83.598,-7.191 -83.598,-48.902 0,-46.289 43.398,-50.238 79.418,-50.238 13.39,0 22.691,0.859 50.351,3.129 z m -65.55,-121.168 c -62.379,0 -101.602,13.481 -101.602,75.43 0,69.961 69.223,71.328 121.871,71.328 12.039,0 26.41,-1.367 44.77,-1.367 0,60.629 -0.352,74.527 -75.231,74.527 -25.859,0 -55,-5 -74.847,-8.039 v 25.969 c 24.957,4.922 52.66,7.621 79.957,7.621 67.39,0 105.742,-8.949 105.742,-75.82 V 123.16 c -36.481,-4.019 -67.852,-4.879 -100.66,-4.879" /><path
         id="path28"
         style="fill:#6f6b6c;fill-opacity:1;fill-rule:nonzero;stroke:none"
         d="m 322.809,458.672 c -15.231,0 -28.2,-8.082 -28.2,-23.793 0,-15.231 12.969,-23.75 28.2,-23.75 12.461,0 28.211,6.68 28.211,23.359 0,17.461 -14.809,24.184 -28.211,24.184 m 0,-65.973 c -31.829,0 -53.547,14.801 -53.547,41.789 0,28.672 22.148,42.543 53.547,42.543 33.211,0 53.562,-15.23 53.562,-42.543 0,-26.558 -21.172,-41.789 -53.562,-41.789" /><path
         id="path30"
         style="fill:#6f6b6c;fill-opacity:1;fill-rule:nonzero;stroke:none"
         d="m 34.5703,228.398 c 0,-59.296 0.5078,-78.668 60.5078,-80.699 9.0239,-0.32 11.1719,-0.32 20.7029,0.27 l 0.078,-24.571 C 110.391,122.809 97.8516,121.91 88.1602,122.191 26.0508,124.102 0.078125,141.289 0.078125,200.23" /><path
         id="path32"
         style="fill:#6f6b6c;fill-opacity:1;fill-rule:nonzero;stroke:none"
         d="M 0.078125,199.18 0,411.289 H 34.5703 V 219.73" /><path
         id="path34"
         style="fill:#da071f;fill-opacity:1;fill-rule:nonzero;stroke:none"
         d="M 3735.86,3.32031 H 1908.59 V 34.2188 H 3702.5 V 543.199 H 2229.49 V 570 h 1506.37 z" /><path
         id="path36"
         style="fill:#da071f;fill-opacity:1;fill-rule:nonzero;stroke:none"
         d="m 2742.23,240.039 c 0,31.602 -7.11,56.133 -21.33,73.59 -14.26,17.5 -36.49,26.211 -66.76,26.211 -5.47,0 -12.19,-0.309 -20.23,-0.891 -8.01,-0.629 -16.72,-1.679 -26.1,-3.211 v -190 c 11.49,-1.828 20.78,-2.929 27.93,-3.199 7.11,-0.309 13.09,-0.469 17.93,-0.469 29.38,0.309 51.45,9.34 66.29,27.11 14.84,17.769 22.27,41.41 22.27,70.859 m 37.81,0 c 0,-19.73 -3.2,-37.187 -9.53,-52.379 -6.41,-15.199 -15.24,-28.012 -26.45,-38.519 -11.29,-10.469 -24.61,-18.481 -40.11,-23.942 -15.51,-5.429 -32.35,-8.211 -50.59,-8.211 -9.73,0 -22.15,0.633 -37.38,1.883 -15.16,1.168 -29.61,3.008 -43.25,5.43 v 339.488 h 35.51 V 360.352 c 15.74,2.418 28.48,3.789 38.21,4.097 9.68,0.321 16.36,0.473 20,0.473 35.11,0 62.85,-10.781 83.16,-32.344 20.27,-21.598 30.43,-52.418 30.43,-92.539" /><path
         id="path38"
         style="fill:#da071f;fill-opacity:1;fill-rule:nonzero;stroke:none"
         d="m 2983.71,240.039 c -11.17,0 -20.62,0.231 -28.36,0.699 -7.73,0.473 -13.4,0.672 -17.03,0.672 -11.8,0 -22.7,-0.59 -32.7,-1.801 -10,-1.25 -18.67,-3.589 -26.09,-7.07 -7.42,-3.519 -13.16,-8.519 -17.26,-15.039 -4.11,-6.52 -6.14,-15.121 -6.14,-25.738 0,-11.883 2.42,-21.141 7.27,-27.813 4.84,-6.679 11.05,-11.758 18.63,-15.277 7.58,-3.473 15.98,-5.703 25.2,-6.602 9.22,-0.898 18.24,-1.371 27.03,-1.371 3.32,0 6.48,0.082 9.53,0.242 3.01,0.149 6.37,0.27 9.96,0.469 3.63,0.11 7.81,0.469 12.5,0.891 4.69,0.469 10.51,0.98 17.46,1.609 z m 35.12,-118.008 c -18.24,-2.109 -35.28,-3.48 -51.06,-4.101 -15.82,-0.59 -31.91,-0.942 -48.28,-0.942 -15.51,0 -29.41,1.102 -41.72,3.211 -12.3,2.141 -22.81,6.012 -31.4,11.68 -8.67,5.621 -15.35,13.391 -20.08,23.32 -4.69,9.879 -7.07,22.77 -7.07,38.629 0,17.652 3.79,31.442 11.37,41.332 7.57,9.918 17.26,17.141 29.1,21.719 11.79,4.57 24.76,7.301 38.83,8.242 14.1,0.899 27.65,1.359 40.7,1.359 6.01,0 12.62,-0.23 19.73,-0.699 7.14,-0.429 15.19,-0.66 24.33,-0.66 0,15.391 -0.39,27.93 -1.13,37.578 -0.78,9.68 -3.52,17.301 -8.2,22.891 -4.73,5.582 -12.07,9.41 -22.11,11.519 -10,2.153 -24.3,3.2 -42.86,3.2 -12.73,0 -25.82,-1.008 -39.18,-2.969 -13.35,-1.988 -24.92,-3.711 -34.64,-5.231 v 26.411 c 25.19,5.152 51.48,7.73 78.86,7.73 16.68,0 31.53,-0.82 44.42,-2.5 12.89,-1.641 23.83,-5.16 32.73,-10.469 8.87,-5.312 15.74,-13.051 20.47,-23.242 4.81,-10.199 7.19,-23.75 7.19,-40.777 z" /><path
         id="path40"
         style="fill:#da071f;fill-opacity:1;fill-rule:nonzero;stroke:none"
         d="m 3253.52,122.031 v 154.02 c 0,6.371 -0.28,13.129 -0.71,20.277 -0.47,7.152 -2.22,13.672 -5.27,19.613 -3.01,5.899 -7.66,10.86 -13.87,14.797 -6.21,3.953 -15.27,5.942 -27.11,5.942 -6.36,0 -13.36,-0.86 -20.97,-2.539 -7.58,-1.68 -15.16,-3.789 -22.78,-6.371 -7.61,-2.571 -14.8,-5.309 -21.64,-8.2 -6.83,-2.89 -12.69,-5.39 -17.58,-7.5 V 122.031 h -35.07 V 361.25 h 31.91 l -0.04,-25.512 c 13.32,6.102 24.53,11.102 33.63,15.043 9.1,3.949 17.35,7.071 24.77,9.34 7.42,2.258 14.49,3.859 21.13,4.801 6.68,0.898 14.1,1.328 22.31,1.328 7.85,0 15.74,-1.25 23.63,-3.871 7.89,-2.578 15,-6.68 21.37,-12.301 6.36,-5.629 11.52,-12.887 15.43,-21.879 3.94,-8.937 5.93,-19.801 5.93,-32.539 V 122.031 Z" /><path
         id="path42"
         style="fill:#da071f;fill-opacity:1;fill-rule:nonzero;stroke:none"
         d="M 3514.57,122.031 3392.93,252.34 V 122.031 h -35.08 v 341.758 h 35.08 V 255.121 l 115.31,106.129 h 45.08 l -118.91,-102.969 129.85,-136.25 z" /></g></g></svg>