<?xml version="1.0" encoding="UTF-8" standalone="no"?>
<svg
   xmlns:dc="http://purl.org/dc/elements/1.1/"
   xmlns:cc="http://creativecommons.org/ns#"
   xmlns:rdf="http://www.w3.org/1999/02/22-rdf-syntax-ns#"
   xmlns:svg="http://www.w3.org/2000/svg"
   xmlns="http://www.w3.org/2000/svg"
   viewBox="0 0 1021.28 264.16"
   height="264.16"
   width="1021.28"
   xml:space="preserve"
   id="svg2"
   version="1.1"><metadata
     id="metadata8"><rdf:RDF><cc:Work
         rdf:about=""><dc:format>image/svg+xml</dc:format><dc:type
           rdf:resource="http://purl.org/dc/dcmitype/StillImage" /></cc:Work></rdf:RDF></metadata><defs
     id="defs6" /><g
     transform="matrix(1.3333333,0,0,-1.3333333,0,264.16)"
     id="g10"><g
       transform="scale(0.1)"
       id="g12"><path
         id="path14"
         style="fill:#4dc3b2;fill-opacity:1;fill-rule:nonzero;stroke:none"
         d="m 3202.29,1261.55 c -98.42,0 -171.72,-65.63 -189.12,-245.07 h 339.6 c 1.95,21.23 3.83,42.46 3.83,63.69 0,100.3 -32.78,181.38 -154.31,181.38 z m 341.48,-785.28 c 0,0 -113.8,-79.141 -327.98,-79.141 -314.48,0 -453.41,183.34 -453.41,532.551 0,364.66 173.66,520.93 439.91,520.93 239.23,0 395.5,-123.48 395.5,-399.4 0,-123.48 -21.23,-202.55 -21.23,-202.55 h -565.27 c 17.33,-196.84 104.2,-246.961 239.23,-246.961 129.26,0 219.96,46.289 219.96,46.289 l 73.29,-171.718" /><path
         id="path16"
         style="fill:#4dc3b2;fill-opacity:1;fill-rule:nonzero;stroke:none"
         d="m 5210.72,802.309 c 0,-121.539 -65.57,-208.34 -173.6,-208.34 -121.59,0 -192.94,57.851 -192.94,329.929 0,272.022 71.35,329.932 192.94,329.932 104.14,0 169.77,-82.97 173.6,-200.67 z m 0,1045.741 V 1350.3 c -55.96,65.58 -136.98,100.31 -260.46,100.31 -216.06,0 -356.94,-133.09 -356.94,-526.712 0,-393.609 140.88,-526.769 356.94,-526.769 129.38,0 212.41,39.32 266.68,108.793 17.4,-60.422 72.48,-104.961 138.49,-104.961 h 98.42 V 1848.05 h -243.13" /><path
         id="path18"
         style="fill:#4dc3b2;fill-opacity:1;fill-rule:nonzero;stroke:none"
         d="m 5743.27,400.961 c -79.89,0 -144.71,64.758 -144.71,144.711 v 870.208 h 243.13 V 400.961 h -98.42" /><path
         id="path20"
         style="fill:#4dc3b2;fill-opacity:1;fill-rule:nonzero;stroke:none"
         d="m 5743.27,1513.45 c -79.89,0 -144.71,64.75 -144.71,144.71 v 98.42 h 243.13 v -243.13 h -98.42" /><path
         id="path22"
         style="fill:#4dc3b2;fill-opacity:1;fill-rule:nonzero;stroke:none"
         d="M 7238.6,1415.88 7013.87,672.172 6764.02,1415.88 h -250.85 l 324.78,-920.2 0.44,-0.379 -0.44,0.187 c 15.7,-42.59 51,-75.5 94.9,-88.437 v 0 c -59.79,-194.821 -100.3,-206.442 -194.89,-206.442 -40.51,0 -88.75,7.719 -88.75,7.719 V 21.2305 c 0,0 44.41,-21.2305 111.93,-21.2305 243.12,0 314.47,133.09 389.72,372.32 l 319.31,1043.56 H 7238.6" /><path
         id="path24"
         style="fill:#4dc3b2;fill-opacity:1;fill-rule:nonzero;stroke:none"
         d="m 6410.92,1657.05 c 92.58,0 150.49,-23.17 150.49,-23.17 l 63.62,167.89 c 0,0 -86.8,46.28 -229.56,46.28 -250.86,0 -337.66,-129.25 -337.66,-316.42 v -115.75 h -112.55 v -179.45 h 112.55 V 545.672 c 0,-79.953 64.82,-144.711 144.71,-144.711 h 98.42 v 835.469 h 67.52 c 79.89,0 144.71,64.82 144.71,144.71 v 34.74 h -212.23 v 125.42 c 0,81.02 32.79,115.75 109.98,115.75" /><path
         id="path26"
         style="fill:#4dc3b2;fill-opacity:1;fill-rule:nonzero;stroke:none"
         d="m 4253.72,545.672 c 0,-79.953 64.82,-144.711 144.71,-144.711 h 98.42 v 756.399 c 0,173.66 -104.2,293.25 -302.92,293.25 -106.15,0 -196.78,-30.84 -264.36,-92.58 v 57.85 H 3686.53 V 400.961 h 243.04 v 781.459 c 46.35,44.4 106.14,71.41 169.83,71.41 109.98,0 154.32,-55.96 154.32,-138.93 V 545.672" /><path
         id="path28"
         style="fill:#4dc3b2;fill-opacity:1;fill-rule:nonzero;stroke:none"
         d="m 7596.79,1635.01 c 2.95,0 3.96,0 7.98,-1.06 l 9.8,-19.35 c 4.21,-8.48 7.66,-17.28 8.98,-20.92 1.07,3.14 4.77,10.56 8.79,19.03 l 9.8,21.24 c 0,0 5.02,1.06 8.73,1.06 5.03,0 8.73,-1.06 8.73,-1.06 v -74.18 c 0,0 -2.39,-1.13 -6.6,-1.13 -4.52,0 -6.9,1.13 -6.9,1.13 v 29.39 c 0,14.07 -0.25,21.17 0.5,28.89 -2.32,-6.41 -5.02,-12.25 -7.41,-17.27 l -10.3,-20.92 c 0,0 -2.14,-0.75 -5.59,-0.75 -3.4,0 -5.53,0.75 -5.53,0.75 l -10.11,20.92 c -3.71,7.41 -5.28,11.68 -7.41,17.27 0.5,-4.77 0.81,-14.57 0.81,-28.89 v -29.39 c 0,0 -2.38,-1.13 -6.4,-1.13 -3.65,0 -6.1,1.13 -6.1,1.13 v 74.18 c 0,0 3.21,1.06 8.23,1.06 z m -19.09,0 c 0.81,-1.63 1.07,-3.45 1.07,-5.33 0,-1.83 -0.51,-3.72 -1.07,-5.54 h -19.85 v -64.37 c 0,0 -2.39,-1.13 -6.91,-1.13 -4.77,0 -6.59,1.13 -6.59,1.13 v 64.37 h -20.41 c -0.57,1.82 -1.07,3.46 -1.07,5.28 0,1.89 0.25,3.77 1.07,5.59 h 53.76" /><path
         id="path30"
         style="fill:#4dc3b2;fill-opacity:1;fill-rule:nonzero;stroke:none"
         d="m 2023.95,1848.05 h 246.96 V 613.191 h 457.24 v -212.23 h -461.14 -98.35 c -79.96,0 -144.71,64.758 -144.71,144.711 V 1848.05" /><path
         id="path32"
         style="fill:#a6e1d8;fill-opacity:1;fill-rule:nonzero;stroke:none"
         d="m 1652.97,1430.49 c 0,-304.03 -246.58,-550.619 -550.79,-550.619 h -0.85 v 274.879 h 0.88 c 152.34,0 275.92,123.5 275.92,275.76 0,152.39 -123.58,275.85 -275.92,275.85 -152.21,0 -275.726,-123.46 -275.726,-275.85 v -0.86 -274.9 -274.879 H 551.609 v 274.879 274.9 0.84 c 0,304.17 246.614,550.75 550.571,550.75 304.21,0 550.79,-246.58 550.79,-550.75" /><path
         id="path34"
         style="fill:#4dc3b2;fill-opacity:1;fill-rule:nonzero;stroke:none"
         d="M 826.484,878.988 V 1429.65 H 1101.33 V 879.059 c 0,-304.18 -246.58,-550.77 -550.568,-550.77 C 246.551,328.289 0,574.879 0,879.059 0,1183.06 246.551,1429.65 550.762,1429.65 h 0.847 v -274.9 h -0.882 c -152.399,0 -275.883,-123.48 -275.883,-275.762 0,-152.367 123.484,-275.847 275.883,-275.847 152.25,0 275.757,123.48 275.757,275.847" /></g></g></svg>