<?xml version="1.0" encoding="utf-8"?>
<!-- Generator: Adobe Illustrator 16.0.3, SVG Export Plug-In . SVG Version: 6.00 Build 0)  -->
<!DOCTYPE svg PUBLIC "-//W3C//DTD SVG 1.1//EN" "http://www.w3.org/Graphics/SVG/1.1/DTD/svg11.dtd">
<svg version="1.1" id="Layer_1" xmlns="http://www.w3.org/2000/svg" xmlns:xlink="http://www.w3.org/1999/xlink" x="0px" y="0px"
	 width="283.465px" height="113.386px" viewBox="0 0 283.465 113.386" enable-background="new 0 0 283.465 113.386"
	 xml:space="preserve">
<g>
	<g>
		<path fill="#E31837" d="M224.336,52.303c-3.047,0-5.524,2.698-5.524,6.129c0,3.43,2.478,6.067,5.524,6.067
			c3.019,0,5.526-2.7,5.526-6.067C229.862,55.034,227.322,52.303,224.336,52.303z"/>
		<path fill="#E31837" d="M205.701,52.303c-3.017,0-5.527,2.698-5.527,6.065c0,3.399,2.541,6.132,5.527,6.132
			c3.017,0,5.495-2.668,5.495-6.132C211.196,54.97,208.718,52.303,205.701,52.303z"/>
		<path fill="#E31837" d="M232.171,12.372c-25.013,0-45.29,18.258-45.29,45.293c0,25.015,20.277,45.293,45.29,45.293
			c25.016,0,45.294-20.278,45.294-45.293C277.465,32.65,257.187,12.372,232.171,12.372z M205.701,66.976
			c-4.638,0-8.227-3.748-8.227-8.608V42.985c0.801-1.332,1.67-2.951,2.604-4.192v13.794c1.335-1.683,3.399-2.764,5.654-2.764
			c4.542,0,8.163,3.653,8.163,8.543C213.896,63.292,210.213,66.976,205.701,66.976z M232.531,66.596h-2.604v-2.541
			c-1.271,1.777-3.334,2.954-5.653,2.954c-4.511,0-8.165-3.686-8.165-8.577c0-4.923,3.687-8.608,8.228-8.608
			c4.639,0,8.195,3.78,8.195,8.608V66.596z M249.396,66.596h-2.666V56.558c0-2.445-1.621-4.225-4.13-4.225
			c-2.541,0-4.161,1.78-4.161,4.225v10.038h-2.667v-9.941c0-4.129,2.922-6.83,6.828-6.83c3.907,0,6.796,2.701,6.796,6.83V66.596z
			 M266.871,63.991v2.605h-2.668V63.8c0-3.017-1.619-4.128-4.287-4.128h-3.843v6.924h-2.669v-23.61h2.669v14.177h3.843
			c2.635,0,4.287-1.748,4.287-4.193v-3.268h2.668v3.078c0,2.351-1.047,4.32-2.89,5.464C265.889,59.29,266.871,61.195,266.871,63.991
			z"/>
	</g>
	<path fill="#E31837" d="M76.478,49.662c-5.255,0-8.597,3.716-8.597,8.334s3.228,8.561,8.484,8.561h4.467v0.864
		c0.038,2.064-2.103,3.452-4.016,3.452c-1.916,0-4.356-1.2-4.356-3.491H68.48c0,3.942,3.68,7.134,8.373,7.134
		c4.656,0,8.297-3.304,8.297-7.32v-9.312C85.187,53.266,81.733,49.662,76.478,49.662z M80.795,62.502h-4.092
		c-3.079,0-4.467-2.291-4.467-4.392c0-2.104,1.126-4.394,4.205-4.394s4.392,2.178,4.355,4.279V62.502z M152.759,49.747
		c-4.649,0-8.405,3.884-8.405,8.628c0,4.743,3.755,8.563,8.405,8.563c4.075,0,6.973-2.261,7.927-5.603h-4.489
		c-0.701,1.305-2.103,1.91-3.47,1.91c-1.433,0-2.675-0.636-3.502-1.751l11.587-4.871C160.019,52.229,156.706,49.747,152.759,49.747z
		 M148.271,58.152c0.095-2.802,2.037-4.712,4.457-4.712c1.336,0,2.484,0.541,3.248,1.465L148.271,58.152z M137.317,66.557h4.317
		V40.813l-4.317,2.166V66.557z M171.209,49.7c-4.655,0-7.846,3.304-7.846,7.133v9.724h4.317v-9.086c0-2.628,1.463-4.13,3.529-4.13
		c2.102,0,3.567,1.502,3.567,4.13v9.086h4.318v-9.724C179.094,53.003,175.902,49.7,171.209,49.7z M88.859,66.557h4.318V49.701
		h-4.318V66.557z M104.808,49.7c-4.655,0-7.846,3.304-7.846,7.133v9.724h4.318v-9.086c0-2.628,1.464-4.13,3.528-4.13
		c2.103,0,3.566,1.502,3.566,4.13v9.086h4.317v-9.724C112.691,53.003,109.5,49.7,104.808,49.7z M44.61,49.662
		c-5.375,0-8.792,3.686-8.792,8.408c0,4.723,3.302,8.486,8.678,8.486h8.985V58.07C53.519,53.348,49.987,49.662,44.61,49.662z
		 M49.027,62.409h-4.186c-3.148,0-4.569-2.074-4.569-4.224c0-2.149,1.152-4.376,4.301-4.376c3.148,0,4.492,2.227,4.454,4.376V62.409
		z M124.806,49.662c-5.375,0-8.792,3.686-8.792,8.408c0,4.723,3.302,8.486,8.678,8.486h8.985V58.07
		C133.714,53.348,130.182,49.662,124.806,49.662z M129.223,62.409h-4.186c-3.148,0-4.569-2.074-4.569-4.224
		c0-2.149,1.152-4.376,4.301-4.376c3.147,0,4.492,2.227,4.454,4.376V62.409z M57.169,57.123v9.434h4.354v-8.898
		c0-2.674,1.528-3.972,3.667-3.972v-3.934C60.224,49.752,57.169,53.113,57.169,57.123z M25.582,49.7
		c-0.022,0-0.043,0.003-0.065,0.003c-0.023,0-0.044-0.003-0.068-0.003c-2.403,0-4.402,0.876-5.791,2.23
		c-1.352-1.354-3.387-2.23-5.79-2.23c-0.023,0-0.045,0.003-0.068,0.003c-0.022,0-0.043-0.003-0.065-0.003
		c-4.655,0-7.771,3.304-7.771,7.17v9.687h4.414v-9.086c0-2.6,1.323-4.095,3.351-4.126c2.069,0.032,3.647,1.527,3.647,4.126v9.086
		h4.451v-9.086c0-2.6,1.582-4.094,3.613-4.126c2.063,0.032,3.388,1.527,3.388,4.126v9.086h4.412V56.87
		C33.241,53.003,30.274,49.7,25.582,49.7z M91.096,43c-1.223,0-2.215,0.992-2.215,2.215c0,1.224,0.992,2.215,2.215,2.215
		s2.214-0.991,2.214-2.215C93.311,43.992,92.319,43,91.096,43z"/>
</g>
</svg>
