<?xml version="1.0" encoding="UTF-8" standalone="no"?>
<svg
   xmlns:dc="http://purl.org/dc/elements/1.1/"
   xmlns:cc="http://creativecommons.org/ns#"
   xmlns:rdf="http://www.w3.org/1999/02/22-rdf-syntax-ns#"
   xmlns:svg="http://www.w3.org/2000/svg"
   xmlns="http://www.w3.org/2000/svg"
   viewBox="0 0 579.38666 149.85333"
   height="149.85333"
   width="579.38666"
   xml:space="preserve"
   id="svg2"
   version="1.1"><metadata
     id="metadata8"><rdf:RDF><cc:Work
         rdf:about=""><dc:format>image/svg+xml</dc:format><dc:type
           rdf:resource="http://purl.org/dc/dcmitype/StillImage" /></cc:Work></rdf:RDF></metadata><defs
     id="defs6" /><g
     transform="matrix(1.3333333,0,0,-1.3333333,0,149.85333)"
     id="g10"><g
       transform="scale(0.1)"
       id="g12"><path
         id="path14"
         style="fill:#4f69b3;fill-opacity:1;fill-rule:nonzero;stroke:none"
         d="m 954.297,1123.92 c -31.231,0 -54.676,-14.88 -71.684,-45.49 L 517.031,423.141 151.465,1078.41 c -17.016,30.63 -40.461,45.51 -71.6916,45.51 C 36.5313,1123.92 0,1087.39 0,1044.15 V 88.1602 C 0,44.9297 36.5313,8.39844 79.7734,8.39844 c 43.2426,0 79.7696,36.53126 79.7696,79.76176 V 750.586 l 289.141,-513.82 c 13.304,-23.957 39.496,-38.84 68.347,-38.84 28.86,0 55.051,14.883 68.356,38.84 l 289.14,513.82 V 88.1602 c 0,-43.2305 36.528,-79.76176 79.77,-79.76176 43.234,0 79.763,36.53126 79.763,79.76176 V 1044.15 c 0,43.24 -36.529,79.77 -79.763,79.77" /><path
         id="path16"
         style="fill:#4f69b3;fill-opacity:1;fill-rule:nonzero;stroke:none"
         d="m 1574.35,123.039 c -90.28,0 -197.89,45.297 -197.89,261.07 0,217.137 107.61,262.719 197.89,262.719 90.27,0 197.88,-45.582 197.88,-262.719 0,-215.773 -107.61,-261.07 -197.88,-261.07 z m 0,646.742 c -228.39,0 -349.11,-133.363 -349.11,-385.672 0,-251.234 120.72,-384.030875 349.11,-384.030875 228.39,0 349.1,132.796875 349.1,384.030875 0,252.309 -120.71,385.672 -349.1,385.672" /><path
         id="path18"
         style="fill:#4f69b3;fill-opacity:1;fill-rule:nonzero;stroke:none"
         d="m 3215.89,768.512 c -213.21,0 -312.52,-94.551 -312.52,-297.559 V 83.5586 c 0,-41.9297 32.84,-74.76954 74.77,-74.76954 41.93,0 74.78,32.83984 74.78,74.76954 V 470.953 c 0,109.235 54.84,164.621 162.97,164.621 109.25,0 164.64,-55.386 164.64,-164.621 V 83.5586 c 0,-41.9297 32.84,-74.76954 74.77,-74.76954 41.94,0 74.79,32.83984 74.79,74.76954 V 470.953 c 0,203.008 -99.84,297.559 -314.2,297.559" /><path
         id="path20"
         style="fill:#4f69b3;fill-opacity:1;fill-rule:nonzero;stroke:none"
         d="m 4345.41,79.8516 c 0,15.3789 -5.19,30.3084 -15.43,44.3754 l -253.28,332.539 229.71,175.351 c 16.86,12.961 27.37,34.524 27.37,56.238 0,40.075 -31.4,71.461 -71.47,71.461 -15.42,0 -29,-3.097 -49.05,-18.507 L 3888.19,486.285 v 566.175 c 0,40.74 -32.14,71.46 -74.77,71.46 -43.33,0 -74.79,-30.05 -74.79,-71.46 V 79.8516 c 0,-41.4024 31.46,-71.45316 74.79,-71.45316 42.63,0 74.77,30.72266 74.77,71.45316 V 326.578 l 71.07,55.52 256.88,-344.8167 c 9.9,-13.1797 27.95,-28.88286 57.82,-28.88286 40.06,0 71.45,31.39066 71.45,71.45316" /><path
         id="path22"
         style="fill:#4f69b3;fill-opacity:1;fill-rule:nonzero;stroke:none"
         d="m 2546.93,284.344 c 0,-106.934 -95.1,-164.633 -184.59,-164.633 -133.12,0 -152.99,72.941 -152.99,116.418 0,68.742 47.87,109.777 128.05,109.777 h 209.53 z m -166.28,485.437 c -140.44,0 -219.75,-55.172 -261.55,-101.453 -11.44,-12.711 -17.75,-28.633 -17.75,-44.812 0,-34.817 28.33,-63.145 63.14,-63.145 15.98,0 26.38,3.504 41.2,13.863 44.34,31.914 98.09,65.942 174.96,65.942 102.56,0 166.28,-53.524 166.28,-139.692 v -44.929 h -232.8 c -126.6,0 -254.33,-67.852 -254.33,-219.426 0,-141.1798 102.88,-236.050875 256,-236.050875 0,0 156.8,-6.269535 232.79,92.792975 V 81.5117 c 0,-39.6328 33.49,-73.11326 73.12,-73.11326 39.63,0 73.12,33.48046 73.12,73.11326 V 507.137 c 0,166.914 -114.52,262.644 -314.18,262.644" /></g></g></svg>