<?xml version="1.0" encoding="UTF-8" standalone="no"?>
<svg
   xmlns:dc="http://purl.org/dc/elements/1.1/"
   xmlns:cc="http://creativecommons.org/ns#"
   xmlns:rdf="http://www.w3.org/1999/02/22-rdf-syntax-ns#"
   xmlns:svg="http://www.w3.org/2000/svg"
   xmlns="http://www.w3.org/2000/svg"
   viewBox="0 0 242.93333 44.933334"
   height="44.933334"
   width="242.93333"
   xml:space="preserve"
   id="svg2"
   version="1.1"><metadata
     id="metadata8"><rdf:RDF><cc:Work
         rdf:about=""><dc:format>image/svg+xml</dc:format><dc:type
           rdf:resource="http://purl.org/dc/dcmitype/StillImage" /></cc:Work></rdf:RDF></metadata><defs
     id="defs6"><clipPath
       id="clipPath20"
       clipPathUnits="userSpaceOnUse"><path
         id="path18"
         d="M 0,0 H 1821.98 V 337 H 0 Z" /></clipPath></defs><g
     transform="matrix(1.3333333,0,0,-1.3333333,0,44.933333)"
     id="g10"><g
       transform="scale(0.1)"
       id="g12"><g
         id="g14"><g
           clip-path="url(#clipPath20)"
           id="g16"><path
             id="path22"
             style="fill:#60c336;fill-opacity:1;fill-rule:nonzero;stroke:none"
             d="m 122.699,233.988 c 17.91,0.832 35.754,-0.961 35.754,-0.961 2.996,4.711 -2.012,26.168 -2.012,34.918 0,8.754 1.258,27.086 -2.48,35.414 -8.977,14.789 -38.137,25.836 -60.4219,20.625 C 71.2344,318.773 66.4609,312.531 50.6289,297.883 35.0039,284.195 12.4961,281.273 8.53906,261.281 4.17578,236.07 28.9609,228.594 47.5938,227.742 c 18.6523,-0.836 57.2072,5.414 75.1052,6.246" /><path
             id="path24"
             style="fill:#60c336;fill-opacity:1;fill-rule:nonzero;stroke:none"
             d="m 182.484,329.195 c 47.512,23.125 69.786,-11.461 98.118,-18.965 8.554,-1.242 38.535,-9.156 39.988,-33.468 1.484,-26.942 -43.496,-36.309 -61.836,-38.078 -18.34,-1.778 -77.676,-5.657 -77.676,-5.657 l -12.969,44.082 c 0,0 -15,34.789 14.375,52.086" /><path
             id="path26"
             style="fill:#60c336;fill-opacity:1;fill-rule:nonzero;stroke:none"
             d="m 184.848,216.816 c 0,0 61.945,13.735 99.152,7.539 4.727,-0.785 37.859,-8.492 56.191,-31.289 33.321,-50.73 3.536,-67.617 -9.582,-88.855 -13.125,-21.2501 -38.964,-56.8751 -89.57,-30.2969 -46.875,19.8867 -52.422,73.5269 -52.422,73.5269 l -3.769,69.375" /><path
             id="path28"
             style="fill:#60c336;fill-opacity:1;fill-rule:nonzero;stroke:none"
             d="m 163.746,214.938 c 0,0 18.934,-57.094 17.332,-84.086 C 179.879,120.664 180.512,85.0508 140.746,69.7773 93.3242,54.7266 75.4336,64.8164 41.5859,93.5273 7.71094,122.219 -12.2891,138.164 8.39453,179.859 25.8242,210.66 64.2227,217.754 84.5664,219.828 c 20.3126,2.07 79.1796,-4.89 79.1796,-4.89" /><path
             id="path30"
             style="fill:#171717;fill-opacity:1;fill-rule:nonzero;stroke:none"
             d="m 418.574,69.375 v 222.582 c 0,7.227 2.531,13.371 7.586,18.43 5.063,5.058 11.203,7.828 18.43,8.308 h 49.863 l 49.141,-190.062 49.14,190.062 h 75.879 V 69.375 H 620.918 V 270.277 L 570.332,69.375 H 517.578 L 466.27,270.277 V 69.375 h -47.696" /><path
             id="path32"
             style="fill:#171717;fill-opacity:1;fill-rule:nonzero;stroke:none"
             d="m 739.434,213.91 c -10.118,-11.086 -14.704,-27.582 -13.731,-49.504 0.961,-21.926 5.059,-37.218 12.285,-45.89 2.891,-3.86 7.95,-7.11 15.176,-9.754 7.227,-2.649 14.566,-2.895 22.039,-0.727 7.469,2.168 14.094,7.59 19.875,16.262 5.781,8.672 8.91,22.648 9.395,41.914 0,17.348 -2.778,30.355 -8.313,39.027 -5.539,8.672 -11.922,14.207 -19.148,16.621 -7.227,2.411 -14.453,2.532 -21.68,0.364 -7.227,-2.168 -12.535,-4.946 -15.898,-8.313 z M 704.746,86.7188 c -10.117,8.6718 -17.344,20.3512 -21.68,35.0512 -4.336,14.695 -6.504,29.988 -6.504,45.886 0,13.012 1.805,26.02 5.422,39.028 3.614,13.007 9.27,23.847 16.981,32.519 12.523,14.453 28.656,23.004 48.418,25.656 19.75,2.641 37.578,1.082 53.476,-4.699 18.305,-7.226 31.797,-19.758 40.469,-37.578 8.188,-15.898 12.285,-34.445 12.285,-55.648 0,-15.418 -1.695,-28.661 -5.058,-39.746 -3.375,-11.083 -7.711,-20.477 -13.008,-28.1841 -11.563,-15.8984 -26.266,-25.7695 -44.082,-29.6289 -15.899,-4.3359 -31.918,-4.6953 -48.059,-1.0859 -16.144,3.6171 -29.027,9.7578 -38.66,18.4297" /><path
             id="path34"
             style="fill:#171717;fill-opacity:1;fill-rule:nonzero;stroke:none"
             d="m 1029.22,69.375 h -25.29 c -7.231,0 -13.133,2.2852 -17.707,6.8633 -4.586,4.582 -6.868,10.4805 -6.868,17.707 V 192.23 c 0,11.563 -3.5,19.989 -10.476,25.293 -6.988,5.301 -14.817,7.95 -23.488,7.95 -8.672,0 -16.383,-2.649 -23.125,-7.95 -6.754,-5.304 -10.118,-13.73 -10.118,-25.293 V 69.375 h -50.586 v 112.738 c 0,32.758 8.551,54.672 25.657,65.762 17.093,11.082 36.008,17.098 56.726,18.066 21.196,0 40.707,-5.539 58.535,-16.621 17.82,-11.086 26.74,-33.492 26.74,-67.207 V 69.375" /><path
             id="path36"
             style="fill:#171717;fill-opacity:1;fill-rule:nonzero;stroke:none"
             d="m 1084.14,185.004 h 73.72 c -0.98,13.008 -4.34,22.644 -10.12,28.906 -6.27,6.746 -15.18,10.117 -26.74,10.117 -10.6,0 -19.28,-3.371 -26.02,-10.117 -6.75,-6.754 -10.37,-16.379 -10.84,-28.906 z m 86.72,-56.371 H 1207 c -5.32,-20.235 -15.43,-35.6525 -30.35,-46.2502 -14.95,-11.082 -33.73,-16.6211 -56.37,-16.6211 -27.47,0 -48.91,8.918 -64.32,26.7383 -15.43,17.344 -23.13,42.156 -23.13,74.434 0,30.832 7.47,54.925 22.4,72.269 15.42,17.82 36.86,26.738 64.33,26.738 28.9,0 51.3,-8.671 67.2,-26.015 15.41,-17.824 23.13,-42.637 23.13,-74.438 0,-1.922 0,-3.613 0,-5.058 0,-1.446 0,-2.41 0,-2.891 0,-2.41 -0.26,-4.09 -0.72,-5.059 h -125.03 c 0.47,-14.929 4.09,-26.015 10.84,-33.242 6.26,-7.707 15.65,-11.562 28.19,-11.562 8.18,0 15.17,1.687 20.96,5.058 1.44,0.481 2.75,1.328 3.96,2.532 1.21,1.199 2.54,2.527 3.99,3.972 0.46,1.446 2.28,3.371 5.41,5.782 3.12,2.414 7.59,3.613 13.37,3.613" /><path
             id="path38"
             style="fill:#171717;fill-opacity:1;fill-rule:nonzero;stroke:none"
             d="M 1245.3,1.44531 V 41.1914 h 13.73 c 9.63,0 17.22,2.2969 22.76,6.8672 5.54,4.5898 6.62,11.9219 3.25,22.0391 l -67.2,191.5073 h 55.64 l 39.03,-135.863 33.96,118.52 c 2.89,11.562 10.6,17.343 23.12,17.343 h 34.69 L 1330.57,42.6367 C 1324.79,26.7383 1317.56,15.4219 1308.89,8.67188 1300.22,2.89062 1286,0 1266.26,0 c -1.45,0 -3.14,0 -5.06,0 -1.94,0 -3.62,0 -5.06,0 -1.45,0.488281 -3.25,0.851562 -5.42,1.08594 -2.17,0.24218 -3.98,0.35937 -5.42,0.35937" /><path
             id="path40"
             style="fill:#60c336;fill-opacity:1;fill-rule:nonzero;stroke:none"
             d="m 1597.23,99.0039 c -8.67,-12.5273 -19.03,-21.6797 -31.07,-27.4609 -12.53,-5.293 -26.26,-7.9492 -41.19,-7.9492 -35.66,0 -63.84,11.8085 -84.55,35.4101 -21.21,23.1251 -31.8,54.9221 -31.8,95.3941 0,39.989 10.35,71.543 31.07,94.668 21.68,24.09 50.34,36.133 86,36.133 30.83,0 56.37,-7.472 76.6,-22.402 19.75,-15.899 31.55,-36.613 35.41,-62.149 h -34.69 c -10.11,0 -17.59,4.579 -22.4,13.731 -3.38,5.781 -8.19,11.082 -14.45,15.898 -9.64,6.746 -22.4,10.118 -38.3,10.118 -20.73,0 -37.1,-7.473 -49.14,-22.403 -12.05,-15.898 -18.07,-37.101 -18.07,-63.594 0,-26.988 6.26,-48.175 18.79,-63.597 12.04,-14.934 29.14,-22.403 51.31,-22.403 16.37,0 29.86,4.582 40.47,13.731 10.59,9.641 17.34,22.883 20.23,39.746 h -30.35 c -7.23,0 -13.37,2.531 -18.43,7.59 -5.06,5.058 -7.59,11.203 -7.59,18.43 v 16.621 h 103.34 V 69.375 h -13.73 c -13.49,0 -21.92,6.7461 -25.29,20.2344 l -2.17,9.3945" /><path
             id="path42"
             style="fill:#60c336;fill-opacity:1;fill-rule:nonzero;stroke:none"
             d="m 1707.8,213.91 c -10.12,-11.086 -14.7,-27.582 -13.73,-49.504 0.95,-21.926 5.06,-37.218 12.28,-45.89 2.89,-3.86 7.95,-7.11 15.18,-9.754 7.23,-2.649 14.57,-2.895 22.04,-0.727 7.46,2.168 14.09,7.59 19.87,16.262 5.78,8.672 8.91,22.648 9.4,41.914 0,17.348 -2.78,30.355 -8.31,39.027 -5.55,8.672 -11.93,14.207 -19.15,16.621 -7.23,2.411 -14.46,2.532 -21.68,0.364 -7.23,-2.168 -12.53,-4.946 -15.9,-8.313 z M 1673.11,86.7188 c -10.12,8.6718 -17.34,20.3512 -21.68,35.0512 -4.34,14.695 -6.5,29.988 -6.5,45.886 0,13.012 1.8,26.02 5.42,39.028 3.61,13.007 9.26,23.847 16.98,32.519 12.52,14.453 28.66,23.004 48.42,25.656 19.74,2.641 37.58,1.082 53.47,-4.699 18.3,-7.226 31.8,-19.758 40.47,-37.578 8.19,-15.898 12.29,-34.445 12.29,-55.648 0,-15.418 -1.69,-28.661 -5.06,-39.746 -3.38,-11.083 -7.72,-20.477 -13.01,-28.1841 -11.56,-15.8984 -26.26,-25.7695 -44.08,-29.6289 -15.9,-4.3359 -31.92,-4.6953 -48.06,-1.0859 -16.14,3.6171 -29.03,9.7578 -38.66,18.4297" /></g></g></g></g></svg>