<svg id="Layer_1" data-name="Layer 1" xmlns="http://www.w3.org/2000/svg" xmlns:xlink="http://www.w3.org/1999/xlink" viewBox="0 0 1885.39 591.67"><defs><style>.cls-1{fill:#000000;}.cls-2{fill:#fff;}.cls-3{fill:url(#re2_1);}.cls-4{fill:url(#re2_1-2);}.cls-5{fill:url(#re2_1-3);}</style><radialGradient id="re2_1" cx="426.78" cy="270.36" r="275.11" gradientUnits="userSpaceOnUse"><stop offset="0" stop-color="#faa61a"/><stop offset="0.34" stop-color="#f8941c"/><stop offset="1" stop-color="#f26522"/></radialGradient><radialGradient id="re2_1-2" cx="426.78" cy="270.37" r="275.1" xlink:href="#re2_1"/><radialGradient id="re2_1-3" cx="426.79" cy="270.38" r="275.08" xlink:href="#re2_1"/></defs><title>Artboard 1</title><rect class="cls-1" width="1885.39" height="591.67"/><path class="cls-2" d="M1287.71,178.86a4,4,0,0,1,4,4v74.74c0,2.21,1.53,3,3.4,1.87,0,0,16.61-16.89,45-16.89,37.7,0,73.07,34.7,73.07,87.75,0,54.39-36,89.1-75.75,89.1-19.26,0-33.17-9.45-42.15-18.51-1.3-1.3-3.74-3.31-5.38.07l-5.14,9.58c-1.13,2.52-2.36,3.86-5.73,3.86h-23a4,4,0,0,1-4-4V182.87a4,4,0,0,1,4-4ZM1330.41,279c-18,0-39.37,13.67-39.37,49.37,0,10.35,1.33,17.35,2.68,21.36,8,31.7,35,31.7,38.37,31.7,29.35,0,39-29.7,39.7-51.72C1372.79,296.65,1352.1,279,1330.41,279Z"/><path class="cls-2" d="M1644.1,247.7a5.16,5.16,0,0,1,4.78,3.91s4.87,12,5.93,14.54,3.64,1,4.5-.33c3.68-5.57,16-20.5,44-21.76,2-.1,6.24.56,6.24,4.45V281a4.17,4.17,0,0,1-4,4.13s-19.68.54-32,9.9c-17,13-17.34,30-17.34,57.72v57.73a4,4,0,0,1-4,4h-30.7a4,4,0,0,1-4-4V251.7a4,4,0,0,1,4-4Z"/><path class="cls-3" d="M198.18,247.7a5.14,5.14,0,0,1,4.78,3.91s4.88,12,5.94,14.54,3.65,1,4.5-.33c3.66-5.57,16-20.5,44-21.76,2-.1,6.22.56,6.22,4.45V281a4.16,4.16,0,0,1-4,4.13s-19.69.54-32,9.9c-17,13-17.35,30-17.35,57.72v57.73a4,4,0,0,1-4,4H175.5a4,4,0,0,1-4-4V251.7a4,4,0,0,1,4-4Z"/><path class="cls-2" d="M521.21,251.6a4,4,0,0,1,4-4h23.7c2.2,0,3.41.94,5,3.88l6.08,10.91c.92,1.79,2.75,3.33,4.34,1.72,0,0,17-21.53,49.34-21.53,14.1,0,31.45,4.86,42.81,20.14,3.34,4.52,4.1,4.36,7.93.27,8.6-9.17,24.69-20.41,49-20.41,16.69,0,32.7,4.66,44,17,13.35,14.68,13,32.36,13,49.72V410.43a4,4,0,0,1-4,4h-31.7a4,4,0,0,1-4-4l.22-92.09c0-11.09,2.11-38-28.25-38A33.4,33.4,0,0,0,674.36,296c-7.67,12.35-8.67,25.68-8.67,40v74.4a4,4,0,0,1-4,4H630a4,4,0,0,1-4-4V317.34S626,305,624.64,300c-3-11-11.68-19.67-25.68-19.67-12,0-23.69,7-30.7,19.35-7,13-7.34,28.69-7.34,45v65.73a4,4,0,0,1-4,4h-31.7a4,4,0,0,1-4-4Z"/><path class="cls-2" d="M977.62,251.6a4,4,0,0,1,4-4h23.68c2.21,0,3.41.94,5,3.88l6.07,10.91c.93,1.79,2.77,3.33,4.36,1.72,0,0,17-21.53,49.34-21.53,14.1,0,31.44,4.86,42.81,20.14,3.34,4.52,4.09,4.36,7.93.27,8.57-9.17,24.67-20.41,49-20.41,16.7,0,32.7,4.66,44,17,13.37,14.68,13,32.36,13,49.72V410.43a4,4,0,0,1-4,4h-31.69a4,4,0,0,1-4-4l.23-92.09c0-11.09,2.12-38-28.25-38A33.41,33.41,0,0,0,1130.76,296c-7.68,12.35-8.67,25.68-8.67,40v74.4a4,4,0,0,1-4,4h-31.69a4,4,0,0,1-4-4V317.34s0-12.37-1.34-17.37c-3-11-11.68-19.67-25.69-19.67-12,0-23.7,7-30.7,19.35-7,13-7.33,28.69-7.33,45v65.73a4,4,0,0,1-4,4h-31.7a4,4,0,0,1-4-4Z"/><path class="cls-4" d="M406,359.33c-1.32-1.07-3.93-.56-5.24,1.33,0,0-12.39,19.73-41.09,19.73-41.38,0-46.23-37.8-46.23-37.8-.23-2.22.66-3.58,2.86-3.58H431.76a3.68,3.68,0,0,0,3.72-4s.44-36.79-16.73-61.05c-3.34-5-21.69-31.37-65.74-31.37-47,0-83.09,31.7-83.09,87.75,0,61.41,42.05,89.1,85.76,89.1,51.84,0,74.51-35,74.51-35a3.21,3.21,0,0,0,0-5.11Zm-51.66-84.71c33.54,0,36.74,31.55,36.74,31.55.55,2.52-1.18,3.49-3.38,3.49H317.65c-2.21,0-3.38-1.18-2.74-3.51C314.91,306.15,319.4,274.62,354.35,274.62Z"/><path class="cls-2" d="M927.47,359.33c-1.32-1.07-3.94-.56-5.23,1.33,0,0-12.4,19.73-41.1,19.73-41.39,0-46.24-37.8-46.24-37.8-.23-2.22.66-3.58,2.86-3.58H953.22a3.67,3.67,0,0,0,3.71-4s.44-36.79-16.73-61.05c-3.34-5-21.69-31.37-65.73-31.37-47.05,0-83.09,31.7-83.09,87.75,0,61.41,42,89.1,85.76,89.1,51.83,0,74.52-35,74.52-35a3.21,3.21,0,0,0,0-5.11ZM875.8,274.62c33.55,0,36.75,31.55,36.75,31.55.55,2.52-1.18,3.49-3.38,3.49H839.1c-2.2,0-3.38-1.18-2.73-3.51C836.36,306.15,840.85,274.62,875.8,274.62Z"/><path class="cls-2" d="M1567.47,359.33c-1.31-1.07-3.93-.56-5.23,1.33,0,0-12.41,19.73-41.1,19.73-41.38,0-46.24-37.8-46.24-37.8-.23-2.22.66-3.58,2.87-3.58h115.45a3.67,3.67,0,0,0,3.71-4s.43-36.79-16.72-61.05c-3.33-5-21.69-31.37-65.74-31.37-47,0-83.07,31.7-83.07,87.75,0,61.41,42,89.1,85.74,89.1,51.82,0,74.5-35,74.5-35a3.2,3.2,0,0,0,0-5.11Zm-51.66-84.71c33.53,0,36.73,31.55,36.73,31.55.55,2.52-1.17,3.49-3.36,3.49H1479.1c-2.2,0-3.38-1.18-2.74-3.51C1476.36,306.15,1480.84,274.62,1515.81,274.62Z"/><path class="cls-5" d="M492.82,260.13a4.36,4.36,0,0,1,4.34,4.35v37a4.37,4.37,0,0,1-4.34,4.36H457.47a4.37,4.37,0,0,1-4.34-4.36v-37a4.36,4.36,0,0,1,4.34-4.35Zm0,93.69a4.36,4.36,0,0,1,4.34,4.34v37a4.36,4.36,0,0,1-4.34,4.35H457.47a4.36,4.36,0,0,1-4.34-4.35v-37a4.36,4.36,0,0,1,4.34-4.34Z"/><path class="cls-2" d="M1682.19,395.27h-5.42a.37.37,0,0,0-.39.38v17.88a.39.39,0,0,1-.39.39h-3.43a.39.39,0,0,1-.39-.39V395.65a.37.37,0,0,0-.39-.38h-5.3a.36.36,0,0,1-.39-.38v-3.06a.36.36,0,0,1,.39-.39h15.7a.36.36,0,0,1,.39.39v3.06A.36.36,0,0,1,1682.19,395.27Z"/><path class="cls-2" d="M1708.51,413.91h-3.34a.39.39,0,0,1-.39-.39l.34-17.3c0-.28-.12-.16-.15,0l-4.55,17.3a.56.56,0,0,1-.47.39h-3a.53.53,0,0,1-.47-.39l-4.6-17.34c-.06-.2-.17-.16-.17,0l.36,17.3a.35.35,0,0,1-.34.39h-3.35a.38.38,0,0,1-.38-.39V391.83a.37.37,0,0,1,.38-.39h5.36a.58.58,0,0,1,.48.39l4.09,15.61c.1.32.25.3.34,0l4.05-15.58a.55.55,0,0,1,.48-.39h5.35a.36.36,0,0,1,.37.39v21.69A.38.38,0,0,1,1708.51,413.91Z"/></svg>