<?xml version="1.0" encoding="UTF-8" standalone="no"?>
<svg
   xmlns:dc="http://purl.org/dc/elements/1.1/"
   xmlns:cc="http://creativecommons.org/ns#"
   xmlns:rdf="http://www.w3.org/1999/02/22-rdf-syntax-ns#"
   xmlns:svg="http://www.w3.org/2000/svg"
   xmlns="http://www.w3.org/2000/svg"
   viewBox="0 0 227.41251 84.449997"
   height="84.449997"
   width="227.41251"
   xml:space="preserve"
   version="1.1"
   id="svg2"><metadata
     id="metadata8"><rdf:RDF><cc:Work
         rdf:about=""><dc:format>image/svg+xml</dc:format><dc:type
           rdf:resource="http://purl.org/dc/dcmitype/StillImage" /></cc:Work></rdf:RDF></metadata><defs
     id="defs6"><clipPath
       id="clipPath18"
       clipPathUnits="userSpaceOnUse"><path
         id="path20"
         d="m 0,0 1819,0 0,675.59 -1819,0 L 0,0 Z" /></clipPath></defs><g
     transform="matrix(1.25,0,0,-1.25,0,84.45)"
     id="g10"><g
       transform="scale(0.1,0.1)"
       id="g12"><g
         id="g14"><g
           clip-path="url(#clipPath18)"
           id="g16"><path
             id="path22"
             style="fill:#072748;fill-opacity:1;fill-rule:nonzero;stroke:none"
             d="m 1028.96,94.9609 c -4.61,-4.8828 -7.19,-11.8359 -7.75,-20.8203 l 70.45,0.1758 0,-21.0547 -70.61,0 c 0,-4.2773 0.47,-8.3789 1.43,-12.3047 0.95,-3.9453 2.89,-7.539 5.82,-10.7812 2.57,-3.0469 5.64,-4.9219 9.18,-5.6445 3.53,-0.7422 7.16,-1.0938 10.85,-1.0938 0.24,0 0.49,0 0.77,0 0.27,0 0.52,0 0.76,0 l 41.8,0.1563 0,-21.05474 -42.97,0 c -6.86,0 -13.46,0.60547 -19.81,1.85547 -6.35,1.23047 -12.32,4.10156 -17.95,8.59377 -6.74,5.4883 -11.461,12.207 -14.157,20.1367 -2.695,7.9102 -4.14,16.0352 -4.375,24.3359 -0.117,1.7969 -0.136,3.5352 -0.078,5.2344 0.059,1.6797 0.137,3.3594 0.254,5.0586 1.231,19.082 6.426,33.1251 15.586,42.1091 9.14,8.985 22.89,13.477 41.19,13.477 l 42.31,0.176 0,-21.055 -41.8,0 c -9.32,-0.117 -16.29,-2.6172 -20.9,-7.5001" /><path
             id="path24"
             style="fill:#072748;fill-opacity:1;fill-rule:nonzero;stroke:none"
             d="m 1139.33,123.516 0,-58.1254 47.7,58.1254 30.48,0 -48.53,-59.141 49.04,-61.83594 -32.52,0 -46.17,60.15624 0,-60.15624 -25.45,0 0,120.97694 25.45,0" /><path
             id="path26"
             style="fill:#072748;fill-opacity:1;fill-rule:nonzero;stroke:none"
             d="m 1248.86,81.2305 c -0.78,-3.0469 -1.35,-6.0938 -1.68,-9.1797 -0.35,-3.1055 -0.51,-6.1524 -0.51,-9.1992 0,-3.1446 0.2,-6.25 0.59,-9.336 0.39,-3.1054 0.92,-6.1133 1.6,-9.0234 1.23,-5.1758 3.28,-9.668 6.15,-13.4766 2.86,-3.8281 6.88,-6.6406 12.06,-8.4375 1.89,-0.664 3.92,-1.1718 6.05,-1.5039 2.13,-0.332 4.28,-0.5078 6.41,-0.5078 2.13,0 4.27,0.1758 6.4,0.5078 2.13,0.3321 4.16,0.8399 6.06,1.5039 5.17,1.7969 9.22,4.6094 12.15,8.4375 2.91,3.8086 4.94,8.3008 6.05,13.4766 0.68,2.9101 1.21,5.918 1.6,9.0234 0.39,3.086 0.59,6.1914 0.59,9.336 0,3.0468 -0.2,6.0937 -0.59,9.1992 -0.39,3.0859 -0.92,6.0742 -1.6,9.0039 -1.11,5.1562 -3.14,9.6875 -6.05,13.5742 -2.93,3.8672 -6.98,6.6411 -12.15,8.3401 -1.9,0.664 -3.93,1.172 -6.06,1.504 -2.13,0.332 -4.27,0.507 -6.4,0.507 -2.13,0 -4.28,-0.175 -6.41,-0.507 -2.13,-0.332 -4.16,-0.84 -6.05,-1.504 -5.18,-1.817 -9.16,-4.6096 -11.98,-8.4377 -2.81,-3.8086 -4.88,-8.3204 -6.23,-13.4766 l 0,0.1758 z m -26.29,8.5937 c 2.91,8.8672 7.21,16.0938 12.89,21.6408 5.67,5.566 13.11,9.531 22.33,11.875 3.38,0.801 6.85,1.406 10.45,1.855 3.59,0.45 7.18,0.684 10.78,0.684 3.83,0.117 7.69,-0.059 11.62,-0.508 3.94,-0.449 7.69,-1.172 11.31,-2.187 8.98,-2.246 16.33,-6.192 22.07,-11.797 5.72,-5.625 9.94,-12.8714 12.64,-21.7386 1.11,-4.0429 1.99,-8.3203 2.59,-12.8125 0.63,-4.4921 0.94,-8.9843 0.94,-13.4765 0,-4.8242 -0.27,-9.5508 -0.84,-14.1406 -0.57,-4.6094 -1.46,-9.004 -2.69,-13.1446 -2.7,-9.1015 -6.98,-16.4453 -12.82,-21.9922 C 1318,8.51563 1310.48,4.66797 1301.26,2.53906 1297.67,1.64063 1293.96,0.996094 1290.15,0.605469 1286.32,0.195313 1282.46,0 1278.51,0 c -3.48,0 -6.95,0.234375 -10.45,0.683594 -3.48,0.449216 -6.89,1.074216 -10.27,1.855466 -9.1,2.12891 -16.56,5.97657 -22.4,11.54294 -5.84,5.5469 -10.12,12.8907 -12.82,21.9922 -1.13,3.9258 -1.99,8.1836 -2.61,12.793 -0.61,4.6094 -0.92,9.2773 -0.92,13.9844 0,4.7265 0.27,9.414 0.84,14.082 0.56,4.6484 1.46,8.8867 2.69,12.7148 l 0,0.1758" /><path
             id="path28"
             style="fill:#072748;fill-opacity:1;fill-rule:nonzero;stroke:none"
             d="m 1389.39,123.516 49.55,-86.9535 -1.19,86.9535 25.96,0 0,-120.97694 -29.5,0 -52.07,91.48434 1.19,-91.48434 -26.13,0 0,120.97694 32.19,0" /><path
             id="path30"
             style="fill:#072748;fill-opacity:1;fill-rule:nonzero;stroke:none"
             d="m 1510.21,81.2305 c -0.78,-3.0469 -1.35,-6.0938 -1.68,-9.1797 -0.33,-3.1055 -0.51,-6.1524 -0.51,-9.1992 0,-3.1446 0.2,-6.25 0.59,-9.336 0.39,-3.1054 0.94,-6.1133 1.6,-9.0234 1.23,-5.1758 3.28,-9.668 6.15,-13.4766 2.87,-3.8281 6.88,-6.6406 12.05,-8.4375 1.92,-0.664 3.93,-1.1718 6.06,-1.5039 2.15,-0.332 4.27,-0.5078 6.4,-0.5078 2.13,0 4.28,0.1758 6.41,0.5078 2.13,0.3321 4.16,0.8399 6.07,1.5039 5.16,1.7969 9.2,4.6094 12.13,8.4375 2.91,3.8086 4.94,8.3008 6.06,13.4766 0.68,2.9101 1.21,5.918 1.6,9.0234 0.41,3.086 0.6,6.1914 0.6,9.336 0,3.0468 -0.19,6.0937 -0.6,9.1992 -0.39,3.0859 -0.92,6.0742 -1.6,9.0039 -1.12,5.1562 -3.15,9.6875 -6.06,13.5742 -2.93,3.8672 -6.97,6.6411 -12.13,8.3401 -1.91,0.664 -3.94,1.172 -6.07,1.504 -2.13,0.332 -4.28,0.507 -6.41,0.507 -2.13,0 -4.25,-0.175 -6.4,-0.507 -2.13,-0.332 -4.14,-0.84 -6.06,-1.504 -5.17,-1.817 -9.16,-4.6096 -11.97,-8.4377 -2.81,-3.8086 -4.88,-8.3204 -6.23,-13.4766 l 0,0.1758 z m -26.29,8.5937 c 2.93,8.8672 7.23,16.0938 12.89,21.6408 5.68,5.566 13.13,9.531 22.33,11.875 3.37,0.801 6.85,1.406 10.44,1.855 3.6,0.45 7.19,0.684 10.79,0.684 3.82,0.117 7.69,-0.059 11.64,-0.508 3.92,-0.449 7.69,-1.172 11.29,-2.187 8.98,-2.246 16.34,-6.192 22.07,-11.797 5.72,-5.625 9.94,-12.8714 12.63,-21.7386 1.12,-4.0429 1.99,-8.3203 2.62,-12.8125 0.61,-4.4921 0.92,-8.9843 0.92,-13.4765 0,-4.8242 -0.28,-9.5508 -0.84,-14.1406 -0.57,-4.6094 -1.47,-9.004 -2.7,-13.1446 -2.69,-9.1015 -6.97,-16.4453 -12.81,-21.9922 -5.84,-5.56637 -13.36,-9.41403 -22.58,-11.54294 -3.59,-0.89843 -7.3,-1.542966 -11.11,-1.933591 C 1547.67,0.195313 1543.8,0 1539.88,0 c -3.5,0 -6.97,0.234375 -10.45,0.683594 -3.5,0.449216 -6.92,1.074216 -10.29,1.855466 -9.11,2.12891 -16.57,5.97657 -22.41,11.54294 -5.84,5.5469 -10.11,12.8907 -12.81,21.9922 -1.11,3.9258 -1.99,8.1836 -2.6,12.793 -0.62,4.6094 -0.93,9.2773 -0.93,13.9844 0,4.7265 0.27,9.414 0.84,14.082 0.56,4.6484 1.46,8.8867 2.69,12.7148 l 0,0.1758" /><path
             id="path32"
             style="fill:#072748;fill-opacity:1;fill-rule:nonzero;stroke:none"
             d="m 1655.97,123.516 30.84,-92.8324 30.82,92.8324 37.25,0 0,-120.97694 -24.94,0 2.03,94.17974 -31.02,-94.17974 -26.95,0 -32.01,95.19534 2.52,-95.19534 -25.94,0 0,120.97694 37.4,0" /><path
             id="path34"
             style="fill:#072748;fill-opacity:1;fill-rule:nonzero;stroke:none"
             d="m 1779.98,2.53906 26.6406,0 0,120.977 -26.6406,0 0,-120.977 z" /><path
             id="path36"
             style="fill:#072748;fill-opacity:1;fill-rule:nonzero;stroke:none"
             d="m 290.195,489.301 -124.179,0 c -44.93,0 -50.125,22.519 -50.125,39.453 0,35.195 18.297,49.551 63.172,49.551 l 240.546,0 0,97.277 -254.211,0 C 52.5586,675.582 0,629.34 0,530.043 0,436.715 49.9883,393.246 157.324,393.246 l 110.547,0 c 43.516,0 57.488,-10.371 57.488,-42.695 0,-26.84 -10.164,-41.391 -63.738,-41.391 l -243.6132,0 0,-97.246 258.5232,0 c 112.434,0 164.809,45.274 164.809,142.445 0,95.852 -43.789,134.942 -151.145,134.942" /><path
             id="path38"
             style="fill:#072748;fill-opacity:1;fill-rule:nonzero;stroke:none"
             d="M 818.633,675.59 687.422,357.992 559.211,675.59 l -125.813,0 202.149,-463.715 108.633,0 193.746,463.715 -119.293,0" /><path
             id="path40"
             style="fill:#072748;fill-opacity:1;fill-rule:nonzero;stroke:none"
             d="m 1131.99,580.152 162.91,0 0,95.438 -164.79,0 c -149.294,0 -218.821,-76.231 -218.821,-239.902 0,-84.52 23.453,-144.262 71.676,-182.622 47.445,-38.066 93.595,-41.171 144.665,-41.171 l 167.27,0 0,95.41 -162.91,0 c -67.39,0 -94.42,24.996 -97.09,91.5 l 260,0 0,95.418 -258.87,0 c 5.8,58.554 36.48,85.929 95.96,85.929" /><path
             id="path42"
             style="fill:#072748;fill-opacity:1;fill-rule:nonzero;stroke:none"
             d="m 1510.03,415.395 52.46,137.851 54.5,-137.851 -106.96,0 z m 0.51,260.195 -196.35,-463.715 118.91,0 39.79,106.25 181.48,0 40.98,-106.25 123.94,0 -197.71,463.715 -111.04,0" /><path
             id="path44"
             style="fill:#2bb9cd;fill-opacity:1;fill-rule:nonzero;stroke:none"
             d="m 15.0586,3.28125 908.746,0 0,120.234 -908.746,0 0,-120.234 z" /></g></g></g></g></svg>