<?xml version="1.0" encoding="UTF-8" standalone="no"?>
<svg
   xmlns:dc="http://purl.org/dc/elements/1.1/"
   xmlns:cc="http://creativecommons.org/ns#"
   xmlns:rdf="http://www.w3.org/1999/02/22-rdf-syntax-ns#"
   xmlns:svg="http://www.w3.org/2000/svg"
   xmlns="http://www.w3.org/2000/svg"
   viewBox="0 0 483.50668 60.466667"
   height="60.466667"
   width="483.50668"
   xml:space="preserve"
   id="svg2"
   version="1.1"><metadata
     id="metadata8"><rdf:RDF><cc:Work
         rdf:about=""><dc:format>image/svg+xml</dc:format><dc:type
           rdf:resource="http://purl.org/dc/dcmitype/StillImage" /></cc:Work></rdf:RDF></metadata><defs
     id="defs6" /><g
     transform="matrix(1.3333333,0,0,-1.3333333,0,60.466667)"
     id="g10"><g
       transform="scale(0.1)"
       id="g12"><path
         id="path14"
         style="fill:#1c63b7;fill-opacity:1;fill-rule:nonzero;stroke:none"
         d="m 1014.76,212.539 c -14.3,66.621 -43.549,80.371 -72.123,80.371 -35.742,0 -49.407,-25.508 -49.407,-42.5 0,-13.047 3.911,-31.992 27.942,-46.387 l 70.144,-41.796 c 31.744,-19.59 54.394,-37.891 54.394,-77.1098 0,-56.8359 -52.456,-84.218762 -94.179,-84.218762 -29.312,0 -57.332,12.382862 -75.554,11.738262 -7.84,0 -10.418,-1.9531 -14.344,-7.18748 H 853.34 V 106.699 h 10.234 c 7.844,-34.6092 20.203,-91.4842 84.043,-91.4842 22.18,0 52.823,10.4688 52.823,47.6954 0,20.9375 -13.03,36.6015 -33.885,48.3788 l -37.578,21.563 c -40.325,22.851 -76.34,47.031 -76.34,95.351 0,36.582 28.156,79.668 91.281,79.668 28.582,0 48.738,-13.027 59.772,-13.027 5.84,0 9.12,4.551 11.07,6.328 h 7 l 2.6,-88.633 h -9.6" /><path
         id="path16"
         style="fill:#1c63b7;fill-opacity:1;fill-rule:nonzero;stroke:none"
         d="m 1921.19,225.762 c 0,38.515 -12.38,39.16 -22.81,39.16 -9.1,0 -16.29,-1.309 -22.13,-2.598 v 10.156 c 31.91,10.43 64.59,22.168 96.62,35.391 l 3.24,-1.308 v -58.125 h 1.33 c 30.63,46.367 52.77,59.433 77.58,59.433 22.13,0 35.19,-13.711 35.19,-35.273 0,-16.309 -9.14,-28.711 -24.8,-28.711 -22.81,0 -29.34,22.832 -44.96,23.301 -15.65,0 -44.34,-32.696 -44.34,-53.614 V 66.4258 c 0,-45.0391 22.19,-47.6367 55.41,-48.9453 V 7.69531 h -156.58 v 9.78519 c 35.82,6.5429 46.25,8.4765 46.25,45.0195 v 163.262" /><path
         id="path18"
         style="fill:#1c63b7;fill-opacity:1;fill-rule:nonzero;stroke:none"
         d="m 2689.04,17.4805 c 40.39,1.9531 51.53,5.8593 51.53,56.6406 V 225.176 c 0,38.398 -12.43,39.082 -22.84,39.082 -9.14,0 -17.61,-1.309 -26.07,-2.617 v 10.019 c 33.87,11.211 67.19,23.731 101.19,36.289 l 2.6,-2.011 V 74.1211 c 0,-42.9883 3.26,-54.043 48.24,-56.6406 V 7.69531 h -154.65 z m 75.78,435.2735 c 19.5,0 33.83,-14.961 33.83,-33.184 0,-18.828 -14.33,-33.183 -33.83,-33.183 -23.43,0 -32.57,20.84 -32.57,33.183 0,12.383 9.78,33.184 32.57,33.184" /><path
         id="path20"
         style="fill:#1c63b7;fill-opacity:1;fill-rule:nonzero;stroke:none"
         d="m 723.516,87.4023 c 0,-19.5507 -1.961,-27.3632 -22.176,-37.1484 -5.86,-3.2422 -26.086,-11.7383 -40.422,-11.7383 -24.141,0 -43.027,20.2149 -43.027,50.8594 v 1.3086 c 0,22.1484 7.168,58.6714 105.625,91.2694 z M 824.531,50.2539 c -7.176,-5.8594 -15.636,-12.3828 -29.336,-12.3828 -18.894,0 -18.894,18.8867 -18.894,37.8125 V 202.969 c 0,39.316 0,104.902 -97.121,104.902 -75.801,0 -106.504,-46.543 -106.504,-72.754 0,-10.527 7.859,-28.906 28.078,-28.906 16.98,0 29.383,14.453 29.383,28.203 0,5.918 -3.262,15.762 -3.262,25.586 0,20.332 24.805,32.188 46.355,32.188 19.583,0 50.286,-7.247 50.286,-54.473 v -40 C 617.219,155.859 560.559,133.73 560.559,68.5156 c 0,-43.6328 33.855,-67.617162 69.058,-67.617162 35.879,0 70.442,25.957062 94.543,47.382862 3.25,-46.75786 30.637,-47.382862 42.332,-47.382862 10.442,0 30.664,0.625002 58.039,32.421862 v 16.9336" /><path
         id="path22"
         style="fill:#1c63b7;fill-opacity:1;fill-rule:nonzero;stroke:none"
         d="m 1244.34,87.4023 c 0,-19.5507 -1.96,-27.3632 -22.18,-37.1484 -5.86,-3.2422 -26.08,-11.7383 -40.4,-11.7383 -24.14,0 -43.04,20.2149 -43.04,50.8594 v 1.3086 c 0,22.1484 7.18,58.6714 105.62,91.2694 z m 101.02,-37.1484 c -7.16,-5.8594 -15.64,-12.3828 -29.32,-12.3828 -18.9,0 -18.9,18.8867 -18.9,37.8125 V 202.969 c 0,39.316 0,104.902 -97.12,104.902 -75.82,0 -106.52,-46.543 -106.52,-72.754 0,-10.527 7.86,-28.906 28.08,-28.906 16.97,0 29.38,14.453 29.38,28.203 0,5.918 -3.26,15.762 -3.26,25.586 0,20.332 24.8,32.188 46.36,32.188 19.58,0 50.28,-7.247 50.28,-54.473 v -40 c -106.3,-41.856 -162.96,-63.985 -162.96,-129.1994 0,-43.6328 33.88,-67.617162 69.08,-67.617162 35.86,0 70.42,25.957062 94.52,47.382862 3.26,-46.75786 30.64,-47.382862 42.36,-47.382862 10.44,0 30.66,0.625002 58.02,32.421862 v 16.9336" /><path
         id="path24"
         style="fill:#1c63b7;fill-opacity:1;fill-rule:nonzero;stroke:none"
         d="M 2355.25,110.273 C 2348.73,90.0586 2310.88,1.30859 2216.93,1.30859 c -72.46,0 -122.05,53.49611 -122.05,146.17141 0,120.704 80.94,160.508 133.15,160.508 61.33,0 107.65,-33.925 114.8,-119.414 h -202.91 c 7.83,-115.4881 60.69,-142.2459 103.77,-142.2459 58.05,0 86.11,44.3555 101.13,68.5159 z m -78.94,99.18 c -4.59,31.348 -11.1,75.039 -62.66,75.039 -35.86,0 -61.31,-17.597 -71.76,-75.039 h 134.42" /><path
         id="path26"
         style="fill:#1c63b7;fill-opacity:1;fill-rule:nonzero;stroke:none"
         d="m 2679,34.8828 c -31.36,-11.0937 -61.42,-21.582 -96.01,-33.964831 l -2.62,1.972661 V 42.7148 h -1.31 C 2567.3,25.0586 2543.13,0.917969 2494.8,0.917969 c -25.44,0 -118.88,13.046831 -118.88,146.309031 0,85.566 62.03,160.664 135.19,160.664 28.11,0 47.66,-9.161 69.26,-28.086 V 381.68 c 0,19.59 0,33.3 -28.73,33.3 -3.96,0 -10.45,0 -15.68,-0.605 v 10.41 c 32.65,8.496 64.63,17.656 95.97,28.75 l 3.32,-1.328 V 81.9141 c 0,-26.7969 0,-39.8438 43.75,-36.5625 z m -98.63,189.3942 c -4.59,44.453 -36.6,65.313 -67.24,65.313 -36.63,0 -81.04,-32.012 -81.04,-120.82 0,-97.3052 47.03,-133.8872 90.14,-133.8872 27.46,0 52.91,15.6641 58.14,39.1602 v 150.234" /><path
         id="path28"
         style="fill:#1c63b7;fill-opacity:1;fill-rule:nonzero;stroke:none"
         d="m 1705.27,439.746 h 170.96 v -12.383 c -39.14,-3.242 -52.81,-5.254 -99.14,-50.918 L 1649.57,250.273 1801.62,87.168 C 1844,40.1953 1870.37,18.8867 1907.56,20.1758 V 7.79297 H 1708.54 V 20.1758 c 34.59,1.3086 45.67,1.9726 45.67,16.3281 0,20.2539 -62.64,87.4021 -84.8,109.6481 l -69.19,68.477 -16.93,-13.652 V 78.9063 c 0,-45.7032 7.82,-56.1133 58.7,-58.7305 V 7.79297 H 1463.67 V 20.1758 c 50.88,2.6172 58.7,12.4023 58.7,65.918 V 368.652 c 0,50.879 -14.32,55.469 -58.7,58.711 v 12.383 h 179.62 v -12.383 c -50.9,-3.242 -60,-10.429 -60,-58.711 V 234.844 c 147.42,132.48 166.36,150.078 166.36,172.304 0,17.618 -12.4,18.926 -44.38,20.215 v 12.383" /><path
         id="path30"
         style="fill:#1c63b7;fill-opacity:1;fill-rule:nonzero;stroke:none"
         d="m 3013.46,280.43 h -65.9 V 93.8281 c 0,-20.2343 0,-58.7109 33.24,-58.7109 20.9,0 32.66,14.3359 39.84,22.832 l 8.44,-7.207 c -15.62,-28.0469 -46.29,-49.55079 -76.33,-49.55079 -33.26,0 -60.02,17.59769 -60.02,82.83199 V 280.43 h -34.59 c -1.3,0.644 -2.57,2.578 -2.57,4.55 0,7.833 14.33,11.758 28.69,26.094 24.78,25.449 34.59,39.824 58.69,74.375 4.61,0 4.61,-3.222 4.61,-8.457 v -75.703 h 65.9 V 280.43" /><path
         id="path32"
         style="fill:#1c63b7;fill-opacity:1;fill-rule:nonzero;stroke:none"
         d="m 159.785,439.121 v -12.09 c -12.961,-0.449 -22.18,-1.601 -27.707,-3.496 -9.773,-3.633 -14.656,-10.215 -14.656,-19.746 0,-4.258 0.586,-8.379 1.758,-12.422 1.164,-4.043 2.922,-9.219 5.261,-15.605 l 94.297,-245.176 68.926,182.715 -30.496,79.922 c -5.742,14.472 -14.348,24.121 -25.801,29.023 -6.789,2.988 -17.097,4.57 -30.887,4.785 v 12.09 h 174.61 v -12.09 c -16.352,-0.215 -27.61,-1.386 -33.742,-3.496 -9.766,-3.633 -14.668,-11.055 -14.668,-22.285 0,-3.848 0.437,-7.187 1.281,-10.039 0.84,-2.871 2.984,-8.77 6.363,-17.676 l 94.262,-244.531 81.582,221.289 c 4.676,12.52 7.859,23.672 9.559,33.437 1.054,5.508 1.601,9.981 1.601,13.36 0,12.09 -5.742,20.469 -17.207,25.156 -6.355,2.754 -15.918,4.336 -28.66,4.785 v 12.09 h 129.461 v -12.09 c -11.68,-1.699 -20.598,-4.355 -26.758,-7.988 -11.023,-6.152 -19.297,-16.777 -24.824,-31.855 L 485.059,192.793 458.723,117.773 417.383,0.0585938 H 407.324 L 378.801,74.6875 303.32,275.527 203.145,0.0585938 H 193.32 L 144.727,135.117 89.7266,288.008 C 67.0391,351.016 51.2188,389.648 42.207,403.965 33.1836,418.262 19.1211,425.977 0,427.031 v 12.09 h 159.785" /><path
         id="path34"
         style="fill:#1c63b7;fill-opacity:1;fill-rule:nonzero;stroke:none"
         d="M 3187.21,439.082 V 0 h 280.78 v 122.578 h -158.2 v 316.504 h -122.58" /><path
         id="path36"
         style="fill:#1c63b7;fill-opacity:1;fill-rule:nonzero;stroke:none"
         d="m 3345.49,439.082 h 280.84 V 0 h -122.64 v 316.504 h -158.2 v 122.578" /><path
         id="path38"
         style="fill:#ed1c24;fill-opacity:1;fill-rule:nonzero;stroke:none"
         d="m 3345.49,281.602 h 122.52 V 158.223 h -122.52 v 123.379" /></g></g></svg>