<svg xmlns="http://www.w3.org/2000/svg" viewBox="-298 406.5 822 136.1"><style>.st0{fill:#2B6481;} .st1{fill:#FFFFFF;} .st2{fill:#D61F27;}</style><switch><g><path d="M466.6 492.3c1.6 1.3 3.6 1.9 6 1.9 5.8 0 8.6-2.7 8.6-7.8 0-2.2-.9-4-2.6-5.4-1.7-1.5-3.8-2.2-6.1-2.2s-4.3.7-6 2.1c-2 1.4-2.9 3.3-2.8 5.5.1 2.6 1.1 4.5 2.9 5.9zm-61.9-13.5c-9 0-16.4 3.1-21.9 9.1-5.4 5.8-8 13.3-7.9 22.5-.1 9.3 2.9 16.9 8.8 22.4 5.9 5.6 13.5 8.3 23 8.3 10.3 0 17.9-2.7 22.7-7.8.6-.7.9-1.2.9-1.5 0-1-1-3.3-2.9-6.9-2-3.7-3.4-5.7-4.2-6.1-1.7.9-3.2 1.8-4.7 2.9-3.6 1.9-7.1 2.9-10.5 2.9-3.1 0-5.8-.5-8.1-1.7-2.9-1.4-4.5-3.4-5-6 9.4-.7 16.4-1.3 21.2-1.9 7.8-.8 11.9-1.2 12.3-1.3 2.6-.6 3.9-2.9 3.9-6.9 0-7.7-2.7-14.4-7.9-19.9-5.4-5.6-11.9-8.3-19.7-8.1zm4.6 25.4c-6.3 1-10.8 1.5-13.7 1.6-1.1-.1-1.7-.6-1.7-1.7 0-2.7.7-5.1 2.3-6.9 1.6-2.2 3.8-3.2 6.4-3.1 2.5 0 4.5 1 6.3 2.9 1.7 1.7 2.6 3.9 2.6 6.3-.1.4-.8.7-2.2.9zm-285.5-24.7c-5.9 0-10.5 1.9-14 5.8-.4.3-.8.4-1.2.4-.7-.1-1-.7-1-1.9 0-6.9.1-12.3.4-16.2 0-1 .1-3 .4-6.1.1-2.7.2-4.8.3-6.3-.1-1.3-.5-1.9-1.2-1.9-2.7 0-6.2.2-10.4.6-6.2.7-9.6 1-10.3 1-1.3 0-1.9.3-1.9 1l.1.7c1.2 12.5 1.8 27.3 1.8 44.3 0 17.8-.4 29.8-1.2 36.1-.1.5-.1.8-.1.9 0 1 1.3 1.5 3.8 1.6 10.7 0 16.4-.2 17.1-.4.5-.1.9-.9 1.3-2.5.3-1.5.6-2.3 1-2.3.2 0 .4.2.7.6 3.7 3.4 8.5 5.1 14.5 5.1 8.1 0 14.9-3 20.1-8.9 4.7-5.7 7.1-12.7 7.1-20.9 0-9.1-2.2-16.4-6.8-21.7-5-6-11.9-9-20.5-9zm2.6 38.4c-2.1 2.3-4.8 3.5-8.1 3.5-3.5 0-6.2-1.1-7.9-3.3-2-2.2-2.9-5.1-2.8-8.5-.1-3.5.9-6.3 2.8-8.5 1.9-2.4 4.6-3.5 7.9-3.4 3.2 0 5.9 1.1 7.9 3.4s3 5.1 3 8.3c0 3.5-1 6.4-2.8 8.5zm87.4-62.7h-21.3c-1 0-1.6.5-1.7 1.5 0 .2.1.5.1 1 .9 6.3 1.4 14 1.5 22.7v23c-.1 3.5-.2 8.7-.3 15.9-.2 7-.2 12.3-.2 15.9v2.6c.1.9.6 1.4 1.5 1.6 1.4.3 4.5.4 9.4.4 4.6 0 7.7-.1 9.5-.4 1-.2 1.5-.7 1.6-1.5-.1-1.2-.2-2.8-.3-4.8-.1-2.2-.1-3.8-.1-4.8-.1-5.9-.1-14.2-.1-25 0-13.3.6-28.5 1.8-45.6v-1c.1-.9-.3-1.4-1.4-1.5zm-33.4 27.3c-1.2 0-3 .1-5.4.3-2.3.2-4 .3-5.1.3-1.2-.1-2.9-.2-5.1-.4-2.4-.3-4.2-.4-5.4-.3-1.1.1-1.7.5-1.8 1.4 0 .1.1.5.2 1.2.9 6.6 1.4 15.7 1.5 26.9-.1 2.8-.2 7-.3 12.7 0 5.6-.1 9.6-.1 12.3 0 1.1.1 1.7.2 1.9.2.3.7.5 1.6.7 1.3.2 4.4.3 9.2.3 4.8 0 7.7-.1 9.1-.3 1.1-.2 1.6-.7 1.6-1.5-.1-2.9-.2-7.2-.3-12.9-.1-5.9-.1-10.3-.1-13.3 0-10.2.5-19.1 1.5-26.9v-1.2c.2-.8-.3-1.2-1.3-1.2zm139.3 2c-1.7-.6-4.5-1.3-8.3-2-4.3-1-7.1-1.5-8.5-1.5-.7-.1-1.2 1-1.9 3-.4 1.9-.7 2.9-1 2.9-.2 0-.4-.1-.6-.4-3.5-4.4-8.4-6.5-14.7-6.5-9 0-16.1 3-21.3 8.8-5.1 5.7-7.5 13-7.5 22.1-.1 7.9 2.3 14.9 7.1 20.6 5.1 6.1 11.5 9.1 19.4 9.1 5.2 0 9.9-2.2 14.5-6.6.5-.6.9-1 1.2-1.2.3.1.6 1.4.9 3.7.3 2.2.9 3.4 1.8 3.5 6.3 0 11.9-.2 16.9-.6 1.5-.2 2.2-1.1 2.2-2.6 0-3-.2-7.5-.6-13.6-.4-6.1-.6-10.6-.6-13.7 0-8 .6-15.7 1.9-22.9.1-.7.2-1.1.3-1.2-.2-.4-.5-.7-1.2-.9zM296 518.1c-2.1 2.3-4.9 3.4-8.2 3.4-3.2 0-6-1.2-8.1-3.5-2.2-2.3-3.4-5.1-3.5-8.3 0-3.5 1.1-6.2 3.2-8.3 2.2-2.3 5-3.4 8.4-3.4 3.5 0 6.3 1.2 8.4 3.5 2.1 2.2 3.2 4.9 3.1 8.1 0 3.5-1.1 6.4-3.3 8.5zm-49.2-35.5c-1.1 0-2.9.1-5.2.3-2.3.2-4 .3-5.2.3l-5.5-.3c-2.3-.3-4-.4-5.2-.3-1.1 0-1.6.4-1.5 1.3-.1.1-.1.5 0 1.2.9 6.6 1.4 15.7 1.5 26.9 0 2.8 0 7-.1 12.7-.2 5.6-.3 9.6-.3 12.3 0 1.1.1 1.7.2 1.9.2.3.7.5 1.6.7 1.3.2 4.4.3 9.2.3 4.8 0 7.7-.1 9.1-.3 1.1-.2 1.6-.7 1.6-1.5 0-2.9 0-7.2-.1-12.9-.2-5.9-.3-10.3-.3-13.3 0-10.2.4-19.1 1.3-26.9.2-.7.2-1.1.2-1.2.2-.8-.3-1.2-1.3-1.2zm233.5 15.2c-.9-.1-2.3-.1-3.9.2-1.7.1-3 .1-3.9.1-.9 0-2.2 0-3.8-.1-1.7-.3-3-.4-3.9-.3-.8-.1-1.2.2-1.2.9 0 .1.1.4.2 1 .7 5 1 11.6 1 19.9-.1 2-.2 5.1-.3 9.2-.1 4.1-.1 7.1 0 9.1-.1.8-.1 1.2 0 1.3.2.3.6.5 1.3.6.9.2 3.2.3 6.8.3 3.5 0 5.7-.1 6.7-.3.8-.2 1.2-.6 1.3-1.2 0-2.1-.1-5.3-.2-9.5s-.1-7.4-.1-9.5c0-7.6.3-14.3 1-19.9v-.9c0-.6-.3-.9-1-.9zM48.4 479.5c-9.2 0-16.6 2.9-21.9 8.6-5.5 5.7-8.1 13.2-8.1 22.5 0 8.7 2.8 15.9 8.4 21.4 5.7 5.7 12.9 8.5 21.7 8.5 9.1-.1 16.5-3 22.1-8.6 5.5-5.7 8.2-13 8.2-22.1 0-9-2.8-16.4-8.3-21.9-5.6-5.7-13-8.4-22.1-8.4zm7.8 38.7c-2 2.4-4.6 3.7-7.6 3.8-3.2-.1-5.9-1.4-7.8-3.8-1.9-2.3-2.9-5.1-2.9-8.3 0-3.2 1-6 2.9-8.2 2.1-2.5 4.7-3.7 7.8-3.6 3.1-.1 5.7 1.1 7.6 3.6 2 2.3 3 5.1 3.1 8.2-.1 3.3-1.1 6.1-3.1 8.3zm311.6-36.7c-3.6 0-7.3 1.1-11.1 3.2-3.5 1.9-5.2 3-5 3.2-.5-.3-.8-1.6-1-3.8-.2-2.6-.7-3.9-1.5-3.8-.2-.1-3.5.5-9.7 1.9-4.3.6-7.5 1-9.7 1.2-.6.2-.9.6-.9 1.3 0 .2.1.4.2.7 1.6 6.2 2.5 13.9 2.6 23.2v14.5c-.1 6.2-.1 11 0 14.3-.1 1.1.5 1.7 1.9 1.9 2.3.2 5.3.3 9.1.3 4 0 6.9 0 8.8-.1 1.3-.2 1.9-.7 1.9-1.6 0-1.1 0-2.9-.1-5.2-.2-2.3-.3-4-.3-5.1-.1-1.8-.1-4.4-.1-7.8-.1-3.6-.1-6.2 0-7.8-.1-3.3.4-5.4 1.6-6.3 1.2-1.1 3.5-1.6 6.8-1.6.8 0 1.9.1 3.5.3h3.2c1.7 0 2.6-.7 2.6-2.3 0-.8 0-2.4-.1-4.8v-4.5c0-1.1.1-2.8.4-5 .2-2.1.3-3.7.3-4.8s-1.2-1.5-3.4-1.5zm-464.5 13.9c0-5.2-1.9-9-5.7-11.7-3.4-2.5-7.7-3.8-12.9-3.8-3.6 0-7.2 1-10.8 2.9-3.7 2-6.7 4.5-8.6 7.3-1.1-3.4-3.2-6-6.4-7.8-2.9-1.7-6.2-2.5-9.8-2.5-3.7 0-7 .7-10 2.3-2.1 1-4.9 2.9-8.3 5.7-.6.4-1.1.7-1.5.9-.3 0-.5-1.4-.6-4.2-.1-2.8-.5-4.2-1.2-4.2-1.3 0-2.9.3-4.7.9-2.9.8-4.5 1.2-5 1.3-.5.1-2.3.3-5.2.6-2.5.2-4.1.5-4.9.9-.7.3-1 .7-.9 1.4 0 .2 0 .5.1 1 .9 8.1 1.3 15.6 1.3 22.2v28.5c0 1 .1 1.6.4 1.9.1.2.6.3 1.6.4 3.2.2 6.1.3 8.5.3 3.9 0 6.7 0 8.4-.1 1-.1 1.7-.2 2-.4 0-.4.1-1 .1-2v-16.1c-.1-7.1-.1-12.6 0-16.3 0-1.7 1.2-3.2 3.4-4.7 2-1.4 4-2.1 5.8-2 4.4 0 6.6 2.9 6.6 8.6v6.4c.1 3 .1 5.2.1 6.7 0 1.9 0 4.6-.1 8.2-.1 3.8-.1 6.6-.1 8.5 0 1.7.6 2.5 1.8 2.5h18.1c1.1 0 1.6-.6 1.6-1.9v-8.6c-.1-3.9-.1-6.7-.1-8.5-.1-8-.1-12.9.1-14.6.2-2 1.3-3.7 3.2-5.2 1.8-1.7 3.6-2.5 5.5-2.5 4.2-.1 6.5 2.2 6.8 6.9 0 3 .1 8 .1 15.2 0 1.8 0 4.5-.1 8.1s-.1 6.4-.1 8.2c0 1.7.6 2.7 1.8 2.9s4.2.3 9.1.3c4.7 0 7.6 0 8.9-.1 1.2-.2 1.8-1 1.8-2.5 0-2.6 0-6.3-.1-11.3-.2-5.1-.3-8.8-.3-11.3 0-2.1.1-5.3.3-9.5v-9.2zm106.6.1c0-5.2-1.9-9-5.7-11.7C1 481.3-3.3 480-8.4 480c-3.6 0-7.2 1-10.8 2.9-3.7 2-6.7 4.5-8.6 7.3-1.1-3.4-3.2-6.1-6.4-7.8-3-1.7-6.3-2.5-9.8-2.5s-7 .7-9.9 2.3c-2.1 1-5 2.9-8.5 5.7-.6.4-1.1.7-1.5.9-.3 0-.4-1.4-.4-4.2-.1-2.8-.5-4.2-1.2-4.2-1.3 0-2.9.3-4.8.9-2.9.7-4.5 1.1-5.1 1.3-.5.1-2.3.3-5.2.6-2.5.2-4.2.5-5.1.9-.6.2-.8.6-.7 1.3 0 .2 0 .5.1 1 .9 8.1 1.3 15.6 1.3 22.2v28.5c-.1 1-.1 1.6.1 1.9.1.2.7.3 1.7.4 3.2.2 6.1.3 8.5.3 3.8 0 6.8 0 8.6-.1.9-.1 1.5-.2 1.8-.4.2-.4.3-1 .3-2v-32.4c0-1.7 1.2-3.2 3.4-4.7 2-1.4 4-2.1 5.8-2 4.4 0 6.6 2.9 6.6 8.6-.1 1.5-.1 3.7 0 6.6 0 3 .1 5.3.2 6.7 0 1.8 0 4.6-.1 8.2-.1 3.8-.1 6.6 0 8.5-.1 1.7.4 2.5 1.5 2.5h18.2c1.1 0 1.6-.6 1.6-1.9v-8.6c-.2-3.9-.3-6.6-.3-8.5 0-8 .1-12.9.3-14.6.1-2 1.1-3.7 2.9-5.2 1.9-1.7 3.8-2.5 5.8-2.5 4.3-.1 6.5 2.2 6.7 6.9.2 3 .3 8 .4 15.2-.1 1.8-.2 4.5-.3 8.1-.1 3.7-.1 6.3-.1 8.2-.1 1.7.5 2.7 1.8 2.9 1.2.2 4.2.3 9.1.3 4.7 0 7.5 0 8.8-.1 1.2-.2 1.8-1 1.8-2.5 0-2.6 0-6.3-.1-11.3-.1-5.1-.1-8.8-.1-11.3 0-2.1 0-5.3.1-9.5-.1-4.1-.1-7.3-.1-9.3zM517.2 526c-.6 0-1.5.1-2.8.4-1.4.3-2.4.5-3.2.6-2.3 0-3.9-.6-4.8-1.9-.5-1.1-.7-2.9-.7-5.4v-6.1c-.1-1.3 0-2 .4-2h3.5c.6 0 1.6 0 3.1.1h2.9c.9 0 1.3-.3 1.3-.9-.1-.8-.1-1.8-.1-3.2v-3.1c0-.7.1-1.7.3-3.1.2-1.4.2-2.4.2-3.1 0-.5-.3-.7-.9-.7-1.2 0-2.8.1-4.8.2-2.1 0-3.7 0-4.8.1-.9 0-1.3-.7-1.3-2.2 0-1.3.1-3.1.4-5.4.2-2.4.2-4.2.2-5.4 0-.5-.3-.7-1-.7-3.2-.6-5.5-.9-7.2-.8-.6-.1-1.7-.3-3.5-.6-1.4-.4-2.5-.5-3.3-.4-.7-.1-1 1.6-1 5.1l.3 5.5c0 2.4-.1 4.2-.3 5.4-.1.5-.6.7-1.6.6-1.9.1-2.9.5-2.9 1.2-.1.6-.1 1.5 0 2.8.2 1.3.2 2.2.2 2.9 0 .5 0 1.2-.1 2.3-.1.9-.1 1.6 0 2-.1.8.4 1.2 1.6 1.2h1.4c1.5 0 2.2.6 2.2 2 0 1.9-.1 4.8-.2 8.6-.2 3.9-.3 6.9-.3 8.9 0 6.5 4.3 9.7 12.7 9.7 4.6-.2 8.8-1.3 12.7-3.4.8-.4 1.2-.7 1.3-.9.2-.2.3-.7.4-1.6 0-.8.1-2.2.3-3.9.2-1.9.3-3.2.4-4.1.1-.4-.3-.7-1-.7zm-60.8 6.6c-.1 5.1-3 7.6-8.6 7.6-2.6-.1-4.8-.8-6.4-2-1.7-1.5-2.6-3.4-2.5-5.7 0-2.3 1-4.2 2.9-5.7 1.6-1.4 3.5-2 6-2 2.2 0 4.2.7 6 2 1.6 1.6 2.5 3.4 2.6 5.8z" class="st0"/><path d="M-270.8 537.1l-7.8-67.1h-15.8c21.2-19.6 46.3-48.7 53.7-57.5 7.4 8.8 32.5 37.9 53.7 57.5h-15.8l-7.8 67.1h-60.2z" class="st1"/><path d="M-184.3 468.7c-25.4-23.3-56.4-60.5-56.4-60.5s-31 37.2-56.4 60.5c-1.9 1.7-.7 4.2 1.4 4.2h14.5l7.5 64.9c.2 1.2.8 2.2 2.3 2.2h61.3c1.5 0 2.1-1 2.3-2.2l7.5-64.9h14.5c2.2 0 3.4-2.5 1.5-4.2zm-18-.7c-1.1 0-2.2.9-2.4 2.2l-7.5 65h-17.5c-.5-12-1.2-29 .7-50.2.1-1.6.4-3-1.6-2.9-3.5.3-6.8.8-10.1.8s-6.6-.5-10.1-.8c-1.9-.2-1.7 1.3-1.6 2.9 1.9 21.1 1.2 38.2.7 50.2h-17.5l-7.5-65c-.2-1.2-1.3-2.2-2.4-2.2h-10.5c16.5-13.7 46.3-48.9 48.9-51.9 2.6 3 32.4 38.3 48.9 51.9h-10.5z" class="st0"/><path d="M247.4 449.5c-2.6-2.7-5.8-4.1-9.5-4.1-3.8 0-7 1.4-9.5 4.1-2.7 2.7-4 5.9-3.9 9.7-.1 3.7 1.2 6.8 3.9 9.4 2.6 2.7 5.8 4.1 9.5 4.1 3.8 0 7-1.4 9.5-4.1 2.6-2.7 3.9-5.8 3.9-9.4 0-3.9-1.3-7.1-3.9-9.7zm-487.8-7c-3.8 0-7 1.4-9.5 4.1-2.7 2.6-4.1 5.8-4.1 9.5s1.4 7 4.1 9.7c2.6 2.6 5.8 3.9 9.5 3.9 3.8 0 7.1-1.3 9.7-3.9 2.6-2.8 3.9-6 3.9-9.7s-1.3-6.9-3.9-9.5c-2.7-2.7-5.9-4.1-9.7-4.1zm410.4 2.9c-3.8 0-7.1 1.4-9.7 4.1-2.6 2.7-3.9 5.9-3.9 9.7 0 3.7 1.3 6.8 3.9 9.4 2.8 2.7 6 4.1 9.7 4.1s7-1.4 9.5-4.1c2.6-2.7 3.9-5.8 3.9-9.4 0-3.9-1.3-7.1-3.9-9.7-2.6-2.7-5.8-4.1-9.5-4.1z" class="st2"/></g></switch></svg>
