<?xml version="1.0" encoding="UTF-8" standalone="no"?>
<svg
   xmlns:dc="http://purl.org/dc/elements/1.1/"
   xmlns:cc="http://creativecommons.org/ns#"
   xmlns:rdf="http://www.w3.org/1999/02/22-rdf-syntax-ns#"
   xmlns:svg="http://www.w3.org/2000/svg"
   xmlns="http://www.w3.org/2000/svg"
   viewBox="0 0 490.20001 139.78667"
   height="139.78667"
   width="490.20001"
   xml:space="preserve"
   id="svg2"
   version="1.1"><metadata
     id="metadata8"><rdf:RDF><cc:Work
         rdf:about=""><dc:format>image/svg+xml</dc:format><dc:type
           rdf:resource="http://purl.org/dc/dcmitype/StillImage" /></cc:Work></rdf:RDF></metadata><defs
     id="defs6" /><g
     transform="matrix(1.3333333,0,0,-1.3333333,0,139.78667)"
     id="g10"><g
       transform="scale(0.1)"
       id="g12"><path
         id="path14"
         style="fill:#f4711f;fill-opacity:1;fill-rule:nonzero;stroke:none"
         d="M 948.063,1048.38 1130.07,256.551 h 2.95 l 198.4,791.829 h 232.95 L 1335.01,182.84 C 1307.01,75.2148 1261.3,0 1130.07,0 998.863,0 953.141,75.2148 925.133,182.84 l -210.02,865.54 h 232.95" /><path
         id="path16"
         style="fill:#f4711f;fill-opacity:1;fill-rule:nonzero;stroke:none"
         d="M 1646.11,2.30859 1645.44,1048.38 h 218.23 L 1864.33,2.30859 h -218.22" /><path
         id="path18"
         style="fill:#f4711f;fill-opacity:1;fill-rule:nonzero;stroke:none"
         d="m 2007.55,2.30859 1.32,1046.07141 h 368.61 c 200.5,0 476.38,-202.708 476.38,-538.88 0,-303.73 -230,-507.19141 -504.25,-507.19141 h -61.92 V 208.719 h 61.92 c 156.29,0 286.05,153.34 286.05,302.254 0,204.941 -145.98,332.39 -318.48,332.39 h -91.42 V 2.30859 h -218.21" /><path
         id="path20"
         style="fill:#f4711f;fill-opacity:1;fill-rule:nonzero;stroke:none"
         d="m 0,1.5 209.371,861.824 c 28.012,107.641 73.719,182.826 204.945,182.826 131.215,0 176.93,-75.185 204.942,-182.826 L 849.262,1.5 H 616.309 L 417.262,789.598 h -2.946 L 232.961,1.5 H 0" /><path
         id="path22"
         style="fill:#f4711f;fill-opacity:1;fill-rule:nonzero;stroke:none"
         d="M 2827.22,2.03125 3036.58,863.855 c 28,107.637 73.73,182.835 204.95,182.835 131.21,0 176.92,-75.198 204.93,-182.835 L 3676.48,2.03125 H 3443.51 L 3244.49,790.145 h -2.96 L 3060.17,2.03125 h -232.95" /></g></g></svg>