<svg id="Lager_1" data-name="Lager 1" xmlns="http://www.w3.org/2000/svg" xmlns:xlink="http://www.w3.org/1999/xlink" width="10.42cm" height="10.42cm" viewBox="0 0 295.38 295.38"><defs><style>.cls-1{fill:none;}.cls-2{clip-path:url(#clip-path);}.cls-3{fill:#31aa47;}.cls-4{fill:#fff;}</style><clipPath id="clip-path" transform="translate(-0.23 -0.29)"><rect class="cls-1" x="-272.61" y="-145.7" width="841.89" height="595.28"/></clipPath></defs><title>balanzia</title><g class="cls-2"><rect class="cls-3" x="43.49" y="43.55" width="208.86" height="208.86" transform="translate(-61.54 147.65) rotate(-45)"/><g class="cls-2"><path class="cls-4" d="M65.79,185.05,27.14,146.4l11.13-11.13c12.52-12.52,20.07-11.33,26.33-5.07,3.63,3.63,4.52,8,3.13,12.87a13.66,13.66,0,0,1,14.51,3.28c6.66,6.66,5.71,16.54-1.34,23.6Zm-15.2-30.7c5.71-5.71,11.77-10.48,6.46-15.8-5.51-5.51-10.58.75-16,6.21Zm21.86,11.82c2.34-2.33,7.15-6.56,1.29-12.42-5.27-5.27-10.33-1.59-17.29,6.46l11,11Z" transform="translate(-0.23 -0.29)"/><path class="cls-4" d="M126.59,124.25l-7.9,7.9L106.47,125,95,136.42l7.15,12.22-7.9,7.9L66.48,107.06,76.91,96.63Zm-48-15.95-.2.2,12.12,20.27,8.35-8.35Z" transform="translate(-0.23 -0.29)"/><polygon class="cls-4" points="130.68 106.52 146.78 90.43 153.34 96.98 129.49 120.83 90.84 82.18 98.59 74.43 130.68 106.52"/><path class="cls-4" d="M138.2,196.47l-7.9,7.9-12.22-7.15-11.43,11.43,7.15,12.22-7.9,7.9L78.09,179.28l10.43-10.43Zm-48-15.95-.2.2L102.09,201l8.35-8.35Z" transform="translate(-0.23 -0.29)"/><polygon class="cls-4" points="112.29 144.56 149.35 158.47 149.44 158.38 123.96 132.89 131.71 125.14 170.36 163.79 162.06 172.09 116.41 155.64 116.31 155.74 147.36 186.79 139.61 194.54 100.96 155.89 112.29 144.56"/><polygon class="cls-4" points="166.46 102.91 176 145.03 192.29 128.74 198.85 135.3 173.67 160.48 167.61 154.42 157.87 112.1 142.12 127.85 135.56 121.29 160.2 96.65 166.46 102.91"/><rect class="cls-4" x="129.03" y="218.74" width="10.96" height="54.66" transform="translate(-134.83 166.89) rotate(-45)"/><path class="cls-4" d="M192.28,226.94l-7.9,7.9-12.22-7.15-11.43,11.43,7.15,12.22-7.9,7.9-27.82-49.48,10.43-10.43Zm-48-15.95-.2.2,12.12,20.27,8.35-8.35Z" transform="translate(-0.23 -0.29)"/></g></g></svg>