<?xml version="1.0" encoding="utf-8"?>
<!-- Generator: Adobe Illustrator 23.0.1, SVG Export Plug-In . SVG Version: 6.00 Build 0)  -->
<svg version="1.1" id="Lager_1" xmlns="http://www.w3.org/2000/svg" xmlns:xlink="http://www.w3.org/1999/xlink" x="0px" y="0px"
	 viewBox="0 0 1200 400" style="enable-background:new 0 0 1200 400;" xml:space="preserve">
<style type="text/css">
	.st0{fill:#1B4949;}
	.st1{clip-path:url(#SVGID_2_);}
	.st2{clip-path:url(#SVGID_4_);fill:#FFD37F;}
	.st3{clip-path:url(#SVGID_6_);}
	.st4{clip-path:url(#SVGID_8_);fill:#004747;}
	.st5{fill:#FFD383;}
	.st6{clip-path:url(#SVGID_10_);}
	.st7{clip-path:url(#SVGID_12_);fill:#FFD37F;}
	.st8{clip-path:url(#SVGID_14_);}
	.st9{clip-path:url(#SVGID_16_);fill:#FFD37F;}
	.st10{clip-path:url(#SVGID_18_);}
	.st11{clip-path:url(#SVGID_20_);fill:#004747;}
</style>
<rect class="st0" width="1200" height="400"/>
<g>
	<g>
		<defs>
			<rect id="SVGID_13_" x="-32.9" y="4" width="1265.7" height="422"/>
		</defs>
		<clipPath id="SVGID_2_">
			<use xlink:href="#SVGID_13_"  style="overflow:visible;"/>
		</clipPath>
		<g class="st1">
			<defs>
				<rect id="SVGID_15_" x="-32.9" y="4" width="1265.7" height="422"/>
			</defs>
			<clipPath id="SVGID_4_">
				<use xlink:href="#SVGID_15_"  style="overflow:visible;"/>
			</clipPath>
			<path class="st2" d="M118,275.3V109.6h70.9c17.1,0,30.5,3.6,40.3,10.7c9.8,7.2,14.7,17.1,14.7,29.9c0,8.2-1.8,14.9-5.5,20.2
				c-3.7,5.3-9,10.1-15.9,14.4c18.9,8,28.4,21.6,28.4,40.7c0,15.1-5.7,27.1-17.2,36.2c-11.5,9-25.6,13.5-42.4,13.5H118z
				 M156.1,139.4v32.8h32.1c6.3,0,11.3-1.5,14.9-4.5c3.6-3,5.4-7,5.4-12.1c0-5.1-1.8-9-5.3-11.9c-3.5-2.8-8.5-4.3-15-4.3H156.1z
				 M156.1,203.4v40.2h34c16,0,24-6.6,24-19.9c0-6.3-2-11.3-5.9-14.9c-3.9-3.6-10-5.4-18.1-5.4H156.1z"/>
			<rect x="266.4" y="109.6" class="st2" width="35.6" height="165.6"/>
			<path class="st2" d="M321.8,228.8v-70.9h35.6v63.3c0,7.5,1.8,13.4,5.4,17.6c3.6,4.2,8.7,6.2,15.4,6.2c7.7,0,13.6-2.8,17.6-8.5
				c4-5.7,6-13,6-21.9v-56.6h35.6v117.4h-35.6v-17.1c-3.9,6.5-8.5,11.5-14,15c-5.5,3.5-12.9,5.3-22.3,5.3
				c-12.5,0-22.9-4.4-31.2-13.3C326,256.4,321.8,244.2,321.8,228.8"/>
			<path class="st2" d="M571.6,203.9h-86.9c0.9,7.1,4,12.7,9.4,16.7c5.3,4.1,11.6,6.1,18.8,6.1c12.6,0,22.6-6.2,29.8-18.5l25.6,14.6
				c-11.1,22.8-30,34.2-56.8,34.2c-16.5,0-30.6-5.8-42.5-17.4c-11.9-11.6-17.8-26.5-17.8-44.5c0-18.3,5.9-33.2,17.7-44.7
				c11.8-11.5,26.8-17.2,44.9-17.2c17.2,0,31.2,5.6,41.8,16.9c10.6,11.2,15.9,25.2,15.9,41.8V203.9z M513.2,160.7
				c-6.5,0-12.1,1.6-16.9,4.9c-4.8,3.2-8.2,7.7-10.2,13.4h53.6c-1.4-5.7-4.5-10.2-9.2-13.4C525.7,162.3,519.9,160.7,513.2,160.7"/>
			<path class="st2" d="M617,187.7c0,3.1,2.1,5.6,6.2,7.5c4.2,1.9,10.4,3.8,18.7,5.7c14.2,3.1,24.4,7.6,30.6,13.5
				c6.2,5.9,9.4,14,9.4,24.1c0,11.6-4.4,21.1-13.3,28.6c-8.9,7.5-20.4,11.3-34.5,11.3c-27,0-45.7-12.2-56.4-36.5l27.3-16.9
				c6.5,16.3,16.3,24.5,29.6,24.5c4.5,0,8-0.8,10.7-2.4c2.7-1.6,4-3.9,4-6.8c0-3.4-1.7-6.1-5.2-8.1c-3.5-2-9.2-3.8-17.2-5.3
				c-12.2-2.3-22.1-6.6-29.7-12.9c-7.6-6.3-11.4-14.6-11.4-24.7c0-10.6,4.3-19.1,12.8-25.3c8.5-6.2,19.1-9.4,31.5-9.4
				c12.9,0,23.2,2.4,30.7,7.2c7.5,4.8,14,12.4,19.4,22.9l-25.4,14.8c-2.2-6.5-5.4-11.4-9.7-14.8c-4.3-3.4-9.2-5.1-14.6-5.1
				C621.5,179.6,617,182.3,617,187.7"/>
			<path class="st2" d="M687.6,185.4v-27.5h16.9v-31.6H740v31.6h24.3v27.5H740v46.4c0,4.6,1.2,8.3,3.5,11c2.3,2.7,5.5,4,9.5,4
				c4.2,0,7.9-0.6,11.1-1.8l3.5,29.6c-7.1,2.6-15,3.9-23.8,3.9c-10.9,0-20.2-3.2-27.8-9.5c-7.6-6.3-11.4-16.4-11.4-30.3v-53.4H687.6
				z"/>
			<path class="st2" d="M892.6,203.9h-86.9c0.9,7.1,4,12.7,9.4,16.7c5.3,4.1,11.6,6.1,18.8,6.1c12.6,0,22.6-6.2,29.8-18.5l25.6,14.6
				c-11.1,22.8-30,34.2-56.8,34.2c-16.5,0-30.6-5.8-42.5-17.4c-11.9-11.6-17.8-26.5-17.8-44.5c0-18.3,5.9-33.2,17.7-44.7
				c11.8-11.5,26.8-17.2,44.9-17.2c17.2,0,31.2,5.6,41.8,16.9c10.6,11.2,15.9,25.2,15.9,41.8V203.9z M834.2,160.7
				c-6.5,0-12.1,1.6-16.9,4.9c-4.8,3.2-8.2,7.7-10.2,13.4h53.6c-1.4-5.7-4.5-10.2-9.2-13.4C846.7,162.3,841,160.7,834.2,160.7"/>
			<path class="st2" d="M906.9,323.6V157.9h35.6v13.4c9.2-11.1,22.2-16.6,38.8-16.6c14.3,0,26.9,5.5,37.7,16.4
				c10.8,10.9,16.2,26.1,16.2,45.5c0,19.3-5.5,34.4-16.5,45.4c-11,11-23.7,16.5-38,16.5c-15.9,0-28.6-5.2-38.1-15.5v60.5H906.9z
				 M990.7,195.3c-5.7-5.4-12.6-8.1-20.8-8.1c-8.2,0-15.1,2.7-20.8,8.1c-5.7,5.4-8.5,12.5-8.5,21.3s2.8,15.9,8.5,21.3
				c5.7,5.4,12.6,8.1,20.8,8.1c8.2,0,15.1-2.7,20.8-8.1c5.7-5.4,8.5-12.5,8.5-21.3S996.4,200.7,990.7,195.3"/>
			<rect x="1045.5" y="238.8" class="st2" width="36.5" height="36.5"/>
		</g>
	</g>
</g>
</svg>
