<?xml version="1.0" encoding="UTF-8" standalone="no"?>
<svg
   xmlns:dc="http://purl.org/dc/elements/1.1/"
   xmlns:cc="http://creativecommons.org/ns#"
   xmlns:rdf="http://www.w3.org/1999/02/22-rdf-syntax-ns#"
   xmlns:svg="http://www.w3.org/2000/svg"
   xmlns="http://www.w3.org/2000/svg"
   viewBox="0 0 2140.7068 543.93335"
   height="543.93335"
   width="2140.7068"
   xml:space="preserve"
   id="svg2"
   version="1.1"><metadata
     id="metadata8"><rdf:RDF><cc:Work
         rdf:about=""><dc:format>image/svg+xml</dc:format><dc:type
           rdf:resource="http://purl.org/dc/dcmitype/StillImage" /></cc:Work></rdf:RDF></metadata><defs
     id="defs6" /><g
     transform="matrix(1.3333333,0,0,-1.3333333,0,543.93333)"
     id="g10"><g
       transform="scale(0.1)"
       id="g12"><path
         id="path14"
         style="fill:#231f20;fill-opacity:1;fill-rule:nonzero;stroke:none"
         d="m 14944.2,42.1289 c 641.5,0 1069.1,348.8831 1069.1,962.2411 v 979.1 h -979.1 V 869.309 h -180 V 3210.17 h 180 V 2208.56 h 979.1 v 866.57 c 0,613.34 -427.6,962.22 -1069.1,962.22 -641.5,0 -1069.1,-348.88 -1069.1,-962.22 V 1004.37 c 0,-613.358 427.6,-962.2411 1069.1,-962.2411" /><path
         id="path16"
         style="fill:#231f20;fill-opacity:1;fill-rule:nonzero;stroke:none"
         d="m 12659.7,42.1289 c 641.4,0 1069.1,348.8831 1069.1,962.2411 v 979.1 h -979.1 V 869.309 h -180.1 V 3210.17 h 180.1 V 2208.56 h 979.1 v 866.57 c 0,613.34 -427.7,962.22 -1069.1,962.22 -641.5,0 -1069.2,-348.88 -1069.2,-962.22 V 1004.37 c 0,-613.358 427.7,-962.2411 1069.2,-962.2411" /><path
         id="path18"
         style="fill:#231f20;fill-opacity:1;fill-rule:nonzero;stroke:none"
         d="m 10442.7,846.82 h -180.1 v 2385.86 h 180.1 z m -90.1,3190.53 C 9711.16,4037.35 9261,3694.1 9261,3030.1 V 1049.38 c 0,-663.989 450.16,-1007.2511 1091.6,-1007.2511 641.5,0 1091.7,343.2621 1091.7,1007.2511 V 3030.1 c 0,664 -450.2,1007.25 -1091.7,1007.25" /><path
         id="path20"
         style="fill:#231f20;fill-opacity:1;fill-rule:nonzero;stroke:none"
         d="m 8135.59,2326.73 h -180.07 v 945.35 h 180.07 z m 979.1,-1811.921 v 950.981 c 0,360.12 -118.18,579.59 -382.65,669.63 270.1,95.65 382.65,315.09 382.65,641.47 v 444.54 c 0,506.44 -225.08,787.8 -759.66,787.8 H 6998.92 V 70.2813 h 956.6 V 1628.97 h 180.07 V 492.301 c 0,-157.551 11.26,-298.219 45.01,-422.0197 h 995.99 v 56.2577 c -50.65,67.543 -61.9,225.102 -61.9,388.27" /><path
         id="path22"
         style="fill:#231f20;fill-opacity:1;fill-rule:nonzero;stroke:none"
         d="m 5867.93,807.422 h -185.69 v 934.088 h 185.69 z M 5682.22,3272.08 h 185.69 v -877.83 h -185.69 z m 1164.81,-416.41 v 422.02 c 0,495.19 -298.24,731.54 -832.8,731.54 H 4725.63 V 70.2813 h 1288.6 c 534.56,0 832.8,286.9807 832.8,844.0587 v 630.23 c 0,399.52 -174.44,602.1 -433.28,680.88 258.84,78.78 433.28,270.09 433.28,630.22" /><path
         id="path24"
         style="fill:#231f20;fill-opacity:1;fill-rule:nonzero;stroke:none"
         d="M 2720.5,1370.1 H 1381.24 V 2709.36 H 2720.5 Z M 2050.87,4048.63 C 941.398,4048.63 41.9922,3149.23 41.9922,2039.73 41.9922,930.238 941.398,30.8594 2050.87,30.8594 c 1109.49,0 2008.89,899.3786 2008.89,2008.8706 0,1109.5 -899.4,2008.9 -2008.89,2008.9" /></g></g></svg>