<?xml version="1.0" encoding="UTF-8" standalone="no"?>
<svg
   xmlns:dc="http://purl.org/dc/elements/1.1/"
   xmlns:cc="http://creativecommons.org/ns#"
   xmlns:rdf="http://www.w3.org/1999/02/22-rdf-syntax-ns#"
   xmlns:svg="http://www.w3.org/2000/svg"
   xmlns="http://www.w3.org/2000/svg"
   viewBox="0 0 852.90668 88.400002"
   height="88.400002"
   width="852.90668"
   xml:space="preserve"
   id="svg2"
   version="1.1"><metadata
     id="metadata8"><rdf:RDF><cc:Work
         rdf:about=""><dc:format>image/svg+xml</dc:format><dc:type
           rdf:resource="http://purl.org/dc/dcmitype/StillImage" /></cc:Work></rdf:RDF></metadata><defs
     id="defs6" /><g
     transform="matrix(1.3333333,0,0,-1.3333333,0,88.4)"
     id="g10"><g
       transform="scale(0.1)"
       id="g12"><path
         id="path14"
         style="fill:#a7a5a6;fill-opacity:1;fill-rule:nonzero;stroke:none"
         d="m 4510.27,0.25 c -71.83,0 -131.55,25.6055 -176.52,64.7305 V 12.9258 h -94.18 V 662.953 h 94.18 V 464.609 c 46.55,39.047 107.49,63.5 176.52,63.5 152.11,0 270.75,-119.511 270.75,-262.566 C 4781.02,143.316 4680.51,0.25 4510.27,0.25 m 0,441.844 c -105.62,0 -176.1,-87.309 -176.52,-176.653 v -1.593 c 0.42,-90.266 71.79,-177.5824 176.52,-177.5824 101.41,0 176.57,84.2184 176.57,179.2774 0,88.719 -70.63,176.551 -176.57,176.551" /><path
         id="path16"
         style="fill:#a7a5a6;fill-opacity:1;fill-rule:nonzero;stroke:none"
         d="m 5098.01,0 c -168.4,0 -270.71,140.352 -270.71,267.109 0,136.711 114.97,260.75 270.71,260.75 68.14,0 129.51,-24.027 176.56,-63.363 v 49.371 h 94.18 V 265.41 265.293 265.176 12.7539 h -94.18 V 64.7461 C 5229.8,25.7852 5170.2,0 5098.01,0 m 0,441.848 c -105.94,0 -176.56,-87.832 -176.56,-177.453 0,-90.547 71.52,-178.3794 176.56,-178.3794 101.38,0 176.52,84.1754 176.56,179.2034 v 0.148 c -0.04,88.696 -70.65,176.481 -176.56,176.481" /><path
         id="path18"
         style="fill:#231f20;fill-opacity:1;fill-rule:nonzero;stroke:none"
         d="m 820.156,86.2656 c -105.039,0 -176.562,87.8324 -176.562,178.3794 0,89.617 70.625,177.449 176.562,177.449 105.938,0 176.563,-87.832 176.563,-176.551 0,-95.059 -75.156,-179.2774 -176.563,-179.2774 z m 0,441.8434 c -155.742,0 -270.722,-124.043 -270.722,-260.75 0,-126.757 102.304,-267.109 270.722,-267.109 170.235,0 270.744,143.066 270.744,265.293 0,143.055 -118.634,262.566 -270.744,262.566" /><path
         id="path20"
         style="fill:#231f20;fill-opacity:1;fill-rule:nonzero;stroke:none"
         d="m 1182.87,12.9258 h 94.16 V 662.953 h -94.16 V 12.9258" /><path
         id="path22"
         style="fill:#231f20;fill-opacity:1;fill-rule:nonzero;stroke:none"
         d="m 1415.27,12.9258 h 94.16 V 662.953 h -94.16 V 12.9258" /><path
         id="path24"
         style="fill:#231f20;fill-opacity:1;fill-rule:nonzero;stroke:none"
         d="m 3265.06,86.2656 c -105.04,0 -176.56,87.8324 -176.56,178.3794 0,89.617 70.62,177.449 176.56,177.449 105.94,0 176.56,-87.832 176.56,-176.551 0,-95.059 -75.16,-179.2774 -176.56,-179.2774 z m 0,441.8434 c -155.74,0 -270.71,-124.043 -270.71,-260.75 0,-126.757 102.31,-267.109 270.71,-267.109 170.23,0 270.74,143.066 270.74,265.293 0,143.055 -118.63,262.566 -270.74,262.566" /><path
         id="path26"
         style="fill:#231f20;fill-opacity:1;fill-rule:nonzero;stroke:none"
         d="m 3716.06,469.262 h -1.83 v 45.273 h -87.81 V 12.9258 h 94.14 V 287.281 c 0,71.512 25.39,109.539 55.23,125.848 22.66,11.777 53.44,18.105 67.93,18.105 v 96.875 c -23.55,-0.898 -87.85,-2.714 -127.66,-58.847" /><path
         id="path28"
         style="fill:#231f20;fill-opacity:1;fill-rule:nonzero;stroke:none"
         d="m 270.723,442.094 c 63.965,0 114.922,-32.11 145.351,-77.031 l 71.406,57.48 C 438.555,486.195 360.605,528.109 270.723,528.109 114.98,528.109 0,404.066 0,267.359 0,140.602 102.305,0.25 270.723,0.25 c 95.703,0 169.375,45.2148 215.527,106.543 L 415.684,163.59 C 384.453,117.633 332.52,86.2656 270.723,86.2656 c -105.039,0 -176.5628,87.8324 -176.5628,178.3794 0,89.617 70.6248,177.449 176.5628,177.449" /><path
         id="path30"
         style="fill:#231f20;fill-opacity:1;fill-rule:nonzero;stroke:none"
         d="m 2441.11,442.094 c 63.95,0 114.92,-32.11 145.35,-77.031 l 71.41,57.48 c -48.94,63.652 -126.87,105.566 -216.76,105.566 -155.74,0 -270.74,-124.043 -270.74,-260.75 0,-126.757 102.31,-267.109 270.74,-267.109 95.71,0 169.38,45.2148 215.51,106.543 l -70.55,56.797 c -31.25,-45.957 -83.16,-77.3244 -144.96,-77.3244 -105.04,0 -176.56,87.8324 -176.56,178.3794 0,89.617 70.63,177.449 176.56,177.449" /><path
         id="path32"
         style="fill:#231f20;fill-opacity:1;fill-rule:nonzero;stroke:none"
         d="m 1695.76,295.426 c 4.53,73.328 71.56,146.668 162.11,146.668 90.55,0 157.54,-73.34 162.07,-146.668 z m 163.01,232.683 c -141.27,0 -257.17,-113.164 -257.17,-263.464 0,-142.168 113.19,-264.395 255.33,-264.395 73.52,0 179.96,36.4648 232.07,149.395 h -98.98 c -26.37,-34.786 -71.13,-63.3794 -129.45,-63.3794 -63.36,0 -141.25,39.8434 -164.81,136.7184 h 415.63 c 0.9,6.348 2.69,31.7 2.69,47.989 -0.9,146.687 -119.49,257.136 -255.31,257.136" /><path
         id="path34"
         style="fill:#231f20;fill-opacity:1;fill-rule:nonzero;stroke:none"
         d="m 2888.61,662.953 h -94.18 v -149.57 h -82.38 v -86.016 h 82.38 V 12.9258 h 94.18 V 428.52 H 2971 v 86.015 h -82.39 v 148.418" /><path
         id="path36"
         style="fill:#a7a5a6;fill-opacity:1;fill-rule:nonzero;stroke:none"
         d="m 5898.15,13.0703 h -94.14 V 285.445 c 0,38.907 0,156.543 -124.86,156.543 -78.75,0 -132.13,-55.175 -132.13,-155.625 V 13.0703 H 5452.9 V 514.406 h 87.79 v -53.375 h 1.8 c 50.66,66.953 126.68,66.953 146.6,66.953 77.83,0 141.21,-33.496 177.4,-89.57 19.89,-32.578 30.77,-72.422 31.66,-128.516 V 13.0703" /><path
         id="path38"
         style="fill:#a7a5a6;fill-opacity:1;fill-rule:nonzero;stroke:none"
         d="M 6396.84,14.5859 H 6285.66 L 6078.78,271.969 V 14.5859 h -96.47 V 662.336 h 96.47 V 317.059 l 195.83,197.605 h 115.83 L 6167.93,294.984 6396.84,14.5859" /></g></g></svg>