<?xml version="1.0" encoding="UTF-8" standalone="no"?>
<svg
   xmlns:dc="http://purl.org/dc/elements/1.1/"
   xmlns:cc="http://creativecommons.org/ns#"
   xmlns:rdf="http://www.w3.org/1999/02/22-rdf-syntax-ns#"
   xmlns:svg="http://www.w3.org/2000/svg"
   xmlns="http://www.w3.org/2000/svg"
   viewBox="0 0 392.54666 160.74667"
   height="160.74667"
   width="392.54666"
   xml:space="preserve"
   id="svg2"
   version="1.1"><metadata
     id="metadata8"><rdf:RDF><cc:Work
         rdf:about=""><dc:format>image/svg+xml</dc:format><dc:type
           rdf:resource="http://purl.org/dc/dcmitype/StillImage" /></cc:Work></rdf:RDF></metadata><defs
     id="defs6" /><g
     transform="matrix(1.3333333,0,0,-1.3333333,0,160.74667)"
     id="g10"><g
       transform="scale(0.1)"
       id="g12"><path
         id="path14"
         style="fill:#26b144;fill-opacity:1;fill-rule:nonzero;stroke:none"
         d="m 2527.16,681.469 c -114.16,0 -161,86.324 -161,182.652 0,97.567 46.84,183.889 161,183.889 114.24,0 161,-86.322 161,-183.889 0,-96.328 -46.76,-182.652 -161,-182.652 z m -788.7,0 c -114.21,0 -160.98,86.324 -160.98,182.652 0,97.567 46.77,183.889 160.98,183.889 114.2,0 160.98,-86.322 160.98,-183.889 0,-96.328 -46.78,-182.652 -160.98,-182.652 z m -744.62,0 c -114.199,0 -160.965,86.324 -160.965,182.652 0,97.567 46.766,183.889 160.965,183.889 114.23,0 160.99,-86.322 160.99,-183.889 0,-96.328 -46.76,-182.652 -160.99,-182.652 z m 1533.32,524.121 c -187.24,0 -339.01,-78.32 -394.38,-218.141 -55.29,139.821 -207.14,218.141 -394.32,218.141 -166.32,0 -304.71,-61.82 -372.31,-173.63 -67.66,111.81 -205.98,173.63 -372.31,173.63 -236.668,0 -416.867,-125.06 -416.867,-341.469 0,-54.535 11.597,-103.215 32.715,-145.566 -2.711,-1.227 -5.43,-2.453 -8.227,-3.641 -10.758,-4.234 -22.531,-8.266 -35.422,-12.059 -32.676,-8.949 -69.523,-13.875 -106.465,-13.875 -107.347,0 -203.672,67.543 -203.672,171.411 0,112.566 82.59,180.059 189.899,180.059 40.894,0 72.363,-2.34 104.683,-13.95 0,0 36.938,80.68 99.032,127.2 -11.875,5.58 -24.403,11.04 -37.782,16.55 l -0.046,-0.12 c -55.969,24.42 -121.352,35.46 -194.778,35.46 C 180.25,1205.59 0,1080.53 0,864.121 0,648.98 180.25,523.914 416.91,523.914 c 62.449,0 132.188,9.016 191.934,25.859 22.402,5.372 74.89,23.45 113.297,45.602 72.101,-46.586 166.293,-71.461 271.699,-71.461 166.33,0 304.65,61.816 372.31,173.184 67.6,-111.368 205.99,-173.184 372.31,-173.184 166.04,0 304.18,61.594 371.93,172.633 V 350.098 h 254.69 v 195.906 c 49.44,-14.5 104.08,-22.09 162.08,-22.09 236.69,0 416.95,125.066 416.95,340.207 0,216.409 -180.26,341.469 -416.95,341.469" /><path
         id="path16"
         style="fill:#10702b;fill-opacity:1;fill-rule:nonzero;stroke:none"
         d="m 89.3516,292.031 c 15.5974,0 31.5894,0 47.1874,-0.773 l 62.406,-0.391 12.09,-25.742 c 4.684,-17.547 16.774,-38.223 23.793,-50.312 11.309,23.41 20.668,49.14 30.813,73.71 20.273,1.563 40.172,0.782 60.449,0.391 21.844,0.391 42.902,1.953 64.746,0 1.16,-26.902 1.16,-53.816 0.391,-80.73 l -0.391,-75.274 0.391,-91.2616 c 0,-12.4765 -0.782,-25.3476 0.39,-37.82809 -7.804,-2.35156 -16.383,-1.55859 -24.183,-1.55859 -10.918,-0.40234 -24.575,-0.79297 -35.493,0 -6.628,0 -12.871,0 -21.062,1.55859 -1.168,23.00779 0,35.87889 0.391,58.89059 l -1.168,73.3091 c -0.391,13.671 0,26.921 -1.954,40.57 C 299.961,161 294.887,145 289.039,129.398 L 266.813,74.8008 c -5.465,-12.0899 -11.708,-22.6211 -17.165,-33.1524 -6.628,-1.9492 -15.601,-0.7773 -24.57,0.3907 -8.969,16.7695 -15.211,33.9414 -21.84,50.6914 l -22.625,48.7575 -17.156,39.782 c -3.512,-19.5 -1.562,-42.122 -1.562,-63.18 0.39,-21.4494 0.781,-42.9103 0,-64.3517 0.39,-17.5469 1.949,-35.0977 -1.559,-51.08986 L 126.016,2.26172 C 111.582,1.46875 97.543,1.46875 84.2813,3.82031 l -1.9532,73.71099 0.3907,64.7387 -1.5586,74.496 1.1679,69.816 1.5625,4.676 5.461,0.773" /><path
         id="path18"
         style="fill:#10702b;fill-opacity:1;fill-rule:nonzero;stroke:none"
         d="m 522.996,129.781 42.121,-0.769 c -5.066,8.59 -10.918,17.547 -24.179,24.957 -7.797,3.902 -15.993,5.851 -24.571,6.633 -8.969,1.168 -16.383,0.789 -23.012,-2.34 -7.796,-3.512 -12.871,-8.571 -17.55,-14.032 -3.117,-4.691 -5.848,-9.761 -5.848,-15.609 16.766,0.391 35.488,0.777 53.039,1.16 z m 32.371,76.067 c 15.988,-4.688 29.645,-12.489 42.516,-21.457 10.918,-11.301 18.719,-22.621 23.394,-34.7 5.856,-10.543 7.024,-21.461 8.586,-32 1.168,-8.961 0.387,-18.3199 -1.562,-27.2926 L 593.199,86.5 l -58.89,-1.1719 -67.082,1.5625 c -0.391,-3.1211 1.168,-7.4101 2.339,-8.9687 4.676,-7.8008 10.606,-16.6133 18.407,-20.1328 10.918,-3.8907 22.625,-5.8477 34.324,-6.6172 12.09,0.3789 23.012,1.9375 32.758,5.4492 5.074,2.3398 10.273,3.0781 14.168,6.5898 2.343,2.7305 7.957,6.6485 9.91,7.4297 7.41,-3.5117 9.387,-5.9804 15.238,-12.2187 7.41,-5.8516 14.043,-10.1406 21.449,-18.3321 -1.949,-5.8515 -5.847,-9.75 -9.75,-13.6601 -7.023,-8.1914 -17.55,-13.25 -29.64,-16.3711 C 565.117,6.14844 554.199,3.42969 542.887,1.85938 533.531,0.308594 524.555,-0.480469 515.195,0.308594 502.328,-0.480469 491.797,1.85938 482.047,4.21094 464.887,6.55078 452.406,14.3398 441.484,25.2695 c -13.261,10.1407 -21.839,22.6211 -27.691,37.0391 -5.066,13.6719 -7.02,27.7031 -8.191,42.1324 0,14.039 1.171,27.7 5.074,40.559 2.336,12.48 9.359,23.398 17.937,33.93 10.532,12.09 24.571,19.89 41.344,26.918 13.262,3.507 26.52,5.058 40.563,5.461 15.988,0.379 30.027,-2.735 44.847,-5.461" /><path
         id="path20"
         style="fill:#10702b;fill-opacity:1;fill-rule:nonzero;stroke:none"
         d="m 1361.96,129.781 42.12,-0.769 c -5.07,8.59 -10.92,17.547 -24.18,24.957 -7.8,3.902 -15.99,5.851 -24.57,6.633 -8.97,1.168 -16.38,0.789 -23.01,-2.34 -7.8,-3.512 -12.87,-8.571 -17.55,-14.032 -3.12,-4.691 -5.85,-9.761 -5.85,-15.609 16.77,0.391 35.49,0.777 53.04,1.16 z m 32.37,76.067 c 15.99,-4.688 29.64,-12.489 42.52,-21.457 10.91,-11.301 18.72,-22.621 23.39,-34.7 5.86,-10.543 7.03,-21.461 8.59,-32 1.17,-8.961 0.38,-18.3199 -1.56,-27.2926 l -35.11,-3.8984 -58.89,-1.1719 -67.08,1.5625 c -0.39,-3.1211 1.17,-7.4101 2.34,-8.9687 4.68,-7.8008 10.61,-16.6133 18.41,-20.1328 10.92,-3.8907 22.62,-5.8477 34.32,-6.6172 12.09,0.3789 23.01,1.9375 32.76,5.4492 5.07,2.3398 10.27,3.0781 14.17,6.5898 2.34,2.7305 7.95,6.6485 9.91,7.4297 7.41,-3.5117 9.39,-5.9804 15.23,-12.2187 7.42,-5.8516 14.05,-10.1406 21.46,-18.3321 -1.95,-5.8515 -5.85,-9.75 -9.76,-13.6601 -7.02,-8.1914 -17.54,-13.25 -29.63,-16.3711 -11.32,-3.91016 -22.24,-6.62891 -33.55,-8.19922 -9.35,-1.550786 -18.33,-2.339849 -27.69,-1.550786 -12.87,-0.789063 -23.4,1.550786 -33.15,3.902346 -17.16,2.33984 -29.64,10.12886 -40.56,21.05856 -13.26,10.1407 -21.84,22.6211 -27.69,37.0391 -5.07,13.6719 -7.02,27.7031 -8.19,42.1324 0,14.039 1.17,27.7 5.07,40.559 2.34,12.48 9.36,23.398 17.94,33.93 10.53,12.09 24.57,19.89 41.34,26.918 13.26,3.507 26.52,5.058 40.56,5.461 15.99,0.379 30.03,-2.735 44.85,-5.461" /><path
         id="path22"
         style="fill:#10702b;fill-opacity:1;fill-rule:nonzero;stroke:none"
         d="m 714.465,105.602 c 0,-14.0317 12.09,-27.6801 20.277,-33.1411 8.192,-5.4609 19.891,-8.582 29.25,-8.1914 8.582,-0.7695 16.774,1.1719 22.625,3.8907 5.067,1.1796 8.969,2.7382 13.649,8.1992 3.117,4.2812 5.461,19.5 5.461,27.3006 0,12.481 -1.563,26.52 -4.68,31.59 -8.582,7.809 -27.301,12.871 -38.227,12.871 -10.14,0 -24.961,-1.949 -32.367,-7.41 -3.898,-3.109 -7.019,-6.242 -8.973,-8.57 -5.46,-9.371 -7.015,-14.45 -7.015,-26.539 z m 160.68,151.722 V 139.93 c -1.555,-22.621 -0.774,-45.2386 0,-67.8597 -0.387,-14.039 0,-27.6914 0.785,-41.7305 0.386,-8.9687 3.117,-17.9492 -0.395,-27.30074 -10.918,-1.57031 -24.566,0 -35.492,0.39063 -9.355,-0.78125 -19.105,-1.96094 -27.301,-0.39063 -3.508,3.10938 -4.285,6.24219 -5.847,9.75004 -8.579,-3.11722 -8.969,-3.50785 -20.278,-6.64066 -8.195,-3.10938 -28.082,-3.88672 -35.887,-3.88672 -14.035,0 -19.886,0.77734 -33.929,2.71875 -17.938,5.46873 -36.66,13.25783 -47.192,26.91013 -7.406,5.461 -18.718,20.6797 -23.011,36.2696 -1.95,10.9296 -6.243,23.4101 -6.243,34.3278 0,10.153 0,24.571 1.954,34.723 3.511,13.648 10.14,27.68 20.671,39.379 13.653,16.39 22.622,20.281 40.559,27.308 16.383,4.286 26.914,6.629 45.246,5.457 11.309,0 31.59,-3.906 40.168,-7.027 5.461,-1.937 11.313,-3.887 16.774,-7.019 0.777,5.461 0.386,19.113 0.777,27.308 -0.391,15.215 -0.777,27.305 0,43.68 -0.391,7.012 -0.777,13.644 0,20.676 h 17.555 l 24.179,0.781 26.133,-1.563 0.774,-28.867" /><path
         id="path24"
         style="fill:#10702b;fill-opacity:1;fill-rule:nonzero;stroke:none"
         d="m 924.59,292.031 c 15.601,0 31.594,0 47.191,-0.773 l 62.399,-0.391 12.09,-25.742 c 4.69,-17.547 16.77,-38.223 23.8,-50.312 11.3,23.41 20.67,49.14 30.8,73.71 20.29,1.563 40.18,0.782 60.46,0.391 21.84,0.391 42.9,1.953 64.74,0 1.17,-26.902 1.17,-53.816 0.39,-80.73 l -0.39,-75.274 0.39,-91.2616 c 0,-12.4765 -0.78,-25.3476 0.39,-37.82809 -7.8,-2.35156 -16.38,-1.55859 -24.18,-1.55859 -10.92,-0.40234 -24.57,-0.79297 -35.49,0 -6.63,0 -12.87,0 -21.06,1.55859 -1.17,23.00779 0,35.87889 0.39,58.89059 l -1.17,73.3091 c -0.39,13.671 0,26.921 -1.95,40.57 C 1135.2,161 1130.13,145 1124.28,129.398 l -22.23,-54.5972 c -5.46,-12.0899 -11.7,-22.6211 -17.16,-33.1524 -6.63,-1.9492 -15.6,-0.7773 -24.57,0.3907 -8.97,16.7695 -15.21,33.9414 -21.84,50.6914 l -22.63,48.7575 -17.155,39.782 c -3.507,-19.5 -1.562,-42.122 -1.562,-63.18 0.39,-21.4494 0.781,-42.9103 0,-64.3517 0.39,-17.5469 1.953,-35.0977 -1.559,-51.08986 L 961.254,2.26172 C 946.82,1.46875 932.781,1.46875 919.52,3.82031 l -1.946,73.71099 0.391,64.7387 -1.563,74.496 1.172,69.816 1.559,4.676 5.457,0.773" /><path
         id="path26"
         style="fill:#10702b;fill-opacity:1;fill-rule:nonzero;stroke:none"
         d="m 1513.43,209.746 c 8.2,0.391 16.78,0.781 24.96,0 l 8.2,-1.562 c 1.17,-1.164 2.72,-2.735 2.72,-5.075 0.78,-2.718 0.78,-5.449 0.39,-8.187 4.69,5.469 10.54,8.59 17.17,10.926 7.01,3.507 15.6,5.058 26.51,5.461 6.63,0.379 13.27,0.379 19.9,-0.403 4.67,-0.379 9.75,0 14.43,-2.332 3.9,-6.246 3.12,-12.484 3.51,-18.722 l -0.39,-14.422 c 0,-9.758 1.17,-19.508 -1.17,-29.258 -3.51,-0.781 -8.19,-0.781 -11.71,0.387 -8.18,1.562 -15.98,2.339 -25.34,1.953 -7.41,0 -14.43,-1.172 -21.06,-3.121 -8.98,-3.121 -18.72,-10.141 -19.89,-15.993 -1.96,-8.578 -3.51,-17.546 -2.35,-26.128 V 56.0703 c -0.39,-12.4687 -0.77,-25.3398 0,-37.832 0.39,-3.5 0.78,-6.6172 0,-10.13674 -7.4,-1.16015 -15.2,-0.78125 -22.62,-0.78125 -11.69,-2.33984 -23.39,-1.94922 -33.15,-0.76953 -1.95,-0.40234 -5.46,1.55078 -7.41,2.33985 -1.95,10.12887 -2.73,21.05077 -1.55,32.37107 -0.4,17.5469 -0.4,35.4883 0,53.0469 l -1.18,49.9214 0.78,38.989 c -0.39,8.972 -0.78,17.551 1.95,24.574 7.8,1.953 16.38,3.113 27.3,1.953" /><path
         id="path28"
         style="fill:#10702b;fill-opacity:1;fill-rule:nonzero;stroke:none"
         d="m 1734.18,86.8906 c -8.19,0 -18.33,0.3789 -24.96,-1.1718 -7.02,-1.5586 -12.87,-7.4102 -12.87,-13.6485 0,-7.0195 7.41,-12.4805 14.04,-13.2617 10.14,-1.5586 15.6,-2.3398 26.91,-2.3398 8.58,0 17.55,2.3398 26.13,4.2929 1.57,8.1797 0.78,16.7696 -0.78,24.9571 -9.35,1.1718 -19.5,1.1718 -28.47,1.1718 z m -83.07,82.6794 c -1.17,12.09 -3.52,23.41 -2.35,37.051 21.85,3.516 47.98,5.859 73.33,7.02 20.67,0 23.79,-1.551 44.08,-1.551 1.16,0 19.49,-1.953 25.34,-4.688 28.48,-11.312 40.17,-25.742 42.13,-62.011 1.94,-24.571 1.55,-43.289 1.55,-68.2504 0.78,-24.5703 0.39,-47.9687 -2.33,-72.53904 -17.55,-1.5625 -33.16,-0.78125 -50.32,-1.95312 -0.78,0 -11.7,-1.17969 -11.7,-0.38672 -1.17,1.16797 -5.45,8.18748 -5.45,9.74998 -6.64,-3.12107 -20.29,-6.64061 -28.48,-7.41014 -5.07,-0.78125 -17.16,-2.33984 -30.03,-2.33984 -12.09,0 -24.18,1.16797 -31.59,3.10937 -18.33,4.68751 -26.13,12.86721 -33.55,21.84771 -6.63,6.6328 -10.52,29.25 -10.52,39 0,17.1601 3.51,34.3322 14.82,47.1912 7.8,8.969 28.86,18.731 38.61,19.891 15.21,1.949 34.71,4.301 49.14,4.301 11.31,0.777 18.33,-0.391 28.47,-1.961 0.78,12.871 -5.07,19.109 -14.04,21.461 -12.48,3.109 -34.32,4.668 -45.63,3.109 -7.41,-1.563 -35.1,-4.289 -45.24,-5.852 -3.13,3.903 -5.85,11.313 -6.24,15.211" /><path
         id="path30"
         style="fill:#10702b;fill-opacity:1;fill-rule:nonzero;stroke:none"
         d="m 2006.73,77.9219 c 14.44,-1.9414 28.87,-2.3321 44.08,-1.1719 l 20.28,1.1719 c 9.36,3.5078 16.39,8.1797 16.39,18.7187 -1.57,9.7574 -5.08,17.5504 -14.83,21.0504 -7.41,1.571 -18.33,2.739 -35.1,2.348 l -31.59,-1.168 V 96.6406 Z m 46.81,102.9691 c 12.09,0.379 20.67,6.629 20.67,16.769 0,13.649 -12.87,19.106 -28.47,19.879 l -39.78,0.399 c -1.17,-12.489 -0.78,-24.958 1.16,-38.219 15.61,-0.391 30.81,-0.789 46.42,1.172 z m -125.59,-84.2504 -0.78,86.9684 -1.94,102.192 c 14.42,3.113 29.25,1.953 43.67,1.551 l 76.84,0.402 c 29.64,0.391 58.89,0.391 75.66,-19.113 13.65,-9.754 23.01,-26.133 27.31,-49.149 1.17,-30.422 -7.42,-47.972 -21.85,-59.672 28.48,-19.5 40.18,-46.019 40.57,-77.2184 -2.74,-21.461 -8.2,-42.5118 -27.7,-59.6719 -15.98,-12.8711 -35.49,-19.50001 -57.72,-20.66798 l -61.23,-0.40234 c -39.01,2.35156 -74.5,0.40234 -90.48,6.24218 l -2.35,88.53904" /><path
         id="path32"
         style="fill:#10702b;fill-opacity:1;fill-rule:nonzero;stroke:none"
         d="m 2280.09,86.8906 c -8.19,0 -18.33,0.3789 -24.96,-1.1718 -7.02,-1.5586 -12.87,-7.4102 -12.87,-13.6485 0,-7.0195 7.4,-12.4805 14.03,-13.2617 10.15,-1.5586 15.61,-2.3398 26.92,-2.3398 8.58,0 17.55,2.3398 26.13,4.2929 1.56,8.1797 0.78,16.7696 -0.78,24.9571 -9.36,1.1718 -19.5,1.1718 -28.47,1.1718 z m -83.07,82.6794 c -1.18,12.09 -3.51,23.41 -2.35,37.051 21.85,3.516 47.98,5.859 73.33,7.02 20.67,0 23.79,-1.551 44.07,-1.551 1.17,0 19.5,-1.953 25.35,-4.688 28.47,-11.312 40.17,-25.742 42.13,-62.011 1.94,-24.571 1.55,-43.289 1.55,-68.2504 0.78,-24.5703 0.39,-47.9687 -2.34,-72.53904 -17.54,-1.5625 -33.15,-0.78125 -50.31,-1.95312 -0.78,0 -11.7,-1.17969 -11.7,-0.38672 -1.17,1.16797 -5.46,8.18748 -5.46,9.74998 -6.63,-3.12107 -20.28,-6.64061 -28.47,-7.41014 -5.07,-0.78125 -17.16,-2.33984 -30.03,-2.33984 -12.09,0 -24.18,1.16797 -31.59,3.10937 -18.33,4.68751 -26.14,12.86721 -33.55,21.84771 -6.62,6.6328 -10.53,29.25 -10.53,39 0,17.1601 3.52,34.3322 14.83,47.1912 7.79,8.969 28.86,18.731 38.61,19.891 15.21,1.949 34.71,4.301 49.14,4.301 11.31,0.777 18.33,-0.391 28.47,-1.961 0.78,12.871 -5.07,19.109 -14.04,21.461 -12.48,3.109 -34.32,4.668 -45.63,3.109 -7.41,-1.563 -35.11,-4.289 -45.24,-5.852 -3.13,3.903 -5.85,11.313 -6.24,15.211" /><path
         id="path34"
         style="fill:#10702b;fill-opacity:1;fill-rule:nonzero;stroke:none"
         d="m 2435.67,208.965 c 9.75,0.39 19.11,0.39 28.87,0 2.33,-1.945 4.67,-3.895 5.06,-6.637 7.03,0.781 11.7,4.293 16.38,7.418 9.76,4.285 21.07,6.629 35.88,4.676 16,-0.391 31.2,-3.113 46.03,-5.457 16.37,-4.293 28.08,-13.266 36.27,-25.746 7.02,-12.09 9.36,-24.957 10.14,-38.219 l 1.16,-59.2812 V 51.7891 l 0.79,-29.25 c 0.39,-6.2383 1.56,-12.0899 0.39,-18.32816 -1.57,-3.902346 -12.88,-1.94922 -22.23,-1.17188 l -21.46,-0.77734 -18.72,0.77734 c -5.06,0 -9.35,0 -11.31,3.10938 l 0.4,31.20316 -1.18,28.0898 -0.78,36.2696 c -0.78,8.969 -1.17,18.328 -4.28,26.129 -0.4,5.07 -2.35,9.762 -5.85,14.82 -3.9,7.41 -12.48,10.141 -22.62,11.309 -7.41,0 -15.22,-2.34 -23.41,-6.629 -7.41,-4.68 -10.92,-13.649 -11.31,-18.719 l -1.56,-24.18 0.78,-45.2418 1.17,-33.9297 0.78,-15.59762 c 0,-3.1211 -1.56,-5.07032 -3.89,-5.07032 l -14.05,-1.5625 c -7.41,-1.17968 -14.82,-0.77734 -22.23,-0.77734 l -25.35,-0.40234 c -3.12,0.78906 -5.07,2.35156 -5.07,3.12109 l -0.78,10.92973 c -0.39,14.0312 -0.78,28.4687 0,42.5117 l 0.39,28.4687 -1.17,41.7304 0.78,35.488 c -0.39,14.43 -1.17,28.871 0,41.739 6.63,3.507 19.89,3.507 31.98,3.117" /><path
         id="path36"
         style="fill:#10702b;fill-opacity:1;fill-rule:nonzero;stroke:none"
         d="m 2695,288.914 h 12.87 c 1.17,-7.801 1.17,-15.984 1.17,-23.789 v -44.461 -46.016 c 0.39,-12.089 1.17,-23.789 0,-35.886 10.14,6.238 19.11,15.597 28.08,23.797 l 27.69,25.339 19.89,18.723 24.18,0.781 39.79,1.172 26.13,0.391 c 0.39,-1.945 0,-3.516 -1.95,-5.453 -4.68,-8.203 -10.53,-15.211 -17.55,-21.071 l -18.33,-18.332 -26.92,-23.789 c -9.74,-8.961 -25.35,-23.011 -27.69,-28.468 2.34,-5.454 15.6,-18.7231 25.35,-27.6918 l 30.04,-30.8086 24.57,-24.961 19.88,-19.10935 c 2.74,-3.13281 -2.72,-5.85156 -7.01,-5.46094 l -23.02,-1.55859 c -8.96,0 -17.55,0.77734 -26.51,1.55859 -5.86,-0.39062 -12.09,-0.78125 -17.95,0 -5.46,0 -11.31,0 -16.77,1.16016 -7.02,3.91016 -11.31,8.57813 -15.98,13.66013 l -21.46,22.6211 -13.26,17.1602 -9.75,11.6992 -10.91,-7.4102 -9.76,-5.8593 V 36.9688 c -0.39,-9.75 0.39,-19.8907 -1.95,-29.64849 -5.07,-1.94922 -10.53,-2.33984 -15.6,-2.33984 l -19.5,1.57031 c -6.63,-0.40234 -13.26,-0.40234 -19.89,0 -5.07,-0.40234 -8.19,-1.17969 -13.27,0.76953 -0.39,7.41799 -0.77,14.82809 0,22.23829 v 40.5625 l 0.79,49.5269 0.39,58.5 v 53.043 l -0.39,33.934 c 0,7.414 -0.4,15.215 1.17,22.629 10.52,0.769 21.06,1.551 32.76,1.16 H 2695" /></g></g></svg>