<?xml version="1.0" encoding="utf-8"?>
<!-- Generator: Adobe Illustrator 19.2.1, SVG Export Plug-In . SVG Version: 6.00 Build 0)  -->
<svg version="1.1" id="Lager_1" xmlns="http://www.w3.org/2000/svg" xmlns:xlink="http://www.w3.org/1999/xlink" x="0px" y="0px"
	 viewBox="0 0 453.5 113.4" style="enable-background:new 0 0 453.5 113.4;" xml:space="preserve">
<style type="text/css">
	.st0{fill:#FFD400;}
	.st1{fill:none;}
</style>
<g id="Lager_1_1_">
	<path class="st0" d="M453.5,104.9c0,4.7-3.8,8.5-8.5,8.5H8.5c-4.7,0-8.5-3.8-8.5-8.5V8.5C0,3.8,3.8,0,8.5,0H445
		c4.7,0,8.5,3.8,8.5,8.5V104.9z"/>
	<g>
		<g>
			<g>
				<path class="st1" d="M244.2,52.1c-1.1-2-2.3-3.4-3.8-4.1c-0.3-0.2-0.6-0.3-0.9-0.4c-1.1-0.3-2.3-0.1-3.3,0.5
					c-1.4,0.8-2.3,1.9-2.5,3.5s0.2,3.3,1.2,5.3s2.3,3.3,3.8,4c0.3,0.2,0.6,0.3,0.9,0.3c1.1,0.3,2.2,0.2,3.3-0.5
					c0.9-0.5,1.6-1.1,2-1.8c0.3-0.5,0.5-1,0.5-1.6c0.2-1.2,0-2.4-0.5-3.8C244.7,53.1,244.4,52.6,244.2,52.1z M241.5,58.3
					c-0.5,0.3-1.1,0.2-1.7-0.3c-0.1-0.1-0.2-0.2-0.3-0.3c-0.5-0.5-1-1.3-1.6-2.4c-0.7-1.4-1.1-2.4-1.2-3.2c-0.1-0.8,0.2-1.2,0.7-1.5
					s1.1-0.2,1.7,0.3c0.1,0.1,0.3,0.2,0.4,0.4c0.5,0.5,1,1.3,1.5,2.3c0.8,1.3,1.1,2.4,1.2,3.1C242.3,57.5,242.1,58,241.5,58.3z"/>
				<path class="st1" d="M251.2,42.3c-0.3-0.2-0.6-0.3-1-0.4c-1.1-0.3-2.2-0.1-3.3,0.5c-0.9,0.5-1.6,1.2-2,1.9
					c-0.2,0.5-0.4,1-0.5,1.6c-0.2,1.2,0,2.4,0.5,3.8c0.2,0.5,0.5,1,0.7,1.6c1,2,2.3,3.3,3.7,4c0.3,0.2,0.6,0.3,0.9,0.3
					c1.1,0.3,2.3,0.2,3.3-0.5c1.4-0.8,2.3-1.9,2.5-3.5c0.2-1.5-0.2-3.3-1.2-5.2C253.8,44.4,252.6,43,251.2,42.3z M252.2,52.6
					c-0.5,0.3-1.1,0.2-1.7-0.3c-0.1-0.1-0.2-0.2-0.3-0.3c-0.5-0.5-1-1.3-1.6-2.4c-0.7-1.3-1.1-2.4-1.2-3.1c-0.1-0.8,0.1-1.3,0.7-1.6
					c0.5-0.2,1-0.2,1.7,0.3c0.1,0.1,0.2,0.2,0.3,0.4c0.5,0.5,1,1.3,1.6,2.3c0.7,1.3,1.1,2.4,1.2,3.1C253,51.8,252.8,52.3,252.2,52.6
					z"/>
				<path d="M247,68c0.8,0.1,1.5,0.3,2.1,0.6l3.8-2c-0.3-0.4-0.5-0.9-0.7-1.4C250.5,66.1,248.7,67,247,68z"/>
				<path d="M239.5,51.3c-0.1-0.2-0.3-0.3-0.4-0.4c-0.6-0.5-1.2-0.6-1.7-0.3c-0.5,0.3-0.8,0.8-0.7,1.5c0.1,0.8,0.5,1.8,1.2,3.2
					c0.5,1,1,1.8,1.6,2.4c0.1,0.1,0.2,0.2,0.3,0.3c0.6,0.5,1.2,0.6,1.7,0.3c0.5-0.3,0.8-0.8,0.7-1.6c-0.1-0.8-0.5-1.8-1.2-3.1
					C240.5,52.6,240,51.8,239.5,51.3z"/>
				<path d="M250.2,45.6c-0.1-0.2-0.2-0.3-0.3-0.4c-0.6-0.5-1.2-0.6-1.7-0.3c-0.6,0.3-0.8,0.8-0.7,1.6c0.1,0.8,0.5,1.8,1.2,3.1
					c0.6,1.1,1.1,1.9,1.6,2.4c0.1,0.1,0.2,0.2,0.3,0.3c0.6,0.5,1.2,0.6,1.7,0.3c0.6-0.3,0.8-0.8,0.7-1.6c-0.1-0.8-0.5-1.8-1.2-3.1
					C251.2,46.9,250.7,46.1,250.2,45.6z"/>
				<path d="M258.7,58.3c-2.4,0-4.4,2-4.4,4.4c0,2.5,2,4.4,4.4,4.4s4.4-2,4.4-4.4S261.2,58.3,258.7,58.3z M260,66.2h-1.7v-4.9h-0.9
					v-1.4h2.5v6.3H260z"/>
				<path d="M229.4,73.2c0.8,0.8,1.8,1.3,2.9,1.3c0.9,0.1,1.7-0.6,1.7-1.5c0-1.3-1.2-1.8-2.3-1.8c-0.7-0.1-1.4,0.1-2,0.3l0,0l1-5.7
					l5.5,0.1l-0.1,2.3l-3.7-0.1l-0.2,1.2l0.9-0.1l0,0c2.1-0.1,3.7,1.7,3.7,3.9c-0.1,1.2-0.6,2.2-1.4,2.9c-0.9,0.6-2.1,0.8-3.1,0.8
					c-1.2,0-2.4-0.3-3.5-1l0,0L229.4,73.2L229.4,73.2z"/>
				<g>
					<path d="M247.1,75.5c-0.8,0-0.9,1.2-0.9,1.7c0,0.6,0.2,1.7,0.9,1.7c0.8,0,0.9-1.2,0.9-1.7C248.1,76.7,247.9,75.5,247.1,75.5z"
						/>
					<path d="M245.5,71c-3.1,0-5.7,2.5-5.7,5.7c0,3.1,2.6,5.7,5.7,5.7c3.2,0,5.7-2.6,5.7-5.7S248.6,71,245.5,71z M244.1,80h-1.4
						v-4.4h-0.8v-1.2h2.3V80H244.1z M247.1,80.3c-0.6,0-1.2-0.3-1.6-0.7c-0.5-0.6-0.8-1.5-0.8-2.4s0.3-1.7,0.8-2.4
						c0.4-0.4,0.9-0.6,1.6-0.6c1.7,0,2.4,1.6,2.4,3C249.5,78.7,248.8,80.3,247.1,80.3z"/>
				</g>
				<path d="M242.7,68.5c0.7-0.2,1.4-0.4,2-0.5l0.1-0.1l5.4-2.8l1.7-0.9c-0.1-0.5-0.2-1-0.2-1.5c0-3.9,3.2-7,7-7
					c2,0,3.8,0.8,5.1,2.2l2-1L253.2,33l-2.9,1.6l-5.4,2.8l-5.3,2.8l-21.9,11.6l6.8,12.8c0.9-1.3,2.3-2.3,3.8-2.9l-2.3-4.3l-2.6,1.4
					l-1.4-2.7l5.7-3.1l4.2,7.9c0.3-0.1,0.8-0.1,1.2-0.1c2.6,0,5,0.9,6.8,2.5C241,64.7,242.1,66.5,242.7,68.5 M245.3,57.3
					c-0.1,0.5-0.2,1.1-0.5,1.6c-0.4,0.8-1,1.4-2,1.8c-1.2,0.6-2.3,0.8-3.3,0.5c-0.3-0.1-0.6-0.2-0.9-0.3c-1.4-0.7-2.7-2-3.8-4
					c-1-2-1.4-3.8-1.2-5.3c0.2-1.6,1.1-2.7,2.5-3.5c1.1-0.6,2.3-0.8,3.3-0.5c0.3,0.1,0.6,0.2,0.9,0.4c1.4,0.7,2.7,2.1,3.8,4.1
					c0.2,0.5,0.5,1,0.6,1.5C245.3,54.9,245.5,56.2,245.3,57.3z M256.1,51.6c-0.2,1.6-1.1,2.7-2.5,3.5c-1.1,0.6-2.3,0.8-3.3,0.5
					c-0.3-0.1-0.6-0.2-0.9-0.3c-1.4-0.7-2.7-2-3.7-4c-0.3-0.5-0.5-1-0.7-1.6c-0.5-1.4-0.6-2.6-0.5-3.8c0.1-0.6,0.2-1.1,0.5-1.6
					c0.5-0.8,1.1-1.4,2-1.9c1.2-0.6,2.3-0.8,3.3-0.5c0.3,0.1,0.6,0.2,1,0.4c1.4,0.7,2.6,2,3.7,4.1C255.9,48.3,256.3,50.1,256.1,51.6
					z"/>
				<path class="st1" d="M245.4,70.2c-1.3,0-2.6,0.4-3.6,1.1c-1.7,1.2-2.8,3.1-2.8,5.4c0,0.2,0,0.5,0,0.7c0.4,3.2,3.1,5.7,6.4,5.7
					c3.6,0,6.5-2.9,6.5-6.5C251.9,73.1,249,70.2,245.4,70.2z"/>
				<path class="st1" d="M232.7,63.3c-4.2,0-7.6,3.4-7.6,7.6s3.4,7.6,7.6,7.6c1.8,0,3.4-0.6,4.7-1.7l0,0c0-2.4,1.1-4.6,2.8-6.1
					C240.1,66.5,236.8,63.3,232.7,63.3z"/>
				<path d="M254.2,29.3l-0.7,0.4l-48,25.5l15.1,28.6l8.5-4.5c1.1,0.5,2.3,0.7,3.6,0.7c1.8,0,3.5-0.5,4.9-1.5c0.8,3.6,4,6.2,7.8,6.2
					c4.4,0,8-3.6,8-8s-3.6-8-8-8c-1.3,0-2.6,0.3-3.7,0.9c-0.6-4.4-4.4-7.9-9-7.9c-5,0-9.1,4.1-9.1,9.1c0,3.1,1.5,5.8,3.9,7.5
					c-3.6,1.9-6,3.2-6.3,3.3c-0.7-1.3-13-24.6-13.7-25.9c1.3-0.7,44.7-23.7,46-24.4c0.7,1.3,13,24.6,13.7,25.9
					c-0.2,0.1-1.2,0.6-2.7,1.4c0.3,0.4,0.6,0.9,0.8,1.4l4.1-2.2L254.2,29.3z M241.8,71.3c1-0.7,2.3-1.1,3.6-1.1
					c3.6,0,6.5,2.9,6.5,6.5s-2.9,6.5-6.5,6.5c-3.3,0-6.1-2.5-6.4-5.7c0-0.2,0-0.5,0-0.7C238.9,74.5,240.1,72.5,241.8,71.3z
					 M225.1,70.8c0-4.2,3.4-7.6,7.6-7.6c4.1,0,7.4,3.2,7.5,7.3c-1.7,1.5-2.8,3.7-2.8,6.1l0,0c-1.3,1-2.9,1.7-4.7,1.7
					C228.5,78.4,225.1,75,225.1,70.8z"/>
				<path d="M258.7,56.4c-3.5,0-6.4,2.9-6.4,6.4s2.9,6.4,6.4,6.4s6.4-2.9,6.4-6.4C265.1,59.2,262.3,56.4,258.7,56.4z M258.7,68
					c-2.9,0-5.2-2.3-5.2-5.2c0-2.9,2.3-5.2,5.2-5.2c2.9,0,5.2,2.3,5.2,5.2C264,65.6,261.6,68,258.7,68z"/>
			</g>
		</g>
		<path d="M287.7,39.3v34h-11.8h-0.7c-0.6,0-1.1-0.1-1.5-0.3c-0.3-0.2-0.5-0.5-0.5-1c0-0.7,0.4-1.1,1.1-1.3c0.6-0.2,0.9-0.3,1-0.3
			s0.2-0.1,0.3-0.3c0.2-0.3,0.3-0.7,0.3-1.3v-25c0-0.6-0.1-1-0.3-1.3c-0.1-0.1-0.2-0.2-0.3-0.3c-0.1,0-0.4-0.2-1-0.3
			c-0.7-0.2-1.1-0.7-1.1-1.3c0-0.4,0.2-0.7,0.5-1c0.3-0.2,0.8-0.3,1.5-0.3h0.7L287.7,39.3L287.7,39.3z M295.9,55.7
			c1.6,0.3,2.8,0.6,3.7,0.9c0.9,0.3,1.6,0.6,2.3,1.1c1.2,0.7,2.1,1.7,2.7,2.8c0.6,1.2,0.9,2.5,0.9,3.9c0,2.8-1.1,5.1-3.3,6.7
			c-1.2,0.8-2.4,1.4-3.8,1.8c-1.4,0.3-3.2,0.5-5.5,0.5h-3.2v-2.6c0.7,0,1.9-0.1,2.3-0.3c0.4-0.1,0.8-0.4,1.1-0.7
			c0.6-0.6,0.9-1.6,0.9-2.9v-5.7c0-0.8-0.1-1.5-0.2-1.9c-0.2-0.5-0.4-0.9-0.8-1.3c-0.3-0.3-0.6-0.5-1-0.6s-1.5-0.2-2.1-0.3v-2.6
			c0.7,0,1.8-0.1,2.1-0.2c0.4-0.1,0.7-0.3,1-0.6c0.3-0.2,0.5-0.6,0.7-1s0.3-0.8,0.3-1.1v-1.4v-4.3c0-0.4-0.1-0.9-0.2-1.4
			c-0.2-0.5-0.4-0.9-0.6-1.2c-0.3-0.4-0.7-0.7-1.1-0.8c-0.4-0.2-1.6-0.3-2.3-0.4v-2.7h3c4,0,7.1,0.8,9.2,2.3c1,0.7,1.7,1.6,2.2,2.6
			s0.8,2.1,0.8,3.3c0,1.2-0.3,2.3-0.8,3.3s-1.3,1.9-2.2,2.6c-0.7,0.5-1.5,1-2.4,1.3C298.8,55.1,297.6,55.4,295.9,55.7z"/>
		<path d="M316.6,45.7l1.4,5.2L313.3,67c-0.1,0.5-0.2,0.9-0.2,1.3c0,1,0.5,1.8,1.6,2.2l0.9,0.4c0.6,0.2,0.9,0.7,0.9,1.2
			c0,0.8-0.6,1.2-1.9,1.2h-6.7c-0.7,0-1.2-0.1-1.6-0.4s-0.6-0.6-0.6-1.1s0.4-0.9,1.2-1.2c0.7-0.3,1.3-0.6,1.6-0.8
			c0.3-0.2,0.7-0.6,1-1c0.5-0.7,0.9-1.6,1.2-2.7L316.6,45.7z M318.4,39.3h10.7l7.4,29.3c0.1,0.5,0.3,1,0.5,1.4
			c0.2,0.3,0.5,0.6,1.1,0.8c0.5,0.2,0.8,0.4,1,0.5c0.2,0.2,0.3,0.4,0.3,0.7c0,0.9-0.7,1.3-2.1,1.3h-13.2c-0.5,0-1-0.1-1.3-0.4
			c-0.3-0.2-0.5-0.6-0.5-1c0-0.3,0.1-0.6,0.2-0.7c0.1-0.2,0.5-0.4,1-0.6c0.4-0.2,0.6-0.3,0.7-0.5s0.2-0.4,0.2-0.7
			c0-0.3,0-0.5-0.1-0.7l-0.8-3.6h-7.4l0.7-3h5.9l-4.9-20.3L318.4,39.3z"/>
		<path d="M345.1,48.1l2.8,4.4v13.4c0,1.2,0.2,2.1,0.6,2.9c0.4,0.7,1.1,1.4,2,1.8l0.8,0.4c0.5,0.2,0.7,0.6,0.7,1.1
			c0,0.4-0.2,0.7-0.5,0.9c-0.3,0.2-0.9,0.3-1.7,0.3h-6.1c-1.6,0-2.4-0.4-2.4-1.3c0-0.3,0.1-0.5,0.3-0.7c0.2-0.2,0.5-0.4,1.1-0.7
			c1.7-0.9,2.5-2.5,2.5-4.8L345.1,48.1L345.1,48.1z M356.2,39.3l14.1,23v11h-7.2l-18-29.2c-0.4-0.6-0.7-1.1-1-1.3
			c-0.2-0.2-0.6-0.4-1-0.5l-1-0.3c-0.3-0.1-0.5-0.2-0.6-0.4c-0.2-0.2-0.2-0.5-0.2-0.7c0-0.3,0.1-0.5,0.2-0.8
			c0.2-0.2,0.4-0.4,0.6-0.5c0.3-0.1,1.1-0.2,2.4-0.2h11.7V39.3z M370.3,58.4l-2.8-4.5V47c0-1.4-0.2-2.5-0.7-3.2
			c-0.4-0.7-1.2-1.4-2.3-1.9c-0.4-0.2-0.6-0.3-0.8-0.5c-0.1-0.2-0.2-0.4-0.2-0.7c0-0.4,0.2-0.8,0.5-1s0.8-0.3,1.5-0.3h6.6
			c0.9,0,1.5,0.1,1.8,0.4s0.5,0.6,0.5,0.9s-0.1,0.6-0.3,0.8c-0.2,0.2-0.6,0.4-1.2,0.7c-0.9,0.4-1.6,1.1-2.1,2.1
			c-0.3,0.7-0.5,1.6-0.5,2.8V58.4z"/>
		<path d="M391.2,73.4h-11.8h-0.7c-0.6,0-1.1-0.1-1.5-0.3c-0.3-0.2-0.5-0.5-0.5-1c0-0.7,0.4-1.1,1.1-1.3c0.6-0.2,0.9-0.3,1-0.3
			s0.2-0.1,0.3-0.3c0.2-0.3,0.3-0.7,0.3-1.3v-25c0-0.6-0.1-1-0.3-1.3c-0.1-0.1-0.2-0.2-0.3-0.3c-0.1,0-0.4-0.2-1-0.3
			c-0.7-0.2-1.1-0.7-1.1-1.3c0-0.4,0.2-0.7,0.5-1c0.3-0.2,0.8-0.3,1.5-0.3h0.7h11.8h0.7c0.6,0,1.1,0.1,1.5,0.3
			c0.3,0.2,0.5,0.5,0.5,1c0,0.7-0.4,1.1-1.1,1.3c-0.6,0.2-0.9,0.3-1,0.3s-0.2,0.1-0.3,0.3c-0.2,0.3-0.3,0.7-0.3,1.3v25
			c0,0.9,0.3,1.5,0.8,1.6l0.8,0.2c0.7,0.2,1,0.6,1,1.3c0,0.9-0.6,1.3-1.9,1.3L391.2,73.4L391.2,73.4z M401.7,49.2l8,19.7
			c0.2,0.5,0.4,0.9,0.7,1.2c0.2,0.3,0.5,0.5,0.9,0.6c0.4,0.2,0.6,0.3,0.7,0.4c0.2,0.2,0.4,0.5,0.4,0.9c0,0.9-0.7,1.3-2,1.3h-13.3
			c-0.6,0-1.1-0.1-1.5-0.4c-0.3-0.2-0.5-0.6-0.5-1.1s0.3-0.9,1-1.2c0.4-0.2,0.7-0.3,0.8-0.5c0.1-0.1,0.2-0.3,0.2-0.5
			c0-0.1-0.1-0.4-0.2-0.8l-3.4-9.4c-0.3-0.9-0.5-1.6-0.5-2.2s0.3-1.2,0.8-1.9l6.3-8.4c0.6-0.8,0.9-1.6,0.9-2.4
			c0-0.5-0.1-0.9-0.4-1.3s-0.6-0.7-1.1-0.8l-1-0.4c-0.6-0.2-0.9-0.6-0.9-1.2c0-0.4,0.2-0.8,0.6-1.1c0.2-0.2,0.7-0.3,1.2-0.3h9.4
			c0.6,0,1.1,0.1,1.4,0.4s0.5,0.6,0.5,1.1c0,0.7-0.4,1.2-1.2,1.5l-1.4,0.5c-0.6,0.2-1.3,0.6-2.2,1.3c-0.7,0.5-1.5,1.4-2.5,2.7
			L401.7,49.2z"/>
		<path d="M56,39.3v29.3c0,0.6,0.1,1.1,0.4,1.4c0.1,0.2,0.3,0.3,0.4,0.3c0.1,0,0.5,0.1,1.2,0.3c0.8,0.2,1.3,0.6,1.3,1.4
			c0,0.4-0.2,0.8-0.7,1c-0.3,0.2-0.9,0.3-1.7,0.3H56H44.2h-0.7c-0.6,0-1.1-0.1-1.5-0.3c-0.3-0.2-0.5-0.5-0.5-1
			c0-0.7,0.4-1.1,1.1-1.3c0.6-0.2,0.9-0.3,1-0.3s0.2-0.1,0.3-0.3c0.2-0.3,0.3-0.7,0.3-1.3v-25c0-0.6-0.1-1-0.3-1.3
			c-0.1-0.1-0.2-0.2-0.3-0.3c-0.1,0-0.4-0.2-1-0.3c-0.7-0.2-1.1-0.7-1.1-1.3c0-0.4,0.2-0.7,0.5-1c0.3-0.2,0.8-0.3,1.5-0.3h0.7
			L56,39.3L56,39.3z M58.2,57.5v-2.9c1-0.5,1.8-1,2.3-1.5s0.8-1.3,1.1-2.2c0.1-0.6,0.3-1.1,0.6-1.3c0.2-0.2,0.6-0.4,1-0.4
			c0.6,0,1,0.2,1.2,0.6c0.1,0.2,0.2,0.7,0.2,1.5v9.5c0,0.8-0.1,1.3-0.3,1.6c-0.2,0.3-0.5,0.4-1,0.4c-0.4,0-0.7-0.1-1-0.3
			c-0.2-0.2-0.4-0.6-0.6-1.2c-0.3-1.1-0.8-2-1.3-2.6C59.8,58.1,59.1,57.7,58.2,57.5z M58.4,39.3h10.7V48c0,0.6-0.1,1-0.3,1.2
			s-0.6,0.4-1,0.4s-0.6-0.1-0.8-0.3c-0.2-0.2-0.4-0.5-0.5-0.9c-0.3-0.8-0.6-1.6-1-2.2c-0.4-0.7-0.9-1.3-1.4-1.7
			c-0.7-0.7-1.5-1.2-2.4-1.5s-1.9-0.6-3.1-0.7v-3H58.4z"/>
		<path d="M85.7,41.4c-0.9,0.3-1.5,0.7-1.9,1.2s-0.6,1.3-0.6,2.3v22.3c0,1.5,0.2,2.5,0.6,3.1c0.3,0.5,0.9,0.9,1.8,1.1v2.7
			c-3.9-0.3-7.2-1.7-9.9-4.2c-3.4-3.2-5.2-7.7-5.2-13.5c0-2.9,0.5-5.5,1.4-7.8s2.3-4.3,4-5.9c1.4-1.2,2.8-2.2,4.4-2.8
			c1.6-0.6,3.3-1,5.2-1.1v2.6H85.7z M87.9,41.4v-2.7c1.9,0.1,3.7,0.4,5.2,1.1c1.6,0.6,3.1,1.6,4.4,2.8c3.6,3.3,5.4,7.9,5.4,13.8
			c0,5.8-1.7,10.3-5.2,13.5c-2.7,2.5-6,3.9-9.9,4.2v-2.7c0.5-0.1,0.8-0.2,1.1-0.4c0.3-0.2,0.5-0.4,0.7-0.7c0.5-0.7,0.7-1.7,0.7-3.1
			V44.9c0-0.9-0.2-1.6-0.5-2.1c-0.2-0.3-0.5-0.6-0.8-0.8C88.9,41.7,88.4,41.5,87.9,41.4z"/>
		<path d="M119,39.3v29.3c0,0.6,0.1,1.1,0.4,1.4c0.1,0.2,0.3,0.3,0.4,0.3c0.1,0,0.5,0.1,1.2,0.3c0.8,0.2,1.3,0.6,1.3,1.4
			c0,0.4-0.2,0.8-0.7,1c-0.3,0.2-0.9,0.3-1.7,0.3H119h-11.8h-0.7c-0.6,0-1.1-0.1-1.5-0.3c-0.3-0.2-0.5-0.5-0.5-1
			c0-0.7,0.4-1.1,1.1-1.3c0.6-0.2,0.9-0.3,1-0.3s0.2-0.1,0.3-0.3c0.2-0.3,0.3-0.7,0.3-1.3v-25c0-0.6-0.1-1-0.3-1.3
			c-0.1-0.1-0.2-0.2-0.3-0.3c-0.1,0-0.4-0.2-1-0.3c-0.7-0.2-1.1-0.7-1.1-1.3c0-0.4,0.2-0.7,0.5-1c0.3-0.2,0.8-0.3,1.5-0.3h0.7
			L119,39.3L119,39.3z M127.1,56.7c1.6,0.2,2.9,0.5,3.8,0.8c0.9,0.3,1.7,0.7,2.4,1.1c0.7,0.5,1.3,1.1,1.7,1.8
			c0.4,0.7,0.6,1.5,0.6,2.3v5.2c0,0.5,0.2,0.8,0.6,0.8c0.1,0,0.3,0,0.4-0.1c0.1-0.1,0.2-0.2,0.4-0.4c0.4-0.6,0.9-0.8,1.4-0.8
			c0.3,0,0.6,0.1,0.9,0.4c0.3,0.3,0.5,0.6,0.5,0.9c0,0.5-0.3,1.1-0.8,1.9c-0.5,0.7-1.2,1.4-1.9,2c-0.7,0.5-1.5,0.9-2.4,1.2
			c-0.8,0.2-1.8,0.4-3,0.4c-2.3,0-4.3-0.4-5.5-1.9c-1.1-1.4-0.9-3-0.9-5.2v-4.2c0-0.9,0-1.5,0-1.6c-0.1-0.7-0.3-1.2-0.7-1.7
			c-0.5-0.6-2.3-0.9-3.3-1v-2.7c1-0.1,0.8-0.1,2.1-0.4c1.4-0.3,1.8-0.9,1.9-1.3c0.1-0.4,0.2-0.9,0.2-1.7v-6.6c0-1-0.2-1.8-0.6-2.3
			c-0.8-1.1-2.4-0.9-3.6-1.2v-2.8h0.7c2,0,3.6,0.1,5,0.2c2.1,0.2,3.9,0.8,5.5,1.9c2.3,1.5,3.5,3.8,3.5,6.6c0,2.3-0.8,4.3-2.3,5.8
			c-0.7,0.6-1.4,1.1-2.3,1.5C130.2,55.7,128.9,56.2,127.1,56.7z"/>
		<path d="M156.2,39.3v34h-11.8h-0.7c-0.6,0-1.1-0.1-1.5-0.3c-0.3-0.2-0.5-0.5-0.5-1c0-0.7,0.4-1.1,1.1-1.3c0.6-0.2,0.9-0.3,1-0.3
			s0.2-0.1,0.3-0.3c0.2-0.3,0.3-0.7,0.3-1.3v-25c0-0.6-0.1-1-0.3-1.3c-0.1-0.1-0.2-0.2-0.3-0.3c-0.1,0-0.4-0.2-1-0.3
			c-0.7-0.2-1.1-0.7-1.1-1.3c0-0.4,0.2-0.7,0.5-1c0.3-0.2,0.8-0.3,1.5-0.3h0.7L156.2,39.3L156.2,39.3z M158.4,57.5v-2.9
			c1-0.5,1.8-1,2.3-1.5s0.9-1.3,1.1-2.2c0.1-0.6,0.3-1.1,0.6-1.3c0.2-0.2,0.6-0.4,1-0.4c0.6,0,1,0.2,1.2,0.6
			c0.1,0.2,0.2,0.7,0.2,1.5v9.5c0,0.8-0.1,1.3-0.3,1.6c-0.2,0.3-0.5,0.4-1,0.4c-0.4,0-0.7-0.1-1-0.3c-0.2-0.2-0.4-0.6-0.6-1.2
			c-0.3-1.1-0.7-2-1.3-2.6C160,58.1,159.3,57.7,158.4,57.5z M158.6,39.3h10.7v8.8c0,0.5-0.1,0.9-0.3,1.1s-0.5,0.3-1,0.3
			c-0.4,0-0.7-0.1-0.8-0.2c-0.2-0.1-0.3-0.5-0.5-0.9c-0.7-1.9-1.7-3.4-3-4.4s-3-1.6-5.1-1.8L158.6,39.3L158.6,39.3z M158.6,73.4
			v-2.7c1.1-0.2,2.1-0.4,2.9-0.7c0.8-0.3,1.5-0.8,2.3-1.4s1.4-1.3,1.8-1.9c0.5-0.7,0.9-1.5,1.3-2.6c0.2-0.5,0.4-0.9,0.6-1.1
			c0.2-0.2,0.5-0.3,0.9-0.3c0.5,0,0.8,0.1,1,0.4s0.3,0.8,0.3,1.4v8.8h-11.1V73.4z"/>
		<path d="M188.7,43.7L202,69.2c0.3,0.6,0.8,1,1.3,1.3c0.5,0.2,0.8,0.4,1,0.6s0.3,0.5,0.3,0.8c0,0.4-0.2,0.8-0.5,1.1
			c-0.3,0.2-0.9,0.3-1.9,0.3h-12.4c-1,0-1.6-0.1-1.9-0.2c-0.6-0.2-0.9-0.7-0.9-1.3c0-0.2,0.1-0.4,0.2-0.6s0.4-0.4,0.7-0.6
			c0.6-0.4,0.9-0.8,0.9-1.1c0-0.3-0.2-0.7-0.5-1.3l-13-24.7c-0.2-0.4-0.4-0.7-0.7-1c-0.2-0.2-0.6-0.5-1-0.7s-0.6-0.3-0.7-0.5
			s-0.2-0.5-0.2-0.8c0-0.5,0.2-0.8,0.6-1s1.1-0.3,2-0.3h12.2c0.9,0,1.6,0.1,1.9,0.3c0.4,0.2,0.6,0.6,0.6,1c0,0.5-0.3,0.9-0.9,1.3
			c-0.3,0.2-0.4,0.3-0.5,0.5c-0.1,0.1-0.1,0.3-0.1,0.5C188.4,43.2,188.5,43.4,188.7,43.7z M182.1,61.2l1.5,2.8l-1.6,2.5
			c-0.6,0.9-0.9,1.7-0.9,2.2c0,0.8,0.5,1.4,1.4,1.7c0.5,0.2,0.9,0.4,1.1,0.6s0.3,0.5,0.3,0.8c0,0.5-0.2,0.8-0.6,1.1
			c-0.2,0.1-0.3,0.2-0.5,0.2s-0.6,0-1.1,0h-6.8c-0.6,0-1-0.1-1.3-0.3c-0.3-0.2-0.5-0.5-0.5-0.9c0-0.3,0.1-0.6,0.3-0.8
			c0.2-0.2,0.6-0.4,1.1-0.6c1.3-0.5,2.4-1.3,3.1-2.4L182.1,61.2z M194.6,50.6l-1.5-2.8l1.5-2.4c0.3-0.5,0.5-1,0.5-1.4
			s-0.1-0.7-0.4-1.1c-0.2-0.3-0.6-0.6-0.9-0.8l-0.9-0.4c-0.2-0.1-0.3-0.2-0.5-0.5c-0.1-0.2-0.2-0.5-0.2-0.7c0-0.4,0.1-0.7,0.5-0.9
			c0.3-0.2,0.7-0.3,1.2-0.3h7.7c0.5,0,0.9,0.1,1.2,0.3c0.3,0.2,0.5,0.5,0.5,0.8c0,0.4-0.2,0.7-0.5,1c-0.1,0.1-0.5,0.3-1.1,0.6
			c-1.3,0.6-2.3,1.6-3.1,2.8L194.6,50.6z"/>
	</g>
</g>
<g id="Lager_2">
</g>
</svg>
