<?xml version="1.0" encoding="UTF-8" standalone="no"?>
<svg
   xmlns:dc="http://purl.org/dc/elements/1.1/"
   xmlns:cc="http://creativecommons.org/ns#"
   xmlns:rdf="http://www.w3.org/1999/02/22-rdf-syntax-ns#"
   xmlns:svg="http://www.w3.org/2000/svg"
   xmlns="http://www.w3.org/2000/svg"
   viewBox="0 0 358.30667 57.146667"
   height="57.146667"
   width="358.30667"
   xml:space="preserve"
   id="svg2"
   version="1.1"><metadata
     id="metadata8"><rdf:RDF><cc:Work
         rdf:about=""><dc:format>image/svg+xml</dc:format><dc:type
           rdf:resource="http://purl.org/dc/dcmitype/StillImage" /></cc:Work></rdf:RDF></metadata><defs
     id="defs6" /><g
     transform="matrix(1.3333333,0,0,-1.3333333,0,57.146667)"
     id="g10"><g
       transform="scale(0.1)"
       id="g12"><path
         id="path14"
         style="fill:#ee2824;fill-opacity:1;fill-rule:nonzero;stroke:none"
         d="M 0,7.76563 H 102.473 L 102.48,414.063 0.015625,414.043 0,7.76563" /><path
         id="path16"
         style="fill:#ee2824;fill-opacity:1;fill-rule:nonzero;stroke:none"
         d="m 456.969,174.914 -11.196,-19.672 c -16.218,-27.652 -44.867,-47.383 -75.996,-51.379 -44.129,-6.4138 -86.754,13.41 -110.207,51.739 -10.441,17.269 -15.414,37.105 -14.949,58.714 1.508,31.735 15.613,59.071 40.176,80.571 14.531,9.754 29.683,17.898 47.004,20.629 27.027,5.55 54.387,-0.856 76.379,-13.325 l 50.355,88.563 c -0.543,1.316 -0.531,0.969 -1.539,1.703 -20.035,12.637 -36.691,18.781 -57.078,23.059 -54.465,13.789 -113.371,1.98 -157.902,-26.086 -42.852,-25.032 -74.243,-69.418 -89.27,-113.395 -2.851,-9.879 -5.855,-27.535 -7.305,-38.094 -7.625,-64.554 7.364,-114.078 44.332,-160.9566 23.582,-31.2617 57.973,-53.9063 93.344,-65.6406 49.008,-17.58989 114.469,-14.75396 159.828,8.7265 42.934,18.918 80.969,60.3867 102.305,101.6247 l 39.805,71.797 11.621,20.578 48.691,-86.828 -35.812,-0.32 -39.856,-74.2736 117.176,0.0704 c 0,0 17.398,-29.9571 25.766,-44.98442 H 830.832 L 596.098,428.617 456.969,174.914" /><path
         id="path18"
         style="fill:#ee2824;fill-opacity:1;fill-rule:nonzero;stroke:none"
         d="M 1057.32,54.9766 H 987.617 V 200.199 h 69.703 c 37.76,0 80.74,-20.324 80.74,-72.601 0,-52.2816 -42.98,-72.6214 -80.74,-72.6214 z M 987.617,366.34 h 69.703 c 33.69,0 66.22,-20.336 66.22,-60.996 0,-40.078 -31.95,-60.418 -66.22,-60.418 H 987.617 Z M 1125.87,228.09 c 30.77,16.836 50.53,46.461 50.53,84.805 0,52.863 -42.41,101.074 -116.18,101.074 h -121.4 c -3.484,0 -5.234,-1.75 -5.234,-5.235 V 12.582 c 0,-3.48434 1.75,-5.23434 5.234,-5.23434 h 123.73 c 83.64,0 129.54,52.28124 129.54,117.92934 0,49.95 -25.56,85.957 -66.22,102.813" /><path
         id="path20"
         style="fill:#ee2824;fill-opacity:1;fill-rule:nonzero;stroke:none"
         d="m 1501.93,312.313 h -24.98 c -3.48,0 -5.23,-1.153 -6.4,-4.071 l -10.45,-26.707 c -18.59,21.488 -47.63,36.012 -87.71,36.012 -90.62,0 -147.54,-73.77 -147.54,-158.008 0,-83.6406 55.77,-156.82416 146.38,-156.82416 12.2,0 26.14,2.31641 34.27,5.21875 2.9,1.16407 4.07,2.89841 5.24,5.23441 l 19.74,45.3086 c 1.75,4.0547 0,6.3867 -4.66,4.0547 -12.77,-5.8047 -29.62,-9.2891 -47.04,-9.2891 -62.15,0 -101.66,44.7305 -101.66,106.2968 0,61.582 38.93,107.461 97.01,107.461 54.03,0 80.75,-34.844 80.75,-60.398 V 12.582 c 0,-3.48434 1.74,-5.23434 5.22,-5.23434 h 41.83 c 3.48,0 5.23,1.75 5.23,5.23434 v 294.512 c 0,3.484 -1.75,5.219 -5.23,5.219" /><path
         id="path22"
         style="fill:#ee2824;fill-opacity:1;fill-rule:nonzero;stroke:none"
         d="m 1702.73,317.547 c -41.83,0 -73.77,-18.008 -92.94,-47.629 v 37.176 c 0,3.484 -1.75,5.219 -5.24,5.219 h -38.91 c -3.48,0 -5.23,-1.735 -5.23,-5.219 V 12.582 c 0,-3.48434 1.75,-5.23434 5.23,-5.23434 h 41.83 c 3.48,0 5.22,1.75 5.22,5.23434 v 168.461 c 0,56.914 36.59,85.957 80.17,85.957 42.98,0 77.83,-27.875 77.83,-87.707 V 12.582 c 0,-3.48434 1.74,-5.23434 5.22,-5.23434 h 41.83 c 3.49,0 5.24,1.75 5.24,5.23434 v 172.512 c 0,83.074 -48.22,132.453 -120.25,132.453" /><path
         id="path24"
         style="fill:#ee2824;fill-opacity:1;fill-rule:nonzero;stroke:none"
         d="m 1980.26,181.043 120.25,124.883 c 3.48,3.484 2.32,6.387 -2.32,6.387 h -52.28 c -2.92,0 -4.65,-0.586 -6.97,-2.903 L 1926.83,189.746 v 218.899 c 0,3.484 -1.75,5.234 -5.23,5.234 h -41.83 c -3.49,0 -5.22,-1.75 -5.22,-5.234 V 12.582 c 0,-3.48434 1.73,-5.23434 5.22,-5.23434 h 41.83 c 3.48,0 5.23,1.75 5.23,5.23434 V 168.84 L 2048.81,10.25 c 1.74,-1.73437 3.49,-2.90234 6.39,-2.90234 h 50.54 c 4.64,0 5.8,2.90234 3.49,6.40234 l -128.97,167.293" /><path
         id="path26"
         style="fill:#ee2824;fill-opacity:1;fill-rule:nonzero;stroke:none"
         d="m 2246.14,318.129 c -87.7,0 -145.79,-70.285 -145.79,-158.59 0,-88.8749 60.99,-157.99212 151.61,-157.99212 39.49,0 73.77,9.87112 100.49,31.94142 2.32,1.75 2.9,4.0703 1.15,6.9687 l -19.15,33.6914 c -1.75,2.918 -4.07,2.918 -6.99,1.168 -13.93,-10.4531 -40.07,-22.6562 -72.02,-22.6562 -65.65,0 -102.82,45.8945 -102.82,107.4608 0,61.582 34.27,108.047 93.52,108.047 55.18,0 81.91,-36.012 87.14,-84.223 h -127.8 c -2.9,0 -4.65,-1.168 -5.8,-4.07 l -14.52,-34.273 c -1.75,-4.067 0,-6.387 3.48,-6.387 h 189.95 c 2.9,0 4.64,1.734 5.22,4.652 1.17,6.387 1.17,16.254 1.17,21.488 0,84.805 -49.38,152.774 -138.84,152.774" /><path
         id="path28"
         style="fill:#ee2824;fill-opacity:1;fill-rule:nonzero;stroke:none"
         d="m 2567.02,317.547 c -41.83,0 -73.77,-18.008 -92.94,-47.629 v 37.176 c 0,3.484 -1.75,5.219 -5.24,5.219 h -38.91 c -3.48,0 -5.23,-1.735 -5.23,-5.219 V 12.582 c 0,-3.48434 1.75,-5.23434 5.23,-5.23434 h 41.83 c 3.49,0 5.22,1.75 5.22,5.23434 v 168.461 c 0,56.914 36.59,85.957 80.17,85.957 42.98,0 77.84,-27.875 77.84,-87.707 V 12.582 c 0,-3.48434 1.73,-5.23434 5.22,-5.23434 h 41.82 c 3.49,0 5.24,1.75 5.24,5.23434 v 172.512 c 0,83.074 -48.22,132.453 -120.25,132.453" /></g></g></svg>