<?xml version="1.0" encoding="UTF-8" standalone="no"?>
<svg
   xmlns:dc="http://purl.org/dc/elements/1.1/"
   xmlns:cc="http://creativecommons.org/ns#"
   xmlns:rdf="http://www.w3.org/1999/02/22-rdf-syntax-ns#"
   xmlns:svg="http://www.w3.org/2000/svg"
   xmlns="http://www.w3.org/2000/svg"
   viewBox="0 0 328.92001 139.32001"
   height="139.32001"
   width="328.92001"
   xml:space="preserve"
   id="svg2"
   version="1.1"><metadata
     id="metadata8"><rdf:RDF><cc:Work
         rdf:about=""><dc:format>image/svg+xml</dc:format><dc:type
           rdf:resource="http://purl.org/dc/dcmitype/StillImage" /></cc:Work></rdf:RDF></metadata><defs
     id="defs6" /><g
     transform="matrix(1.3333333,0,0,-1.3333333,0,139.32)"
     id="g10"><g
       transform="scale(0.1)"
       id="g12"><path
         id="path14"
         style="fill:#ed1c24;fill-opacity:1;fill-rule:nonzero;stroke:none"
         d="M 2462.89,0 V 477.109 H 0 V 0 h 2462.89" /><path
         id="path16"
         style="fill:#ffffff;fill-opacity:1;fill-rule:nonzero;stroke:none"
         d="m 686.555,263.582 h 47.461 c 23.726,0 47.429,5.266 47.429,24.973 0,19.121 -25,24.961 -47.429,24.961 h -47.461 z m 0,-97.977 h 52.625 c 22.851,0 45.285,7.403 45.285,25.868 0,20.949 -18.957,25.91 -45.285,25.91 H 686.555 Z M 593.34,356.043 h 159.211 c 73.797,0 122.105,-22.207 122.105,-61.035 0,-27.723 -31.07,-44.344 -65.164,-51.453 v -0.617 c 41.004,-6.141 73.34,-25.555 73.34,-57.305 0,-29.903 -23.699,-62.559 -118.621,-62.559 H 593.34 v 232.969" /><path
         id="path18"
         style="fill:#ffffff;fill-opacity:1;fill-rule:nonzero;stroke:none"
         d="m 1014.87,215.535 h 69.48 l -32.8,76.094 h -0.87 z m -5.16,140.508 h 100.51 l 111.75,-232.969 h -97.08 l -19.41,44.375 H 994.16 L 973.027,123.074 H 899.23 l 110.48,232.969" /><path
         id="path20"
         style="fill:#ffffff;fill-opacity:1;fill-rule:nonzero;stroke:none"
         d="m 1262.52,356.043 h 86.71 L 1465.29,232.48 h 0.85 v 123.563 h 71.62 V 123.074 h -69.87 L 1335.01,254.98 h -0.87 V 123.074 h -71.62 v 232.969" /><path
         id="path22"
         style="fill:#ffffff;fill-opacity:1;fill-rule:nonzero;stroke:none"
         d="m 1601.2,356.043 h 93.18 v -93.367 h 0.86 l 95.36,93.367 h 88.85 l -80.25,-77.039 101.43,-155.93 h -99.67 l -64.29,99.543 -42.29,-40.363 v -59.18 h -93.18 v 232.969" /><path
         id="path24"
         style="fill:#ed1c24;fill-opacity:1;fill-rule:nonzero;stroke:none"
         d="M 0.03125,589.773 H 52.4297 V 1010.5 H 0.03125 v 26.26 H 281.453 V 1010.5 H 229.07 V 589.773 h 52.383 V 562.176 H 0.03125 v 27.597" /><path
         id="path26"
         style="fill:#ed1c24;fill-opacity:1;fill-rule:nonzero;stroke:none"
         d="m 2209.05,568.348 c 32.14,0 49.65,25.293 49.65,82.726 V 943.73 c 0,57.43 -17.51,82.06 -49.65,82.06 -32.16,0 -48.97,-25.28 -48.97,-82.06 V 651.074 c 0,-56.769 16.81,-82.726 48.97,-82.726 z M 2021.02,970.41 c 47.21,48.54 112.11,74.53 188.03,74.53 153.2,0 257.83,-110.096 257.83,-247.538 0,-137.441 -104.63,-248.222 -257.83,-248.222 -66.29,0 -125.11,20.515 -169.6,57.461 -53.98,44.433 -87.51,117.586 -87.51,190.761 0,64.297 26.67,129.93 69.08,173.008" /><path
         id="path28"
         style="fill:#ed1c24;fill-opacity:1;fill-rule:nonzero;stroke:none"
         d="m 1798.73,1036.76 v -26.26 h 2.45 c 51.96,0 59.13,-12.316 59.13,-53.332 V 783.633 l -183.27,253.127 h -233.87 v -26.26 c 0,0 0.73,0 2.47,0 10.82,0 29.19,-2.37 37.23,-13.508 2.94,-4.094 8.79,-12.168 15.44,-21.359 V 642.391 c 0,-41.024 -2.45,-52.645 -53.74,-52.645 h -1.4 v -27.57 h 146.6 v 27.57 c -1.06,0 -2.06,0.02 -3.05,0.02 -50.65,0 -55.04,11.484 -55.04,52.625 v 291.964 l 268.88,-372.179 h 91.82 v 394.992 c 0,41.016 7.13,53.332 58.4,53.332 h 4.16 v 26.26 h -156.21" /><path
         id="path30"
         style="fill:#ed1c24;fill-opacity:1;fill-rule:nonzero;stroke:none"
         d="m 1026.51,745.047 56.95,161.965 58.76,-161.965 z m 363.41,-155.274 -162.7,446.987 H 1097.78 L 957.719,643.719 c -8.836,-24.93 -22.313,-41.16 -41.453,-49.024 -5.989,-2.441 -14.34,-4.922 -22.539,-4.922 -4.411,0 -20.758,0 -20.758,0 L 689.691,907.852 c 0,0 60.43,60.457 66.664,66.718 19.708,19.735 51.239,31.66 73.895,34.1 9.93,1.04 22.902,1.83 34.215,1.83 v 26.26 h -216.77 v -26.26 h 22.387 c 10.773,0 32.461,0.38 40.773,-13.969 5.586,-9.609 2.282,-25.125 -10.218,-37.625 L 548.277,806.094 V 1010.5 h 44.789 v 26.26 H 320.625 v -26.26 h 47.598 V 589.773 h -47.598 v -27.597 h 272.219 v 27.597 H 548.277 V 805.379 L 672.398,589.773 h -51.003 v -27.597 h 408.815 v 27.676 h -6.8 c -3.36,0 -11.82,0.722 -13.55,1.164 -33.551,8.66 -25.563,34.043 -18.809,53.183 l 24.439,69.559 h 138.3 l 44.65,-123.985 h -41.06 v -27.597 h 263.77 v 27.597 h -31.23" /></g></g></svg>