<?xml version="1.0" encoding="utf-8"?>
<!-- Generator: Adobe Illustrator 22.1.0, SVG Export Plug-In . SVG Version: 6.00 Build 0)  -->
<svg version="1.1" id="Lager_1" xmlns="http://www.w3.org/2000/svg" xmlns:xlink="http://www.w3.org/1999/xlink" x="0px" y="0px"
	 viewBox="0 0 283.5 99.6" style="enable-background:new 0 0 283.5 99.6;" xml:space="preserve">
<style type="text/css">
	.st0{fill:#01BAE8;}
</style>
<g>
	<path class="st0" d="M49.9,99.6c27.5,0,49.8-22.3,49.8-49.8C99.7,22.3,77.4,0,49.9,0C22.4,0,0.1,22.3,0.1,49.8
		C0.1,77.3,22.4,99.6,49.9,99.6"/>
	<g>
		<g>
			<path d="M276.8,24.1c-1-2.5-2.9-3.8-4.9-3.8H270c-2.5,0-3.7,0.9-3.7,2.5c0,2.5,3.7,2.4,7.2,3.2c4.8,1,9.8,2.7,9.8,8.7
				c0,5.6-3.9,10.6-11.4,10.6H270c-5.4,0-8.4-2.3-10.3-5.2c-0.7-1.1-1.2-2.2-1.2-2.5l6.7-2.8c1,2.5,2.9,3.8,4.8,3.8h1.9
				c2.5,0,3.9-1.4,3.9-2.9c0-2.5-3.7-2.3-7.3-3.1c-4.8-0.9-9.6-2.6-9.6-8.8c0-6.5,5.2-10.3,11.2-10.3h1.9c5.3,0,8.3,2.1,10.2,4.9
				c0.7,1,1.4,2.5,1.4,2.8L276.8,24.1z"/>
			<path d="M194.4,24.1c-1-2.5-2.9-3.8-4.9-3.8h-1.9c-2.5,0-3.7,0.9-3.7,2.5c0,2.5,3.7,2.4,7.2,3.2c4.8,1,9.8,2.7,9.8,8.7
				c0,5.6-3.9,10.6-11.4,10.6h-1.9c-5.4,0-8.4-2.3-10.3-5.2c-0.7-1.1-1.2-2.2-1.2-2.5l6.7-2.8c1,2.5,2.9,3.8,4.8,3.8h1.9
				c2.5,0,3.9-1.4,3.9-2.9c0-2.5-3.7-2.3-7.3-3.1c-4.8-0.9-9.6-2.6-9.6-8.8c0-6.5,5.2-10.3,11.2-10.3h1.9c5.3,0,8.3,2.1,10.2,4.9
				c0.7,1,1.4,2.5,1.4,2.8L194.4,24.1z"/>
			<path d="M246.6,15.7v-0.5v-0.5v-0.6h-0.7h-5.6h-0.7v0.7v0.4v28V44v0.7h0.7h6.2h0.7V44v-0.7V26.5c0-2.7,2.1-4.7,4.8-4.7
				c0,0,1.4-0.1,3.1,0.3v-0.4v-7.2v-0.1c-1.1-0.4-2.4-0.3-2.4-0.3s-3.1-0.2-6,2.9v-2.3"/>
			<path d="M114.6,44.6h7.6V28.8h1.9l10.1,15.8h8.9l-10.4-15.8c6-0.5,9.9-4.7,9.9-11V17c0-7.5-4.8-12.4-12.4-12.4h-15.6V44.6z
				 M122.2,11.7h8c2.6,0,4.8,2.2,4.8,4.8V17c0,2.6-2.2,4.8-4.8,4.8h-8V11.7z"/>
			<path d="M154.8,31.3H172v-3.2l0,0v-2.8c0-5.5-4.9-11.8-12.4-11.8c-7.6,0-12.4,6.2-12.4,11.8v8.2c0,6.9,4.9,11.8,12.4,11.8
				c5.8,0,8.7-2.5,10.8-5.8c0.5-0.9,1-2,1-2l-7-3.1c-1.2,2.9-3,3.9-4.7,3.9c-2.7,0-4.8-2.2-4.8-4.8V31.3z M164.3,24.9h-0.7h-7.9
				h-0.7v-0.6c0-0.9,1.5-3.9,4.7-3.9c3.3,0,4.7,3.1,4.7,3.9V24.9z"/>
			<path d="M232.1,44.6V14.2l-7.6,0v18.1h0v2.1c-1.2,2.9-3,3.9-4.7,3.9c-2.7,0-4.8-2.2-4.8-4.8l0-0.7V14.2h-7.6v18.7v0.7
				c0,6.9,4.9,11.8,12.4,11.8c2.1,0,3.9-0.8,5.3-2v1.3H232.1z"/>
		</g>
		<path d="M134.7,74.2 M134.7,74.2c3-1.7,5.4-5.7,5.4-8.3v-0.1c0-7.1-4.6-11-11.8-11h-11.6h-1.5h-0.7v0.7v3.1v29.1v6.5v0.7h3.7v0
			h10.1c7.2,0,11.8-4.5,11.8-11.7v-0.4C140.1,79.4,138,76.2,134.7,74.2 M134.9,83.7c0,3.7-3,6.5-6.6,6.5h-8.6V76.4h8.6
			c3.7,0,6.6,2.9,6.6,6.5V83.7z M134.9,65.2c0,3.7-3,6.6-6.6,6.6h-8.6V59.4h8.6C132,59.4,134.9,61.7,134.9,65.2L134.9,65.2z"/>
		<path d="M163.9,78.4H155c-4.8,0-8.7,3.1-8.7,8v0.4c0,4.9,3.9,8.1,8.7,8.1h2.6c1.5,0,3.9-1.1,5.8-3.1c0.2-0.2,0.3-0.2,0.5-0.3v1.3
			v2.1v0h1.4h3.2h0.6v0h0v-0.7v-1.4V75.5c0-6.6-4.7-10.9-11.9-10.9c-3.3,0-5.9,1-7.7,2.5c-1.1,0.9-2,2-2.7,3.2c0,0,0,0,0,0l4.6,2.5
			c1.5-2.5,3.7-3.7,5.9-3.7c3.7,0,6.6,2.8,6.6,6.4V78.4z M157.6,90.3H155c-1.9,0-3.5-1.6-3.5-3.5v-1.1c0-1.9,1.5-3.5,3.5-3.5h8.2
			c0.5,0,0.7,0.2,0.7,0.7V85C163.1,87.7,160.5,90.3,157.6,90.3z"/>
		<path d="M182.6,68.3v-3.2h-1.3H178h-0.7v0.7v28.4v0.7h5.3v-0.7v-18c0-3.6,2.9-6.5,6.5-6.5c3.6,0,6.6,3,6.6,6.5v7.9h0v10.8h5.3
			v-0.7V84.1v-7.9c0-6.5-4.7-11.1-11.9-11.1C187.1,65.1,184.4,66.1,182.6,68.3z"/>
		<polygon points="231.4,65.3 221.7,75.1 233.9,94.9 227.3,94.9 217.8,79.3 214.1,83.1 214.1,84.1 214.1,94.2 214.1,94.9 
			208.8,94.9 208.8,84.1 208.8,84.1 208.8,54.8 214.1,54.8 214.1,77.1 224.8,65.3 		"/>
	</g>
</g>
</svg>
