<?xml version="1.0" encoding="UTF-8" standalone="no"?>
<svg
   xmlns:dc="http://purl.org/dc/elements/1.1/"
   xmlns:cc="http://creativecommons.org/ns#"
   xmlns:rdf="http://www.w3.org/1999/02/22-rdf-syntax-ns#"
   xmlns:svg="http://www.w3.org/2000/svg"
   xmlns="http://www.w3.org/2000/svg"
   viewBox="0 0 203.39999 70.362503"
   height="70.362503"
   width="203.39999"
   xml:space="preserve"
   version="1.1"
   id="svg2"><metadata
     id="metadata8"><rdf:RDF><cc:Work
         rdf:about=""><dc:format>image/svg+xml</dc:format><dc:type
           rdf:resource="http://purl.org/dc/dcmitype/StillImage" /></cc:Work></rdf:RDF></metadata><defs
     id="defs6"><clipPath
       id="clipPath18"
       clipPathUnits="userSpaceOnUse"><path
         id="path20"
         d="m 0,0 1627,0 0,562.867 -1627,0 L 0,0 Z" /></clipPath></defs><g
     transform="matrix(1.25,0,0,-1.25,0,70.3625)"
     id="g10"><g
       transform="scale(0.1,0.1)"
       id="g12"><g
         id="g14"><g
           clip-path="url(#clipPath18)"
           id="g16"><path
             id="path22"
             style="fill:#81cd2f;fill-opacity:1;fill-rule:nonzero;stroke:none"
             d="m 1585.29,118.105 c 7.11,0 14.08,0.223 14.08,8.196 0,6.558 -5.45,8.094 -11.13,8.094 l -10.61,0 0,-16.29 7.66,0 z m -7.66,-25.7925 -5.78,0 0,46.9925 18.03,0 c 10.6,0 15.27,-4.61 15.27,-13.004 0,-8.305 -5.45,-12.035 -11.8,-13.086 l 13.97,-20.9025 -6.74,0 -13.22,20.9025 -9.73,0 0,-20.9025 z m -25.35,23.4965 c 0,-19.4301 14.65,-34.8402 34.3,-34.8402 19.68,0 34.33,15.4101 34.33,34.8402 0,19.453 -14.65,34.843 -34.33,34.843 -19.65,0 -34.3,-15.39 -34.3,-34.843 z m 74.94,0 c 0,-22.8324 -17.67,-40.6254 -40.64,-40.6254 -22.91,0 -40.61,17.793 -40.61,40.6254 0,22.824 17.7,40.664 40.61,40.664 22.97,0 40.64,-17.84 40.64,-40.664" /><path
             id="path24"
             style="fill:#81cd2f;fill-opacity:1;fill-rule:nonzero;stroke:none"
             d="m 931.793,530.883 c 1.387,-0.531 2.871,-1.055 4.434,-1.586 1.601,-0.543 3.261,-1.067 5,-1.567 1.777,-0.507 3.554,-1.011 5.468,-1.476 1.875,-0.469 3.868,-0.914 5.918,-1.328 l -66.816,-46.981 c -0.703,1.567 -1.457,3.067 -2.238,4.512 -0.809,1.398 -1.629,2.766 -2.481,4.063 -0.887,1.281 -1.765,2.488 -2.625,3.66 -0.851,1.133 -1.777,2.207 -2.656,3.234 l 55.996,37.469" /><path
             id="path26"
             style="fill:#81cd2f;fill-opacity:1;fill-rule:nonzero;stroke:none"
             d="m 979.527,465.652 c -5.449,-4.601 -12.011,-8.234 -19.14,-10.789 -7.168,-2.59 -14.864,-4.054 -22.492,-4.398 -7.586,-0.328 -15.067,0.453 -21.922,2.355 -6.7,1.891 -12.727,4.813 -17.657,8.758 l 76.426,56.688 c 5.293,-2.762 9.512,-6.207 12.559,-10.075 3.152,-3.976 5.105,-8.437 5.781,-13.109 0.672,-4.812 0,-9.852 -2.168,-14.824 -2.226,-5.098 -5.957,-10.094 -11.387,-14.606" /><path
             id="path28"
             style="fill:#81cd2f;fill-opacity:1;fill-rule:nonzero;stroke:none"
             d="m 973.688,562.484 c 6.765,0.621 13.3,0.434 19.355,-0.214 6.133,-0.645 11.857,-1.786 16.817,-3.047 5.04,-1.27 9.3,-2.68 12.41,-3.813 3.15,-1.129 5.07,-1.996 5.46,-2.14 0,-0.012 -0.04,-0.043 -0.1,-0.086 -0.08,-0.043 -0.18,-0.121 -0.29,-0.231 -0.1,-0.086 -0.28,-0.219 -0.46,-0.348 -0.18,-0.14 -0.36,-0.3 -0.63,-0.488 -1.28,-0.965 -3.41,-2.453 -6.22,-4.191 -2.87,-1.746 -6.48,-3.766 -10.74,-5.738 -4.29,-1.969 -9.26,-3.907 -14.782,-5.45 -5.469,-1.582 -11.504,-2.785 -17.813,-3.281 -7.48,-0.598 -14.57,-0.172 -20.996,0.805 -6.269,0.957 -11.875,2.433 -16.484,3.98 -4.551,1.473 -8.125,3.028 -10.606,4.196 -2.453,1.152 -3.8,1.96 -3.828,1.984 l -72.109,-46.141 c 0.039,-0.035 1.414,-0.98 3.398,-2.773 2.032,-1.781 4.649,-4.434 7.129,-7.824 2.598,-3.481 5.078,-7.762 6.563,-12.758 1.601,-5.153 2.129,-11.09 0.781,-17.653 -1.203,-5.71 -3.828,-11.464 -7.266,-16.984 -3.476,-5.676 -7.804,-11.113 -12.343,-16.051 -4.649,-5.054 -9.434,-9.566 -13.692,-13.265 -4.316,-3.778 -8.078,-6.696 -10.508,-8.524 -0.461,-0.351 -0.879,-0.644 -1.242,-0.91 -0.371,-0.266 -0.691,-0.504 -0.926,-0.676 -0.234,-0.183 -0.421,-0.316 -0.566,-0.402 -0.117,-0.102 -0.195,-0.152 -0.207,-0.152 -0.34,0.336 -2.117,2.25 -4.383,5.398 -2.207,3.086 -4.894,7.34 -7.129,12.469 -2.179,4.976 -3.918,10.715 -4.414,16.953 -0.488,6.027 0.156,12.5 2.676,19.203 2.031,5.441 5.176,10.594 8.828,15.301 3.613,4.586 7.664,8.789 11.699,12.461 3.973,3.625 7.91,6.754 11.309,9.254 3.379,2.5 6.211,4.379 8.055,5.562 0.324,0.227 0.636,0.403 0.89,0.586 0.281,0.176 0.528,0.293 0.703,0.434 0.176,0.113 0.36,0.199 0.43,0.254 0.137,0.062 0.176,0.097 0.176,0.097 -3.613,2.899 -5.852,6.297 -6.836,9.907 -0.996,3.535 -0.781,7.277 0.449,11.011 1.25,3.629 3.477,7.25 6.602,10.684 3.125,3.379 7.058,6.562 11.875,9.39 4.726,2.793 9.863,5.02 15.078,6.641 5.254,1.613 10.644,2.668 15.926,3.137 5.285,0.469 10.539,0.363 15.421,-0.379 4.969,-0.746 9.579,-2.149 13.633,-4.231 0,0 0.028,0.028 0.137,0.079 0.039,0.066 0.176,0.132 0.312,0.23 0.145,0.109 0.321,0.215 0.536,0.355 0.207,0.133 0.461,0.293 0.714,0.458 1.446,0.925 3.75,2.347 6.739,3.957 3.008,1.632 6.621,3.457 10.781,5.207 4.109,1.726 8.75,3.433 13.719,4.812 4.972,1.367 10.324,2.441 15.969,2.945" /><path
             id="path30"
             style="fill:#81cd2f;fill-opacity:1;fill-rule:nonzero;stroke:none"
             d="m 9.00781,131.609 c 12.51949,-7.195 34.54689,-12.976 52.06639,-12.976 33.0508,0 51.0708,16.972 51.0708,43.387 0,25.968 -16.5317,40.839 -44.0512,59.113 -37.5743,23.086 -63.62505,55.273 -63.62505,90.351 0,50.457 35.57035,90.336 98.65225,90.336 21.543,0 41.582,-6.25 50.59,-11.531 l -10.02,-45.973 c -9.007,5.762 -23.531,11.055 -41.582,11.055 -30.5231,0 -45.0231,-17.945 -45.0231,-37.648 0,-24.985 13.4922,-36.512 48.0551,-57.649 42.558,-26.922 59.582,-58.148 59.582,-92.738 0,-58.176 -43.059,-95.1563 -103.6488,-95.1563 -25.5195,0 -50.5781,6.7344 -61.0742,13.457 l 9.00781,45.9723" /><path
             id="path32"
             style="fill:#81cd2f;fill-opacity:1;fill-rule:nonzero;stroke:none"
             d="m 681.836,213.789 c 0,49.574 -12.52,69.188 -31.543,69.188 -23.035,0 -34.547,-38.047 -34.547,-69.188 l 66.09,0 z M 615.25,175.73 c 0,-42.949 26.035,-62.507 54.563,-62.507 17.542,0 32.558,4.011 43.57,9.035 l 7.508,-38.5588 c -15.028,-7.0195 -38.555,-11.5195 -61.094,-11.5195 -62.578,0 -96.629,48.5113 -96.629,117.5933 0,80.633 39.066,133.262 91.148,133.262 51.036,0 77.071,-44.828 77.071,-118.769 0,-14.024 -0.977,-22.039 -1.477,-28.536 l -114.66,0" /><path
             id="path34"
             style="fill:#81cd2f;fill-opacity:1;fill-rule:nonzero;stroke:none"
             d="m 428.574,319.027 24.047,-121.675 c 3.492,-19.024 7.004,-41.051 10.5,-64.11 l 1.012,0 c 2.992,22.559 6.504,43.098 10.015,64.11 l 23.512,121.675 53.098,0 -64.606,-243.8434 -48.554,0 -65.61,243.8434 56.586,0" /><path
             id="path36"
             style="fill:#81cd2f;fill-opacity:1;fill-rule:nonzero;stroke:none"
             d="m 759.797,319.027 37.465,0 9.59,-28.55 1.015,0 c 11.504,19.543 32.031,32.558 57.578,32.558 41.063,0 62.598,-31.555 62.598,-88.125 l 0,-159.7264 -53.594,0 0,154.7074 c 0,24.05 -5,48.07 -28.515,48.07 -13.028,0 -25.051,-10.012 -30.071,-30.035 -1.492,-5.016 -2.5,-13.016 -2.5,-22.039 l 0,-150.7034 -53.566,0 0,243.8434" /><path
             id="path38"
             style="fill:#81cd2f;fill-opacity:1;fill-rule:nonzero;stroke:none"
             d="m 1030.78,117.977 c 4.51,-0.973 9.51,-0.973 13.02,-0.973 36.53,0 70.57,28.23 70.57,127.375 0,74.008 -22.02,114.797 -68.06,114.797 -5.49,0 -11.02,-0.481 -15.53,-1.457 l 0,-239.742 z m -53.05,278.277 c 15.489,3.879 37.05,6.289 60.08,6.289 39.04,0 67.1,-9.199 87.14,-27.098 27.49,-23.683 44.54,-66.261 44.54,-131.543 0,-70.152 -18.01,-113.668 -44.05,-137.855 -22.55,-22.2384 -55.11,-33.3829 -98.67,-33.3829 -18.51,0 -37.028,1.9531 -49.04,3.3906 l 0,320.1993" /><path
             id="path40"
             style="fill:#81cd2f;fill-opacity:1;fill-rule:nonzero;stroke:none"
             d="m 1300.42,197.352 c -21.01,-0.516 -58.57,-6.012 -58.57,-48.575 0,-27.539 14.53,-37.558 26.52,-37.558 13.01,0 26.06,9.015 30.57,28.058 1,3.496 1.48,7.996 1.48,12.52 l 0,45.555 z m 52.56,-122.1684 -37.95,0 -10.09,25.0194 -1,0 c -12.52,-19.0233 -30.53,-29.0233 -51.6,-29.0233 -35,0 -61.56,29.5433 -61.56,72.1013 0,62.567 53.08,89.11 108.16,89.625 l 0,6.508 c 0,25.027 -10.04,43.047 -36.56,43.047 -17.52,0 -32.07,-4.992 -45.57,-13.512 l -10.02,36.547 c 12.03,7.52 37.56,17.539 67.11,17.539 63.09,0 79.08,-43.074 79.08,-95.144 l 0,-152.7074" /><path
             id="path42"
             style="fill:#81cd2f;fill-opacity:1;fill-rule:nonzero;stroke:none"
             d="m 276.688,282.977 c 19.031,0 31.55,-19.614 31.55,-69.188 l -66.093,0 c 0,31.141 11.507,69.188 34.543,69.188 z m 58.824,-162.539 c -10.516,-4.129 -23.942,-7.215 -39.282,-7.215 -28.55,0 -54.582,19.558 -54.582,62.507 l 114.645,0 c 0.5,6.497 1.488,14.512 1.488,28.536 0,73.941 -26.011,118.769 -77.082,118.769 -52.101,0 -91.148,-52.629 -91.148,-133.262 0,-69.082 34.062,-117.5933 96.644,-117.5933 22.539,0 46.071,4.5 61.071,11.5195 l 0,0 -11.754,36.7388" /><path
             id="path44"
             style="fill:#81cd2f;fill-opacity:1;fill-rule:nonzero;stroke:none"
             d="m 1494.12,319.027 -34.03,-170.316 -0.97,0 -35.34,170.316 -56.56,0 64.73,-227.5622 c 6.74,-26.8476 -10.61,-54.1523 -41.54,-54.1523 L 1402.4,0 c 35.78,3.80859 62.81,24.1719 72.34,55.5742 l 71.23,263.4528 -51.85,0" /></g></g></g></g></svg>