<?xml version="1.0" encoding="utf-8"?>
<!-- Generator: Adobe Illustrator 19.1.0, SVG Export Plug-In . SVG Version: 6.00 Build 0)  -->
<svg version="1.1" id="Lager_1" xmlns="http://www.w3.org/2000/svg" xmlns:xlink="http://www.w3.org/1999/xlink" x="0px" y="0px"
	 viewBox="-821.1 537.6 164.2 63.4" style="enable-background:new -821.1 537.6 164.2 63.4;" xml:space="preserve">
<style type="text/css">
	.st0{fill:#F5F5F5;}
	.st1{fill:#FF3926;}
	.st2{fill:#333333;}
</style>
<g>
	<g>
		<defs>
			<polygon id="SVGID_1_" points="-119.2,593.2 -129.5,582.9 -125.4,578.8 -119.2,584.9 -102.7,568.4 -98.6,572.6 			"/>
		</defs>
		<clipPath id="SVGID_2_">
			<use xlink:href="#SVGID_1_"  style="overflow:visible;"/>
		</clipPath>
	</g>
</g>
<g>
	<path d="M-805.6,557.6c-0.2-0.2-0.3-0.5-0.3-0.8v-2.1c0-1.4,0.2-2.5,0.6-3.3c0.4-0.8,0.9-1.5,1.7-2.1c0.8-0.6,2.1-1.4,3.9-2.5
		c0.6-0.4,1.1-0.8,1.4-1.2s0.4-0.9,0.4-1.5c0-0.7-0.2-1.3-0.7-1.8c-0.5-0.4-1.2-0.7-2-0.7c-1.1,0-2.2,0.3-3.3,1
		c-0.1,0.1-0.2,0.1-0.3,0.1c-0.2,0-0.4-0.1-0.5-0.3l-0.9-1.6c-0.1-0.1-0.1-0.2-0.1-0.3c0-0.2,0.1-0.3,0.2-0.5
		c0.7-0.5,1.5-0.8,2.4-1.1c0.9-0.3,1.8-0.4,2.7-0.4c1.8,0,3.1,0.5,4.1,1.4c1,1,1.5,2.3,1.5,3.9c0,1.2-0.3,2.2-0.9,3.1
		c-0.6,0.8-1.6,1.7-3,2.6c-0.4,0.3-0.8,0.5-1.1,0.6c-0.8,0.5-1.3,0.8-1.7,1.2c-0.4,0.3-0.7,0.7-1,1.1c-0.3,0.4-0.4,0.9-0.4,1.5v0.8
		h6.9c0.2,0,0.3,0.1,0.4,0.2s0.2,0.2,0.2,0.4v2c0,0.2-0.1,0.3-0.2,0.4c-0.1,0.1-0.2,0.2-0.4,0.2h-8.9
		C-805.1,558-805.4,557.9-805.6,557.6z"/>
	<path d="M-782.9,546.1c0.9,0.6,1.7,1.4,2.2,2.3c0.5,1,0.8,2,0.8,3.2s-0.3,2.3-0.9,3.3c-0.6,1-1.4,1.9-2.5,2.5
		c-1,0.6-2.2,0.9-3.4,0.9c-1.3,0-2.5-0.3-3.6-0.9c-1.1-0.6-2-1.4-2.7-2.5c-0.1-0.1-0.1-0.2-0.1-0.4c0-0.2,0.1-0.4,0.3-0.6
		c0.4-0.3,0.9-0.7,1.3-1c0.2-0.1,0.3-0.1,0.4-0.1c0.2,0,0.3,0.1,0.5,0.3c0.5,0.7,1,1.2,1.7,1.6c0.7,0.4,1.4,0.6,2.1,0.6
		s1.3-0.2,1.8-0.5c0.6-0.3,1-0.8,1.3-1.3c0.3-0.6,0.5-1.2,0.5-1.9s-0.2-1.3-0.5-1.8c-0.3-0.5-0.8-1-1.3-1.3
		c-0.5-0.3-1.1-0.5-1.8-0.5c-0.5,0-1,0.1-1.5,0.3s-1,0.5-1.4,0.8c-0.2,0.2-0.5,0.3-0.7,0.3c-0.1,0-0.2,0-0.4-0.1l-1-0.3
		c-0.1,0-0.2-0.1-0.3-0.2c-0.1-0.1-0.1-0.2-0.1-0.4l1.3-8.5c0-0.3,0.2-0.5,0.4-0.6c0.2-0.2,0.4-0.3,0.7-0.3h7.6
		c0.2,0,0.3,0.1,0.4,0.2c0.1,0.1,0.2,0.2,0.2,0.4v1.9c0,0.2-0.1,0.3-0.2,0.4c-0.1,0.1-0.2,0.2-0.4,0.2h-6l-0.6,3.7
		c0.8-0.4,1.6-0.5,2.4-0.5C-784.9,545.2-783.9,545.5-782.9,546.1z"/>
	<path d="M-775.6,555.8c-1.1-1.7-1.7-4.1-1.7-7.3c0-3.2,0.6-5.6,1.7-7.3c1.1-1.7,2.8-2.5,5-2.5s3.8,0.8,5,2.5
		c1.1,1.7,1.7,4.1,1.7,7.3c0,3.2-0.6,5.7-1.7,7.3c-1.1,1.6-2.8,2.5-5,2.5S-774.4,557.5-775.6,555.8z M-768.6,554.6
		c0.5-0.5,0.9-1.2,1.1-2.2c0.2-1,0.3-2.3,0.3-3.9c0-1.6-0.1-3-0.3-3.9c-0.2-1-0.6-1.7-1.1-2.1c-0.5-0.5-1.2-0.7-2-0.7
		s-1.5,0.2-2,0.7s-0.9,1.2-1.1,2.2c-0.2,1-0.3,2.3-0.3,4c0,2.4,0.3,4.1,0.8,5.1s1.4,1.6,2.6,1.6
		C-769.7,555.3-769.1,555.1-768.6,554.6z"/>
	<path d="M-752.5,555.8c-1.1-1.7-1.7-4.1-1.7-7.3c0-3.2,0.6-5.6,1.7-7.3c1.1-1.7,2.8-2.5,5-2.5c2.2,0,3.8,0.8,5,2.5
		c1.1,1.7,1.7,4.1,1.7,7.3c0,3.2-0.6,5.7-1.7,7.3c-1.1,1.6-2.8,2.5-5,2.5C-749.7,558.3-751.4,557.5-752.5,555.8z M-745.5,554.6
		c0.5-0.5,0.9-1.2,1.1-2.2s0.3-2.3,0.3-3.9c0-1.6-0.1-3-0.3-3.9c-0.2-1-0.6-1.7-1.1-2.1c-0.5-0.5-1.2-0.7-2-0.7
		c-0.8,0-1.5,0.2-2,0.7s-0.9,1.2-1.1,2.2s-0.3,2.3-0.3,4c0,2.4,0.3,4.1,0.8,5.1s1.4,1.6,2.6,1.6C-746.7,555.3-746,555.1-745.5,554.6
		z"/>
	<path d="M-736.1,555.8c-1.1-1.7-1.7-4.1-1.7-7.3c0-3.2,0.6-5.6,1.7-7.3c1.1-1.7,2.8-2.5,5-2.5s3.8,0.8,5,2.5
		c1.1,1.7,1.7,4.1,1.7,7.3c0,3.2-0.6,5.7-1.7,7.3c-1.1,1.6-2.8,2.5-5,2.5S-734.9,557.5-736.1,555.8z M-729.1,554.6
		c0.5-0.5,0.9-1.2,1.1-2.2c0.2-1,0.3-2.3,0.3-3.9c0-1.6-0.1-3-0.3-3.9c-0.2-1-0.6-1.7-1.1-2.1c-0.5-0.5-1.2-0.7-2-0.7
		s-1.5,0.2-2,0.7s-0.9,1.2-1.1,2.2c-0.2,1-0.3,2.3-0.3,4c0,2.4,0.3,4.1,0.8,5.1s1.4,1.6,2.6,1.6
		C-730.3,555.3-729.6,555.1-729.1,554.6z"/>
	<path d="M-719.6,555.8c-1.1-1.7-1.7-4.1-1.7-7.3c0-3.2,0.6-5.6,1.7-7.3c1.1-1.7,2.8-2.5,5-2.5s3.8,0.8,5,2.5
		c1.1,1.7,1.7,4.1,1.7,7.3c0,3.2-0.6,5.7-1.7,7.3c-1.1,1.6-2.8,2.5-5,2.5S-718.5,557.5-719.6,555.8z M-712.7,554.6
		c0.5-0.5,0.9-1.2,1.1-2.2s0.3-2.3,0.3-3.9c0-1.6-0.1-3-0.3-3.9c-0.2-1-0.6-1.7-1.1-2.1c-0.5-0.5-1.2-0.7-2-0.7
		c-0.8,0-1.5,0.2-2,0.7s-0.9,1.2-1.1,2.2s-0.3,2.3-0.3,4c0,2.4,0.3,4.1,0.8,5.1s1.4,1.6,2.6,1.6
		C-713.8,555.3-713.2,555.1-712.7,554.6z"/>
	<path d="M-697.6,557.8c-0.1-0.1-0.2-0.2-0.2-0.4v-19.2c0-0.2,0.1-0.3,0.2-0.4c0.1-0.1,0.2-0.2,0.4-0.2h2.1c0.2,0,0.3,0.1,0.4,0.2
		c0.1,0.1,0.2,0.2,0.2,0.4v9.9h0.9l4.7-5.1c0.2-0.2,0.4-0.3,0.7-0.3h2.4c0.2,0,0.3,0,0.4,0.1c0.1,0.1,0.2,0.2,0.2,0.4
		c0,0.1-0.1,0.3-0.2,0.4l-5.7,5.9l6,7.5c0.1,0.1,0.1,0.2,0.1,0.3c0,0.1,0,0.3-0.1,0.3c-0.1,0.1-0.2,0.1-0.4,0.1h-2.4
		c-0.3,0-0.6-0.1-0.8-0.4l-5.1-6.4h-0.9v6.2c0,0.2-0.1,0.3-0.2,0.4c-0.1,0.1-0.2,0.2-0.4,0.2h-2.1
		C-697.3,558-697.5,557.9-697.6,557.8z"/>
	<path d="M-682.4,557.8c-0.1-0.1-0.2-0.2-0.2-0.4v-2c0-0.2,0.1-0.3,0.2-0.4c0.1-0.1,0.2-0.2,0.4-0.2h2v-9.1h-2.3
		c-0.2,0-0.3-0.1-0.4-0.2c-0.1-0.1-0.2-0.2-0.2-0.4v-1.9c0-0.2,0.1-0.3,0.2-0.4c0.1-0.1,0.2-0.2,0.4-0.2h4.1c0.3,0,0.6,0.1,0.8,0.3
		s0.3,0.5,0.3,0.8v1l1.4-1.1c0.5-0.4,1-0.7,1.4-0.9c0.4-0.2,0.8-0.3,1.4-0.3h0.8c0.2,0,0.3,0.1,0.4,0.2c0.1,0.1,0.2,0.2,0.2,0.4v2
		c0,0.2-0.1,0.3-0.2,0.4c-0.1,0.1-0.2,0.2-0.4,0.2h-0.7c-0.5,0-0.9,0.1-1.2,0.2c-0.3,0.1-0.8,0.5-1.5,1.1l-1.5,1.2v6.7h2.6
		c0.2,0,0.3,0.1,0.4,0.2c0.1,0.1,0.2,0.2,0.2,0.4v2c0,0.2-0.1,0.3-0.2,0.4c-0.1,0.1-0.2,0.2-0.4,0.2h-7.6
		C-682.2,558-682.3,557.9-682.4,557.8z"/>
</g>
<g>
	<g>
		<g>
			<g>
				<g>
					<rect x="-742.9" y="584.6" class="st0" width="86" height="8.7"/>
				</g>
			</g>
		</g>
		<g>
			<g>
				<g>
					<rect x="-821.1" y="584.6" class="st1" width="80.6" height="8.7"/>
				</g>
			</g>
		</g>
	</g>
	<g>
		<g>
			<g>
				<path class="st2" d="M-736.8,601h-4.5c-1.1,0-2-0.9-2-2v-20c0-1.1,0.9-2,2-2h4.5c1.1,0,2,0.9,2,2v20
					C-734.8,600.1-735.6,601-736.8,601z"/>
			</g>
		</g>
	</g>
</g>
</svg>
