<?xml version="1.0" encoding="utf-8"?>
<!-- Generator: Adobe Illustrator 19.1.0, SVG Export Plug-In . SVG Version: 6.00 Build 0)  -->
<svg version="1.1" id="Lager_1" xmlns="http://www.w3.org/2000/svg" xmlns:xlink="http://www.w3.org/1999/xlink" x="0px" y="0px"
	 viewBox="-879 527.4 175.7 25.8" style="enable-background:new -879 527.4 175.7 25.8;" xml:space="preserve">
<style type="text/css">
	.st0{clip-path:url(#SVGID_2_);}
	.st1{clip-path:url(#SVGID_4_);fill:#76D788;}
</style>
<g>
	<path d="M-837.5,552.6c-0.2-0.2-0.3-0.5-0.3-0.8v-2.1c0-1.4,0.2-2.5,0.6-3.3c0.4-0.8,0.9-1.5,1.7-2.1s2.1-1.4,3.9-2.5
		c0.6-0.4,1.1-0.8,1.4-1.2c0.3-0.4,0.4-0.9,0.4-1.5c0-0.7-0.2-1.3-0.7-1.8c-0.5-0.4-1.2-0.7-2-0.7c-1.1,0-2.2,0.3-3.3,1
		c-0.1,0.1-0.2,0.1-0.3,0.1c-0.2,0-0.4-0.1-0.5-0.3l-0.9-1.6c-0.1-0.1-0.1-0.2-0.1-0.3c0-0.2,0.1-0.3,0.2-0.5
		c0.7-0.5,1.5-0.8,2.4-1.1c0.9-0.3,1.8-0.4,2.7-0.4c1.8,0,3.1,0.5,4.1,1.4c1,1,1.5,2.3,1.5,3.9c0,1.2-0.3,2.2-0.9,3.1
		c-0.6,0.8-1.6,1.7-3,2.6c-0.4,0.3-0.8,0.5-1.1,0.6c-0.8,0.5-1.3,0.8-1.7,1.2c-0.4,0.3-0.7,0.7-1,1.1s-0.4,0.9-0.4,1.5v0.8h6.9
		c0.2,0,0.3,0.1,0.4,0.2c0.1,0.1,0.2,0.2,0.2,0.4v2c0,0.2-0.1,0.3-0.2,0.4c-0.1,0.1-0.2,0.2-0.4,0.2h-8.9
		C-837,552.9-837.2,552.8-837.5,552.6z"/>
	<path d="M-814.8,541c0.9,0.6,1.7,1.4,2.2,2.3c0.5,1,0.8,2,0.8,3.2c0,1.2-0.3,2.3-0.9,3.3c-0.6,1-1.4,1.9-2.5,2.5
		c-1,0.6-2.2,0.9-3.4,0.9c-1.3,0-2.5-0.3-3.6-0.9c-1.1-0.6-2-1.4-2.7-2.5c-0.1-0.1-0.1-0.2-0.1-0.4c0-0.2,0.1-0.4,0.3-0.6
		c0.4-0.3,0.9-0.7,1.3-1c0.2-0.1,0.3-0.1,0.4-0.1c0.2,0,0.3,0.1,0.5,0.3c0.5,0.7,1,1.2,1.7,1.6c0.7,0.4,1.4,0.6,2.1,0.6
		c0.7,0,1.3-0.2,1.8-0.5c0.6-0.3,1-0.8,1.3-1.3c0.3-0.6,0.5-1.2,0.5-1.9c0-0.7-0.2-1.3-0.5-1.8c-0.3-0.5-0.8-1-1.3-1.3
		c-0.5-0.3-1.1-0.5-1.8-0.5c-0.5,0-1,0.1-1.5,0.3c-0.5,0.2-1,0.5-1.4,0.8c-0.2,0.2-0.5,0.3-0.7,0.3c-0.1,0-0.2,0-0.4-0.1l-1-0.3
		c-0.1,0-0.2-0.1-0.3-0.2c-0.1-0.1-0.1-0.2-0.1-0.4l1.3-8.5c0-0.3,0.2-0.5,0.4-0.6c0.2-0.2,0.4-0.3,0.7-0.3h7.6
		c0.2,0,0.3,0.1,0.4,0.2c0.1,0.1,0.2,0.2,0.2,0.4v1.9c0,0.2-0.1,0.3-0.2,0.4c-0.1,0.1-0.2,0.2-0.4,0.2h-6l-0.6,3.7
		c0.8-0.4,1.6-0.5,2.4-0.5C-816.7,540.1-815.7,540.4-814.8,541z"/>
	<path d="M-807.4,550.7c-1.1-1.7-1.7-4.1-1.7-7.3c0-3.2,0.6-5.6,1.7-7.3c1.1-1.7,2.8-2.5,5-2.5s3.8,0.8,5,2.5
		c1.1,1.7,1.7,4.1,1.7,7.3c0,3.2-0.6,5.7-1.7,7.3c-1.1,1.6-2.8,2.5-5,2.5S-806.3,552.4-807.4,550.7z M-800.4,549.5
		c0.5-0.5,0.9-1.2,1.1-2.2c0.2-1,0.3-2.3,0.3-3.9s-0.1-3-0.3-3.9c-0.2-1-0.6-1.7-1.1-2.1c-0.5-0.5-1.2-0.7-2-0.7
		c-0.8,0-1.5,0.2-2,0.7c-0.5,0.5-0.9,1.2-1.1,2.2c-0.2,1-0.3,2.3-0.3,4c0,2.4,0.3,4.1,0.8,5.1c0.5,1,1.4,1.6,2.6,1.6
		C-801.6,550.2-800.9,550-800.4,549.5z"/>
	<path d="M-784.3,550.7c-1.1-1.7-1.7-4.1-1.7-7.3c0-3.2,0.6-5.6,1.7-7.3c1.1-1.7,2.8-2.5,5-2.5s3.8,0.8,5,2.5
		c1.1,1.7,1.7,4.1,1.7,7.3c0,3.2-0.6,5.7-1.7,7.3s-2.8,2.5-5,2.5S-783.2,552.4-784.3,550.7z M-777.4,549.5c0.5-0.5,0.9-1.2,1.1-2.2
		c0.2-1,0.3-2.3,0.3-3.9s-0.1-3-0.3-3.9c-0.2-1-0.6-1.7-1.1-2.1c-0.5-0.5-1.2-0.7-2-0.7c-0.8,0-1.5,0.2-2,0.7
		c-0.5,0.5-0.9,1.2-1.1,2.2c-0.2,1-0.3,2.3-0.3,4c0,2.4,0.3,4.1,0.8,5.1c0.5,1,1.4,1.6,2.6,1.6C-778.5,550.2-777.9,550-777.4,549.5z
		"/>
	<path d="M-767.9,550.7c-1.1-1.7-1.7-4.1-1.7-7.3c0-3.2,0.6-5.6,1.7-7.3c1.1-1.7,2.8-2.5,5-2.5s3.8,0.8,5,2.5
		c1.1,1.7,1.7,4.1,1.7,7.3c0,3.2-0.6,5.7-1.7,7.3c-1.1,1.6-2.8,2.5-5,2.5S-766.8,552.4-767.9,550.7z M-760.9,549.5
		c0.5-0.5,0.9-1.2,1.1-2.2c0.2-1,0.3-2.3,0.3-3.9s-0.1-3-0.3-3.9c-0.2-1-0.6-1.7-1.1-2.1c-0.5-0.5-1.2-0.7-2-0.7
		c-0.8,0-1.5,0.2-2,0.7c-0.5,0.5-0.9,1.2-1.1,2.2c-0.2,1-0.3,2.3-0.3,4c0,2.4,0.3,4.1,0.8,5.1c0.5,1,1.4,1.6,2.6,1.6
		C-762.1,550.2-761.4,550-760.9,549.5z"/>
	<path d="M-751.5,550.7c-1.1-1.7-1.7-4.1-1.7-7.3c0-3.2,0.6-5.6,1.7-7.3c1.1-1.7,2.8-2.5,5-2.5s3.8,0.8,5,2.5
		c1.1,1.7,1.7,4.1,1.7,7.3c0,3.2-0.6,5.7-1.7,7.3s-2.8,2.5-5,2.5S-750.3,552.4-751.5,550.7z M-744.5,549.5c0.5-0.5,0.9-1.2,1.1-2.2
		s0.3-2.3,0.3-3.9s-0.1-3-0.3-3.9c-0.2-1-0.6-1.7-1.1-2.1c-0.5-0.5-1.2-0.7-2-0.7c-0.8,0-1.5,0.2-2,0.7c-0.5,0.5-0.9,1.2-1.1,2.2
		c-0.2,1-0.3,2.3-0.3,4c0,2.4,0.3,4.1,0.8,5.1c0.5,1,1.4,1.6,2.6,1.6C-745.7,550.2-745,550-744.5,549.5z"/>
	<path d="M-729.4,552.7c-0.1-0.1-0.2-0.2-0.2-0.4v-19.2c0-0.2,0.1-0.3,0.2-0.4c0.1-0.1,0.2-0.2,0.4-0.2h2.1c0.2,0,0.3,0.1,0.4,0.2
		c0.1,0.1,0.2,0.2,0.2,0.4v10h0.9l4.7-5.1c0.2-0.2,0.4-0.3,0.7-0.3h2.4c0.2,0,0.3,0,0.4,0.1c0.1,0.1,0.2,0.2,0.2,0.4
		c0,0.1-0.1,0.3-0.2,0.4l-5.7,5.9l6,7.5c0.1,0.1,0.1,0.2,0.1,0.3c0,0.1,0,0.3-0.1,0.3c-0.1,0.1-0.2,0.1-0.4,0.1h-2.4
		c-0.3,0-0.6-0.1-0.8-0.4l-5.1-6.4h-0.9v6.2c0,0.2-0.1,0.3-0.2,0.4c-0.1,0.1-0.2,0.2-0.4,0.2h-2.1
		C-729.2,552.9-729.3,552.8-729.4,552.7z"/>
	<path d="M-714.2,552.7c-0.1-0.1-0.2-0.2-0.2-0.4v-2c0-0.2,0.1-0.3,0.2-0.4c0.1-0.1,0.2-0.2,0.4-0.2h2v-9.1h-2.3
		c-0.2,0-0.3-0.1-0.4-0.2c-0.1-0.1-0.2-0.2-0.2-0.4v-1.9c0-0.2,0.1-0.3,0.2-0.4c0.1-0.1,0.2-0.2,0.4-0.2h4.1c0.3,0,0.6,0.1,0.8,0.3
		s0.3,0.5,0.3,0.8v1l1.4-1.1c0.5-0.4,1-0.7,1.4-0.9c0.4-0.2,0.8-0.3,1.4-0.3h0.8c0.2,0,0.3,0.1,0.4,0.2c0.1,0.1,0.2,0.2,0.2,0.4v2
		c0,0.2-0.1,0.3-0.2,0.4c-0.1,0.1-0.2,0.2-0.4,0.2h-0.7c-0.5,0-0.9,0.1-1.2,0.2s-0.8,0.5-1.5,1.1l-1.5,1.2v6.7h2.6
		c0.2,0,0.3,0.1,0.4,0.2c0.1,0.1,0.2,0.2,0.2,0.4v2c0,0.2-0.1,0.3-0.2,0.4c-0.1,0.1-0.2,0.2-0.4,0.2h-7.7
		C-714,552.9-714.1,552.8-714.2,552.7z"/>
</g>
<g>
	<defs>
		<polygon id="SVGID_1_" points="-868.6,552.9 -878.9,542.6 -874.8,538.5 -868.6,544.7 -852.1,528.2 -848,532.3 		"/>
	</defs>
	<clipPath id="SVGID_2_">
		<use xlink:href="#SVGID_1_"  style="overflow:visible;"/>
	</clipPath>
	<g class="st0">
		<defs>
			<rect id="SVGID_3_" x="-1534.5" y="29.3" width="2968.7" height="1964.7"/>
		</defs>
		<clipPath id="SVGID_4_">
			<use xlink:href="#SVGID_3_"  style="overflow:visible;"/>
		</clipPath>
		<rect x="-889.2" y="517.9" class="st1" width="51.5" height="45.4"/>
	</g>
</g>
</svg>
