<?xml version="1.0" encoding="utf-8"?>
<!-- Generator: Adobe Illustrator 23.0.3, SVG Export Plug-In . SVG Version: 6.00 Build 0)  -->
<svg version="1.1" id="Lager_1" xmlns="http://www.w3.org/2000/svg" xmlns:xlink="http://www.w3.org/1999/xlink" x="0px" y="0px"
	 viewBox="0 0 190.4 25.8" style="enable-background:new 0 0 190.4 25.8;" xml:space="preserve">
<style type="text/css">
	.st0{clip-path:url(#SVGID_2_);}
	.st1{clip-path:url(#SVGID_4_);fill:#76D788;}
</style>
<path d="M96.1,22.6c-0.2-0.2-0.3-0.5-0.3-0.8v-2.1c0-1.4,0.2-2.5,0.6-3.3c0.4-0.8,0.9-1.5,1.7-2.1s2.1-1.4,3.9-2.5
	c0.6-0.4,1.1-0.8,1.4-1.2s0.4-0.9,0.4-1.5c0-0.7-0.2-1.3-0.7-1.8c-0.5-0.4-1.2-0.7-2-0.7c-1.1,0-2.2,0.3-3.3,1
	c-0.1,0.1-0.2,0.1-0.3,0.1c-0.2,0-0.4-0.1-0.5-0.3l-0.9-1.6C96,5.7,96,5.6,96,5.5c0-0.2,0.1-0.3,0.2-0.5c0.7-0.5,1.5-0.8,2.4-1.1
	s1.8-0.4,2.7-0.4c1.8,0,3.1,0.5,4.1,1.4c1,1,1.5,2.3,1.5,3.9c0,1.2-0.3,2.2-0.9,3.1c-0.6,0.8-1.6,1.7-3,2.6
	c-0.4,0.3-0.8,0.5-1.1,0.6c-0.8,0.5-1.3,0.8-1.7,1.2c-0.4,0.3-0.7,0.7-1,1.1s-0.4,0.9-0.4,1.5v0.8h6.9c0.2,0,0.3,0.1,0.4,0.2
	s0.2,0.2,0.2,0.4v2c0,0.2-0.1,0.3-0.2,0.4s-0.2,0.2-0.4,0.2h-8.9C96.6,22.9,96.4,22.8,96.1,22.6z"/>
<path d="M118.8,11c0.9,0.6,1.7,1.4,2.2,2.3c0.5,1,0.8,2,0.8,3.2s-0.3,2.3-0.9,3.3s-1.4,1.9-2.5,2.5c-1,0.6-2.2,0.9-3.4,0.9
	c-1.3,0-2.5-0.3-3.6-0.9s-2-1.4-2.7-2.5c-0.1-0.1-0.1-0.2-0.1-0.4s0.1-0.4,0.3-0.6c0.4-0.3,0.9-0.7,1.3-1c0.2-0.1,0.3-0.1,0.4-0.1
	c0.2,0,0.3,0.1,0.5,0.3c0.5,0.7,1,1.2,1.7,1.6s1.4,0.6,2.1,0.6s1.3-0.2,1.8-0.5c0.6-0.3,1-0.8,1.3-1.3c0.3-0.6,0.5-1.2,0.5-1.9
	c0-0.7-0.2-1.3-0.5-1.8s-0.8-1-1.3-1.3s-1.1-0.5-1.8-0.5c-0.5,0-1,0.1-1.5,0.3s-1,0.5-1.4,0.8c-0.2,0.2-0.5,0.3-0.7,0.3
	c-0.1,0-0.2,0-0.4-0.1l-1-0.3c-0.1,0-0.2-0.1-0.3-0.2c-0.1-0.1-0.1-0.2-0.1-0.4l1.3-8.5c0-0.3,0.2-0.5,0.4-0.6
	c0.2-0.2,0.4-0.3,0.7-0.3h7.6c0.2,0,0.3,0.1,0.4,0.2s0.2,0.2,0.2,0.4v1.9c0,0.2-0.1,0.3-0.2,0.4S119.7,7,119.5,7h-6l-0.6,3.7
	c0.8-0.4,1.6-0.5,2.4-0.5C116.9,10.1,117.9,10.4,118.8,11z"/>
<path d="M126.2,20.7c-1.1-1.7-1.7-4.1-1.7-7.3s0.6-5.6,1.7-7.3s2.8-2.5,5-2.5s3.8,0.8,5,2.5c1.1,1.7,1.7,4.1,1.7,7.3
	s-0.6,5.7-1.7,7.3c-1.1,1.6-2.8,2.5-5,2.5S127.3,22.4,126.2,20.7z M133.2,19.5c0.5-0.5,0.9-1.2,1.1-2.2c0.2-1,0.3-2.3,0.3-3.9
	s-0.1-3-0.3-3.9c-0.2-1-0.6-1.7-1.1-2.1c-0.5-0.5-1.2-0.7-2-0.7s-1.5,0.2-2,0.7s-0.9,1.2-1.1,2.2c-0.2,1-0.3,2.3-0.3,4
	c0,2.4,0.3,4.1,0.8,5.1s1.4,1.6,2.6,1.6C132,20.2,132.7,20,133.2,19.5z"/>
<path d="M144.3,20.7c-1.1-1.7-1.7-4.1-1.7-7.3s0.6-5.6,1.7-7.3c1.1-1.7,2.8-2.5,5-2.5s3.8,0.8,5,2.5c1.1,1.7,1.7,4.1,1.7,7.3
	s-0.6,5.7-1.7,7.3s-2.8,2.5-5,2.5S145.4,22.4,144.3,20.7z M151.2,19.5c0.5-0.5,0.9-1.2,1.1-2.2c0.2-1,0.3-2.3,0.3-3.9
	s-0.1-3-0.3-3.9c-0.2-1-0.6-1.7-1.1-2.1c-0.5-0.5-1.2-0.7-2-0.7s-1.5,0.2-2,0.7s-0.9,1.2-1.1,2.2c-0.2,1-0.3,2.3-0.3,4
	c0,2.4,0.3,4.1,0.8,5.1s1.4,1.6,2.6,1.6C150.1,20.2,150.7,20,151.2,19.5z"/>
<path d="M160.7,20.7c-1.1-1.7-1.7-4.1-1.7-7.3s0.6-5.6,1.7-7.3c1.1-1.7,2.8-2.5,5-2.5s3.8,0.8,5,2.5c1.1,1.7,1.7,4.1,1.7,7.3
	s-0.6,5.7-1.7,7.3c-1.1,1.6-2.8,2.5-5,2.5S161.8,22.4,160.7,20.7z M167.7,19.5c0.5-0.5,0.9-1.2,1.1-2.2c0.2-1,0.3-2.3,0.3-3.9
	s-0.1-3-0.3-3.9c-0.2-1-0.6-1.7-1.1-2.1c-0.5-0.5-1.2-0.7-2-0.7s-1.5,0.2-2,0.7s-0.9,1.2-1.1,2.2c-0.2,1-0.3,2.3-0.3,4
	c0,2.4,0.3,4.1,0.8,5.1s1.4,1.6,2.6,1.6C166.5,20.2,167.2,20,167.7,19.5z"/>
<path d="M177.1,20.7c-1.1-1.7-1.7-4.1-1.7-7.3s0.6-5.6,1.7-7.3c1.1-1.7,2.8-2.5,5-2.5s3.8,0.8,5,2.5c1.1,1.7,1.7,4.1,1.7,7.3
	s-0.6,5.7-1.7,7.3s-2.8,2.5-5,2.5S178.3,22.4,177.1,20.7z M184.1,19.5c0.5-0.5,0.9-1.2,1.1-2.2s0.3-2.3,0.3-3.9s-0.1-3-0.3-3.9
	c-0.2-1-0.6-1.7-1.1-2.1c-0.5-0.5-1.2-0.7-2-0.7s-1.5,0.2-2,0.7s-0.9,1.2-1.1,2.2c-0.2,1-0.3,2.3-0.3,4c0,2.4,0.3,4.1,0.8,5.1
	s1.4,1.6,2.6,1.6C182.9,20.2,183.6,20,184.1,19.5z"/>
<g>
	<g>
		<g>
			<defs>
				<polygon id="SVGID_1_" points="11.9,25.5 1.6,15.2 5.7,11.1 11.9,17.3 28.4,0.8 32.5,4.9 				"/>
			</defs>
			<clipPath id="SVGID_2_">
				<use xlink:href="#SVGID_1_"  style="overflow:visible;"/>
			</clipPath>
			<g class="st0">
				<g>
					<g>
						<defs>
							<rect id="SVGID_3_" x="-654" y="-498.1" width="2968.7" height="1964.7"/>
						</defs>
						<clipPath id="SVGID_4_">
							<use xlink:href="#SVGID_3_"  style="overflow:visible;"/>
						</clipPath>
						<rect x="-8.7" y="-9.5" class="st1" width="51.5" height="45.4"/>
					</g>
				</g>
			</g>
		</g>
	</g>
</g>
<g>
	<path d="M49.2,18.9h-7.9l-1.4,4h-4.2L43,3.3h4.5l7.3,19.5h-4.2L49.2,18.9z M48.1,15.9l-2.9-8.3l-2.9,8.3H48.1z"/>
	<path d="M60.8,6.2v5.1h7v3h-7v5.3h7.8v3.2H56.8V3.1h11.8v3.1H60.8z"/>
	<path d="M87.7,18.1c-0.8,1.5-2,2.7-3.6,3.5s-3.4,1.2-5.6,1.2h-7V3.1h7c2.1,0,4,0.4,5.6,1.2s2.7,2,3.6,3.4c0.8,1.5,1.2,3.2,1.2,5.2
		C88.9,14.9,88.5,16.6,87.7,18.1z M83.2,17.6c1.2-1.1,1.8-2.7,1.8-4.7s-0.6-3.6-1.8-4.7c-1.2-1.1-2.8-1.7-4.9-1.7h-2.7v12.8h2.7
		C80.4,19.3,82,18.8,83.2,17.6z"/>
</g>
<g>
	<path d="M137.9,24.8c0.5-1.4,1.2-4,1.4-5.7l2.4-0.2c-0.6,2-1.6,4.7-2.3,5.8L137.9,24.8z"/>
</g>
</svg>
